<?xml version="1.0" encoding="utf-8"?>
<!-- Generator: Adobe Illustrator 27.5.0, SVG Export Plug-In . SVG Version: 6.00 Build 0)  -->
<svg version="1.1" id="Capa_1" xmlns="http://www.w3.org/2000/svg" xmlns:xlink="http://www.w3.org/1999/xlink" x="0px" y="0px"
	 viewBox="0 0 664 1283.8" style="enable-background:new 0 0 664 1283.8;" xml:space="preserve">
<style type="text/css">
	.st0{fill:#333333;}
	.st1{fill:#FFFFFF;}
	.st2{fill:#00C2B7;}
	.st3{fill:none;}
</style>
<g>
	<g>
		<g>
			<g>
				<path class="st1" d="M449.5,261.1c-0.1-1.6-0.3-3-0.6-4.3C448.7,258.3,449.1,259.7,449.5,261.1z"/>
				<polygon class="st1" points="437.4,268.4 437,269.1 437.5,269 				"/>
				
					<rect x="436.9" y="271" transform="matrix(0.981 -0.1938 0.1938 0.981 -44.3202 89.881)" class="st1" width="0.5" height="0.9"/>
				<polygon class="st1" points="443.6,280.3 443.3,281.3 444.4,281.4 				"/>
				<path class="st1" d="M443.1,288.8l1.1,0.1l2.4,0.8l0.1-2.5l1.1-0.2c-0.2-1.2-1-2.3-1.2-3.5l-1.5,0.9l0.5,2.7l-1.3-1l-1.7-0.3
					L443.1,288.8z"/>
				<polygon class="st1" points="425,304 425.5,303.6 424.9,303.4 				"/>
				<polygon class="st1" points="424.7,330 425.8,330.4 427.9,329.6 428.5,329.8 430.5,328.5 433.5,321.4 434.5,320.8 434.7,319.2 
					434.6,318.6 435.4,319.7 435.1,321 436.7,320.7 437.5,322.1 435,323.5 435.3,325 436.9,324.4 437.7,323 439.4,323.3 
					438.7,325.3 439.8,325.1 439.2,327.7 443,324.5 444,324 445.3,322.4 445.3,322.1 445.1,318.7 444,318.6 443.1,319.8 
					442.7,323.3 441.6,323.2 441.4,322 442.7,320.2 441.8,318.8 440.7,318.7 439,318.4 437.6,316.8 435.5,317.5 433.8,317.2 
					433.2,319.8 433.2,317 432.2,317.5 429,323.8 430.7,324.4 430,326.4 428.6,327.3 427.5,325 426.8,327 426.3,327.1 425.4,328.3 
					424.4,328.5 				"/>
				
					<rect x="425.9" y="268.8" transform="matrix(0.9809 -0.1943 0.1943 0.9809 -44.1535 87.9154)" class="st1" width="0.5" height="0.6"/>
				<polygon class="st1" points="428.9,295.7 429.5,295.6 429.6,293.4 428.1,294 				"/>
				<polygon class="st1" points="430.3,307.9 430.4,308.5 430.9,308.1 				"/>
				<polygon class="st1" points="427.2,286.7 427,285.8 425.3,285.8 				"/>
				
					<rect x="429" y="290" transform="matrix(0.9809 -0.1944 0.1944 0.9809 -48.2291 89.0256)" class="st1" width="1.1" height="0.6"/>
				<polygon class="st1" points="442.1,317.5 441.2,318.3 442.2,317.8 				"/>
				
					<rect x="444.5" y="290.1" transform="matrix(0.9812 -0.1932 0.1932 0.9812 -47.6946 91.402)" class="st1" width="0.5" height="0.3"/>
				<polygon class="st1" points="443.9,298.4 442.4,299.3 442.7,300.8 444.4,300.8 443,302.3 443.4,304.1 444.3,303.3 445,301.3 
					445.5,300.9 444.2,299.9 445.2,299.7 445.4,297.4 444.8,297.6 443.9,298.7 				"/>
				<polygon class="st1" points="446.5,291.9 446.4,291.3 445.8,291.4 444.6,291 444.9,292.2 				"/>
				<path class="st1" d="M447.7,275.7l-0.6-0.2l-1.9-1.2l-0.5,0.4c0.2,0.9-0.1,2.2,0.1,3.1c0.4,1.8,1.2,3.2,1.5,5l0.4-1l-0.7-3.3
					l1-0.5l-0.2-1.2l1.1-0.2L447.7,275.7z"/>
				<polygon class="st1" points="444.2,308.6 443.8,309.3 442.8,309.5 442.5,310.8 442.9,312.9 444.7,311 444.5,310.1 445.3,308.4 
									"/>
				
					<rect x="447.6" y="291.9" transform="matrix(0.981 -0.194 0.194 0.981 -48.1671 92.4641)" class="st1" width="0.5" height="0.3"/>
				<path class="st1" d="M446.1,320.7l0.7,1.2c0.7-1.9,1.1-3.2,1.1-3.2l-1.1,0.2L446.1,320.7z"/>
				<path class="st1" d="M449.3,294.8l-0.7-0.5l-0.9,0.8l-0.2-1.2l-1.1-0.1c0.5,2.4-0.1,5,0.4,7.4l-0.9,3.6l-0.4,1l-0.5,0.4l0.1,0.3
					l1.1,0.1l-0.6,5.4l-1.6,0.3l-0.3,1.3l-1.7,2.5l1.7,0l0.4-1l0.8-1.7l0.2,1.2l-0.6,2.6l0.1,0.3l1.1-0.2l2.1-9.2l-0.4-1.8l0.4-0.7
					l-0.1-3.1l0.4-0.7l0.5-3.2l-0.4-2.1l1.1,0.1L449.3,294.8z"/>
				<path class="st1" d="M441.5,311.6c-0.5,0.1-0.6-0.2-1.1-0.1l0.7-2l-3.2,0.6l-0.4,0.7l2.5,1.4C440.5,312.1,441,311.7,441.5,311.6
					z"/>
				<path class="st1" d="M446.7,239.4c-0.5-0.9-1-1.8-1.6-2.9l1.4,10.5c0.1,0.3,0.7,0.8,0.8,1.1l0.8,3.9l-0.4,1l0.6,3l0.7,0.8
					C448,252,451.1,247.8,446.7,239.4z"/>
				<polygon class="st1" points="437.1,309.1 438,307.7 438.7,308.8 440,306.9 438.4,306.9 438,305.1 437.2,306.6 437.3,307.2 
					436.3,307.7 				"/>
				<polygon class="st1" points="437.3,312.8 438.9,312.5 437.7,312.1 437.2,312.2 				"/>
				<path class="st1" d="M389.1,248.7c-0.2-0.3-0.4-0.6-0.6-0.9c0.4,1.7,0.9,3.3,1.4,4.7l0,0L389.1,248.7z"/>
				
					<rect x="322.1" y="218.3" transform="matrix(0.9999 -1.530294e-02 1.530294e-02 0.9999 -3.3065 4.9634)" class="st1" width="1.1" height="0.6"/>
				<polygon class="st1" points="331.1,217.6 328.9,217.6 327.8,218.7 329.5,219.8 331.7,218.1 				"/>
				<polygon class="st1" points="326.4,202.4 326.4,203 326.9,203 				"/>
				<polygon class="st1" points="363.3,221 363.3,221.6 364.5,221.6 				"/>
				<polygon class="st1" points="344.6,215.7 344.1,215.7 344.1,216.2 345.2,216.2 				"/>
				<polygon class="st1" points="286.5,252.1 288.2,250.9 288.2,250.4 285.9,251 				"/>
				<polygon class="st1" points="305.8,221.3 305.8,221.9 306.4,221.9 				"/>
				<polygon class="st1" points="301.4,227.6 304.7,225.3 301.3,224.8 				"/>
				<polygon class="st1" points="294.7,231.1 296.9,229.9 294.6,230 				"/>
				<polygon class="st1" points="304.1,220.8 303.5,221.4 304.7,221.4 304.7,220.8 				"/>
				<polygon class="st1" points="297.1,240.6 297,239 295.4,240.7 				"/>
				<path class="st1" d="M393.9,261.7l0.7,0.5l0.3-1.5c0-0.3-0.1-0.7-0.1-1l-1.2,0.2L393.9,261.7z"/>
				
					<rect x="400.7" y="248.1" transform="matrix(0.981 -0.1938 0.1938 0.981 -40.5217 82.4222)" class="st1" width="0.5" height="0.3"/>
				<polygon class="st1" points="408.5,304.7 409.6,304.5 410.1,304.1 409.5,303.9 408.4,304.1 				"/>
				<polygon class="st1" points="408.5,299.1 409.1,299.3 408.9,298.1 				"/>
				<polygon class="st1" points="398.6,266.1 399.7,265.9 401,264 401.3,265.5 400.8,266 400,267.1 402.2,267.2 401.3,262.7 
					400.8,263.1 399.3,263.8 399.5,264.7 398.5,265.5 				"/>
				<polygon class="st1" points="415.8,344.2 415.6,343 414.5,343.2 414.2,341.7 412.9,343.5 414.2,344.2 414.8,344.4 				"/>
				<path class="st1" d="M394.1,254.7l-0.5,2.7l0.7,0.5l-0.1-2.6C394.1,255.1,394.1,254.9,394.1,254.7z"/>
				<path class="st1" d="M391.8,254l-1.2-0.4l-0.4,0.1c0.2,0.7,0.5,1.3,0.7,2c0.3,0.9,0.5,1.6,0.7,2.1l0.3-0.1l-0.2-0.9l0.5-0.4
					L391.8,254z"/>
				<polygon class="st1" points="411.6,345.4 412.2,345.5 412.4,346.4 414.4,345.4 414.2,344.2 412,344.6 				"/>
				<path class="st1" d="M397.4,328.5c-0.1,0.3-0.2,0.6-0.3,1l0.4,0.3l1.6-0.3c1.4-1.5,1.6-3.1,2.4-4.8l0.8,1.1l1.5-0.9l-0.3-1.5
					l-3.1,0.9l-0.5,0.4l-0.9,3.6L397.4,328.5z"/>
				<path class="st1" d="M397.9,327l0.2,0.4l1.7-2.8l-1.1-0.2C398.4,325.2,398.2,326.1,397.9,327z"/>
				<path class="st1" d="M394.2,282.6l1.2,0.9c0.5-2.7,0.8-4.9,0.9-7.1l-1.5,0.5l-0.5,0.1l0.4-1l1.7-0.8c0-2.4-0.1-4.9-0.5-8
					c-0.5,1.2-1.1,2.1-1.7,3.4l0,0.1c-0.8,1.7-0.4,3.5-0.6,5.4C393.8,277.9,394.2,280.4,394.2,282.6z"/>
				<polygon class="st1" points="442.3,267.8 442.4,268.7 442.8,268 442.8,267.7 				"/>
				<path class="st1" d="M418.7,339l0.5-0.1c-0.1-0.3,0.4-0.7,0.4-1l-1,0.5L418.7,339z"/>
				<polygon class="st1" points="419.1,332.9 419.8,333.4 421.3,332.5 423.9,331.7 423.7,330.8 420.4,330.8 				"/>
				<polygon class="st1" points="417.1,331.1 417.2,331.7 419.4,331.3 418.8,331.1 				"/>
				<polygon class="st1" points="445,259.4 445.4,258.7 444.7,257.9 				"/>
				<polygon class="st1" points="409.1,327.1 409.9,328.2 411,328 410.7,326.8 				"/>
				<polygon class="st1" points="423.6,279.9 424.3,280.7 424.8,280.6 424.1,279.8 				"/>
				<polygon class="st1" points="415.5,334.3 415.6,334.6 417.7,333.8 417.5,333.2 415.9,333.6 				"/>
				<polygon class="st1" points="437,333.5 437.5,333.4 437.3,332.5 436.9,333.2 				"/>
				<path class="st1" d="M444.1,329.9c0.1-0.3,0.2-0.7,0.3-1l-1.1,0.2l0.2,0.9L444.1,329.9z"/>
				<polygon class="st1" points="434.6,329.9 435.6,329.1 434.5,329.3 				"/>
				<polygon class="st1" points="426.7,334.9 426.1,334.4 426.3,335.6 				"/>
				<polygon class="st1" points="431.3,330.2 431.5,331.1 433.5,330.1 433.4,329.5 				"/>
				<polygon class="st1" points="402.6,319.6 403.3,317.3 402.7,317.4 402.3,318.1 				"/>
				<polygon class="st1" points="404.7,305.2 404.5,304.3 402.7,306.2 404.4,306.5 				"/>
				<polygon class="st1" points="403.2,308.9 403.8,308.8 403.2,308.6 				"/>
				<path class="st1" d="M401.8,309.8l0.8-1.4l0.4-1l-0.5-0.7C402.2,307.9,401.9,308.9,401.8,309.8z"/>
				<path class="st1" d="M404.3,289l-1.6,3.1c1.2,4.2,1.6,5.7,1.3,8l0.6-1.2c-0.8-1.4-0.6-3-0.9-4.5
					C403.4,292.6,404.1,290.9,404.3,289z"/>
				<polygon class="st1" points="403.8,286.3 404.4,284 403.5,284.8 				"/>
				<polygon class="st1" points="403.4,376.5 402.6,377.3 403.2,377.1 				"/>
				
					<rect x="403.6" y="310.3" transform="matrix(0.981 -0.1942 0.1942 0.981 -52.6046 84.3281)" class="st1" width="0.5" height="0.3"/>
				<path class="st1" d="M405.4,368.1c0.5,0.3,1,0.5,1.5,0.7l1.6-0.3l-3.1-1.9l-0.6-0.2l0.8-1.4l-0.1-0.6l-0.5,0.1l-1.2,2.4
					l-2.1,0.4l-0.4,0.4c0.4-0.1,0.7-0.2,1.1-0.3c0.8,0.4,1.8,0.6,2.7,0.6L405.4,368.1z"/>
				<polygon class="st1" points="402.9,264.9 403,265.8 403.6,265.7 403.3,264.5 				"/>
				<polygon class="st1" points="404.4,314.6 404.7,313.6 403.8,311.9 402.2,315 402.5,316.5 403.6,316.3 				"/>
				<polygon class="st1" points="442.4,327.1 442,328.1 442.2,329 443.1,327.9 				"/>
				<polygon class="st1" points="410.3,344.4 410.4,345 412,344.3 411.9,343.7 				"/>
				<polygon class="st1" points="439.3,291.8 438.8,292.2 439,293.1 439.5,293.3 				"/>
				<polygon class="st1" points="438.2,297.6 439.2,297.1 439.1,296.8 438.6,296.9 				"/>
				<polygon class="st1" points="439.8,294.5 439.7,294.2 439.2,294.3 438.7,294.7 439.3,294.9 				"/>
				<polygon class="st1" points="439,242.8 438.1,243.9 439.7,243.9 439.6,243 				"/>
				<polygon class="st1" points="439.7,280.1 439.7,282.9 441,283.9 440.2,279.7 				"/>
				<polygon class="st1" points="439.2,272.1 438.6,271.9 437.7,272.7 438.3,272.9 439,273.7 439.5,273.3 				"/>
				
					<rect x="437.8" y="281.4" transform="matrix(0.9808 -0.1951 0.1951 0.9808 -46.5237 90.8999)" class="st1" width="0.5" height="0.3"/>
				<polygon class="st1" points="441.9,266 442.1,266.9 442.5,266.5 442.4,265.9 				"/>
				<polygon class="st1" points="305.3,224.2 305.9,225.3 307,223.6 305.3,223.6 				"/>
				<path class="st1" d="M438.1,288.6l0.2,1.2l0.9-0.8c0.2,0.9,0.9,1.7,1.1,2.6l2.1-0.7l-1.1-2.6l-2.2,0.1L438.1,288.6z"/>
				<path class="st1" d="M441.5,294.8l0.7-2l-1.5,0.6c0.1,0.3-0.4,1-0.3,1.3C440.9,294.6,441,294.9,441.5,294.8z"/>
				<polygon class="st1" points="441.2,262.7 442.4,263 442.2,262.1 442.6,261.1 442.1,261.2 				"/>
				<polygon class="st1" points="435.2,291 434.8,291.7 436.1,295.2 436.6,295.1 436.8,293.5 435.8,290.9 				"/>
				<path class="st1" d="M433.2,305.8l1.2,0.7l0.9-0.8l1.6-0.3l0.9-1.1l0.1,0.6l1.6-0.3l0.7,0.5l1.1-0.2l0.3-1.3l-0.2-1.2l0.7-2
					l-1.1-2.9l-1.4,1.2l-1.6,0.3l-1,0.5l1.2,0.4c-0.4,0.7-0.8,1.4-0.8,1.7L437,300l-0.8,1.4l0.1,0.3l-0.4,0.7l-1.8-0.6L433.2,305.8z
					"/>
				<polygon class="st1" points="435.4,311.6 435.9,311.2 435.7,310.3 435.1,309.8 				"/>
				<polygon class="st1" points="434.6,285.2 435.2,285.4 435.7,285 435.5,283.8 434.4,284 				"/>
				<path class="st1" d="M432.7,289.6l0.5-0.1l-0.1-0.6C433.2,289.2,432.7,289.3,432.7,289.6z"/>
				<polygon class="st1" points="433,316.1 435.2,316 436.1,314.9 435.6,312.5 433.9,315 432.3,315.3 				"/>
				<polygon class="st1" points="435.9,289 436.1,289.9 436.6,289.8 436.5,289.2 				"/>
				
					<rect x="435.3" y="251.3" transform="matrix(0.981 -0.1941 0.1941 0.981 -40.6501 89.3699)" class="st1" width="1.1" height="1.8"/>
				<polygon class="st1" points="441.4,333.2 443.3,331.9 442.5,330.8 441.3,332.9 				"/>
				<polygon class="st1" points="437,277.9 437.8,278.7 438.8,278.4 437.9,276.7 436.9,277 				"/>
				
					<rect x="437.7" y="266.8" transform="matrix(0.9809 -0.1945 0.1945 0.9809 -43.5465 90.2644)" class="st1" width="0.5" height="0.3"/>
				
					<rect x="434.9" y="300.4" transform="matrix(0.981 -0.1938 0.1938 0.981 -50.0033 90.0477)" class="st1" width="0.5" height="0.3"/>
				<polygon class="st1" points="401.2,334.6 400.7,335 401.8,335.1 				"/>
				<polygon class="st1" points="468,601.2 470,602.1 470.2,601.3 469.6,600.3 				"/>
				<path class="st1" d="M486.1,625l-0.5,0.3l-0.4,1.7l1.8,0.9c0.2-0.2,0.3-0.4,0.5-0.6L486.1,625z"/>
				<polygon class="st1" points="469.8,633.2 471.1,633.1 470.5,632 				"/>
				<polygon class="st1" points="470.8,602.4 472.8,603.3 471.8,601.7 				"/>
				<polygon class="st1" points="465.9,585.5 468.3,588.4 468.5,587.5 467.6,586 				"/>
				
					<rect x="466.7" y="594.6" transform="matrix(0.8637 -0.504 0.504 0.8637 -236.3016 316.6747)" class="st1" width="1.2" height="1.2"/>
				<polygon class="st1" points="470,645.7 470.4,646.2 471.2,646.4 470.6,645.4 				"/>
				<polygon class="st1" points="477,549.5 475.9,550.1 475.8,552.3 477.9,555.9 479,555.3 478.8,552.6 				"/>
				<polygon class="st1" points="480.7,608.5 479.6,604.2 478.6,604.8 				"/>
				<polygon class="st1" points="477.9,619.3 478.4,619 477.5,617.4 476.6,617.2 				"/>
				
					<rect x="474.1" y="638.4" transform="matrix(0.8638 -0.5039 0.5039 0.8638 -257.4886 326.1191)" class="st1" width="0.6" height="1.8"/>
				<polygon class="st1" points="476.6,599 477.3,597.8 475.9,597.9 475.7,598.8 				"/>
				<polygon class="st1" points="409.7,355.7 410,354.7 408.4,354.4 407.6,355.8 405.7,357.2 406.8,357.2 409.3,356.1 410.7,357.4 
					411.6,356.6 413.1,356 413,355.4 				"/>
				<path class="st1" d="M649.4,194.8c-8.3-51.5-32.7-93.5-75-124.4c-30.9-22.5-65.8-35.9-102.6-44.8C426,14.6,379.4,11.4,332.6,11
					c-41.7,0.3-83.2,2.9-124.1,11.2c-33.5,6.8-65.8,17-95.7,33.9C76.1,76.7,47.6,105.2,30.4,144c-9.6,21.6-14.6,44.3-16.8,68
					c-1.8,19.9-1.6,39.5,0.4,59.2c4.4,43,16.1,84.1,31.4,124.3c25.2,66.3,59.3,128,99.8,186.1c38.1,54.8,79.7,106.7,132.4,148.5
					c11.7,9.3,24,17.7,38,23.2c7.5,2.9,15.3,4.7,23.6,2.9c10-2.1,19-6.4,27.5-11.7c19.2-11.9,36.4-26.4,52.6-42.1
					c12.5-12.2,24.5-24.8,36.1-37.8v0c0,0,4.4-4.5,11.5-12.7l-33.3-56.1l-3.6-5.4c-0.4-0.3-0.8-0.6-1.2-0.9l-5.6-7.7l-2.2-3.9
					l0.3-0.7l-1.2-1.8l-0.5,1c-1.3-2.2-2.2-4.4-3.2-6.5l-7.3-10.9l-8.8-16l-7.3-12.1c-0.6-0.5-1.2-1-1.8-1.6l-4.7-8.2l-0.9-0.6
					l-7.7-13.3c-2-3.4-4.2-6.2-6.6-9.4l-9.2-15.9l-1.9-2.3l-12.2-21.1l-2-1.6c0-0.5,0-1-0.1-1.5c0-0.3,0-0.6,0-0.9
					c-1.2-1.6-2.4-3.2-3.7-4.9l-9.2-15.9l-1.9-2.3l-12.2-21.1l-2-1.7c0-0.5,0-1-0.1-1.5c0-0.7,0-1.4,0-2.2l-0.6-1l-0.4,0.1l-2.2-1
					l-3.2,1.3l-2-0.4l4.8-1.9l2.4-0.3l0.6-1.5l-5.2,0.9l-1.7-1.2l-1-0.9l-2-0.4l-1.5-3.7l-1.4,1.2l0.6-4.6l-4.2-2.7l-0.9-2.1
					l-1.4,1.2l-0.1,1.3l-1.2-1.4l-2.2-1l-0.4-1.1l0.6-1.5l2.5-1.6l-1.5-0.6l0.9-1l1.1-0.4l-1.1-2.7l-2.1-2.2l1.8-3.2l-1.2-1.4
					l-1.6,0.6l-0.4-1.1l0.3-3.9l-2.2-1l-2.8-3.8l0.2-2.6l-0.4-1.1l1.5-1.7l-3-5.2l0.4,27.6l-1.2-0.7l-0.4-0.2l-0.3,22l1.5,1
					l-1.8,25.7l-1.8-15.4l-0.5-1l0,1l-0.5,3l-0.8-14.4l1-3.9l0.5-1.5l-1.4-3l2-1l0-3.5l-0.5-1l-2,1.5l-0.3-19.3l-2-1.5l-0.5,0.5l0,2
					l1.5,0l0.3,14.9l-0.5,3.5l-0.1,4.5l-0.5,1l0,4l1.5,0l-0.3,24.7l-0.5,0.5l-0.5,2l-1,0l-0.5,2l-0.5,0l0.1-5.4l1,1l0.5,0l0-2.5
					l-1.5-0.5l-0.5,0.5l-2,0l0,2.5l1.9,4l-1.5,1l0,3.5l0.5-1.5l0,2.5l-1,0.5l1,1l-0.2,20.3l-1,0l0.1-8.4l-0.5-0.5l-1.5,1l-1-2.5
					l3-1.4l0-1.5l-1.5-1l0.1-9.4l1-4.4l-1-1l0.1-8.4l1-2l0.6-5.4l1,0l-1,3.9l1,2.5l2.5-1l1-1.5l0.1-5.9l-1-3l-0.6,7.4l-0.5,0
					l-0.9-7.9l-1-1l-1,0.5l0-4l1.5-2.5l1-0.5l0.1-12.4l-0.5-1l-1,3l-0.5,1l-1.5,4.4l0,3.5l-1,0l-0.9-4l-0.5,1l-2,2.9l0.1-5.9
					l1.5-0.5l2.5-3.9l0.5,1l1-2l0-4l-1-1l-0.1,4.9l-1,0l0.1-6.9l3,0l0.4,5l1-2.5l0.1-10.4l-1-0.5l-0.1,6.4l-1.5-1.5l-2,1l-1.9-3l1-2
					l-0.4-5.4l-3.4-2l-1.5,1.5l-0.5,1.5l-0.5-3.5l-0.5-1l-0.1,8.4l1-0.5l0,2l-2,0l-0.9-6l-1.5,1l0,1.5l-0.5,0L260,376l-1,1l0,2l1,0
					l0.5-1l1.5,0l-0.1,11.4l-2,0l0.1-7.9l-1.5-1.5l-0.5,3l-1,0l-1,0.5l0-2l-0.5-0.5l-0.5,2l-0.5,0.5l-0.5-3.5l-0.5,0l-0.5,4l-1-2
					l-1.5,2.5l0,4l2.9,2.5l2-1.5l0.5-2l0.5,0l0,2l-0.5,1l0,1.5l2,0l0,2.5l-1.5-0.5l-1.5,0.5l-1,2l-0.1,11.9l-2,2l0,4l0.5,0l0.5-3
					l0.5,0.5l-0.1,7.4l-0.5,2.5l0.5,1l0.5-0.5l1.6-6.9l0.5,2l-0.6,6.9l0.4,4l0.5-1.5l0-3l1.5-2l1-3l3.5-4.4l0-2l-0.5,0l-1.5,1
					l-0.5,0l-1.5,1l-0.6,5.9l-1,0l0.1-4.5l-0.5-1.5l0.1-4.9l-0.5-0.5l-1,1.5l-0.5,0l1.1-5.9l0.5,2.5l0.5-0.5l0.1-4.5l-1.5,0l0.1-5.4
					l3,0l1,1.5l1-3l0-3l3.5,0l0,2l1,0.5l-0.1,7.4l-1.5-1.5l-0.5,1.5l-2,2.5l0,1.5l1,1.5l-1.5,1.5l0,3l0.5-1.5l2-0.5l1.5-3.9l0.5,0
					l0.4,4.5l-1,1l-0.2,13.4l-0.5,2l-0.6,7.4l-0.5,0l-0.5-3l-1.5-0.5l-2.3,23.2l-1,0l1.3-26.2l1.5-1l0-2l-1-0.5l-1.5,3.4l-1.1,12.9
					l-0.5,0.5l-0.5-1l0.1-7.4l-1.6,5.9l-0.1,7.4l1,0l1-3l-0.1,5.4l-1,0.5l-0.6,5.4l-0.1,10.9l-1.1,5.4l-0.5,0.5l0,2l0.5,0l-0.1,7.9
					l-0.5,0l-0.4-5l-0.5-0.5l-0.1,8.9l1.3,0l0.8-2.6l0.4-0.8l0.1-6l1.5-2.5l1-3l1,3l2.5-3.9l0-2.6l-0.3,1.9l-0.5-0.5l0-3.5l0.8,0
					l1.5-5.3l0.1-5.4l1,0l0.4,6.4l3,0l1.4,4l1-3.9l0.5,0l-0.6,8.4l0.9,4l-3.6,11.3l-0.1,4.9l0.5,2l2.5-3.9l0.4,0
					c0.1,6.4,0.2,21.1,0.5,28.5l-3.7,1.9l-1.2,0.1l-0.2,0.1c0.7-6.2,1.6-16.5,0.2-13c-1.3,3.1-1.2,9.3-1,13.4l-1.7,0.9l-6.7,0.6
					l-3.8-0.4l-6.1-1.2l-1.3-1.1l-1.4-0.3l-3.7-2.8l-0.7-0.8l-2.1-1.9l-0.7,0.1c-0.4-0.2-0.7-0.5-1-0.7c-0.2-4.5-0.8-8.6-0.8-8.6
					s-0.3,3.6-0.5,7.7c-4.6-3.7-7.5-8.2-8.6-14.5c-0.2-1-0.6-1.8-1.1-2.5c-0.1-0.2-0.2-0.3-0.3-0.5l1-8.5l1.5-4.9l0.1-5.4l-1-1
					l-0.6,6.9l-1,0l1.4-35.1l-0.9-11.4l0.4-36.1l1-2.5l-2.4-50.5l-0.9-5l-1.1-31.7l-1-2l0.1-10c0.3-0.7,0.4-1.5,0.4-2.5
					c-0.1-3.5-0.1-6.9-0.1-10.4c0.2-1.7,0.2-3.4,0.3-5.1c-0.2-1.1-0.3-2.2-0.2-3.6l0.5-3.2c-0.3-1.5-0.1-3.1-0.4-4.6l-0.1-0.6
					l0.7,0.5l0.5-0.7c0-0.2,0-0.4,0.1-0.5l-0.3-0.1l0-2.8l0.6-2.6L221,256l0.8-1.7l-0.3-4.3l0.5-0.1l0.1,0.6l0.6,0.2l0.4-1l-0.8-1.1
					l-0.1-0.3l0.5-3.2l2.1-3.2l-1.2-0.7l1.8-4.7l-0.2-0.9l0.4-1c1.4-4.3,3.3-8.5,5.9-12.4l0.4-1l4.6-5l-0.2-0.9l0.9-1.1
					c0,0,20.2-31.2,45.7-39.2c18.5-5.8,38-13.8,58.6-13.5v0c0,0,0.4,0,1.2,0c3.6,0.1,7.3,0.5,10.9,1.2c15,2.5,41.4,9.9,65.1,31.9
					c3.3,2.8,6.2,5.7,8.4,8.7c1.4,1.5,2.7,3.2,4,4.8l0.3,0.1c0,0,20.2,24.8,23.6,61.6l0,0c0,0,0,0,0,0c0.4,4.5,0.6,9.2,0.4,14
					c-0.6,29.5-10.4,49.8-16.7,59.7c-0.6,1.4-1.1,2.6-1.6,3.6l0.2,0l-0.3,0.3c-2.4,5.5-2.6,4.9-1.6,1.6l-1.8,1.7l-0.3,1.3l0.7,0.8
					l-3.7,3.5l-0.1-0.3l1.4-1.5l-0.6-3l-1.4,1.5l-0.5,0.1l-0.1-0.6l2.4-2l-0.2-1.2l0.5-0.4l2-3.8l0.5,2.7l1.7-0.3
					c0.1-0.4,0.2-0.7,0.3-1.1l-1.8-0.1l2.3-2.3l0.8-4.2l-2.1,0.7l0.4-1l0.4-3.5l-0.6-0.2l-2,3.8l-0.2-1.2l-1.1-0.1l0.8-1.7l0.9-1.1
					l-0.2-1.2l-0.5,0.1l1.2-2.1l-0.2-1.2l-2.1,0.7l-0.7,2l-1.8,2.2l0.2,0.9l-0.4,1l0.6,0.2l1.5-0.9l1.2-2l0,0.2l-3.6,7l-1.5,0.9
					l-1.2-0.7l-0.5,0.1l-1.5,0.9l0.8-1.4l-1.6,0.3l0.7-2l-1.1,0.2l-1.7-0.3l-0.4,0.7l-1.5,0.6l0.2,0.9l-1.9,1.6l0.2,1.2l-1,0.3
					l-0.1-0.7l-1.1,0.2l0.2,0.9l-0.1,0c-0.1,0.2-0.1,0.5-0.2,0.7l-0.7,0.1l0.4,0.7c-0.8,2-2.1,3.9-3,6.1l-0.9,1l0.1,0.1l1.1,0.1
					l1.4,1.6l0.9-0.8l0.4-1l1.6-0.3c0.2,0.9,0.8,1.4,1,2.3l-0.5,0.1l-1.2-0.7l-1.5,1.3l-1.1-0.2l-0.5,0.1l-0.2-1.1l-1.2,2.1
					l-5.3,1.4l0.7,0.5l2.1-0.4l1.2,0.4l-0.4,1l-0.6-0.2l-2.2,0.1l0.1,0.6l2.2-0.1l0.2,0.9l-1.6,0.3l0.2,0.9l1.1,0.1l0.9-1.1l0.7,0.5
					l3.1-1.2l1.3-3.3l1.6-1.4l1.6-0.3l-1.5,1.1l-0.4,0.2l0.1,0l-1.6,1.2l0.2,0.9l2.7-0.2l0.3,1.5l1.9-1.6l1,2.3l-2.5,1.4l-0.5,0.1
					l0.3-1.3l-3.7,0.7l-2.5,1.4l-0.1,0.2l-0.3,0.2l0.1,0.4l-0.4,0.8l-0.7-0.3l-0.7-0.5l-2.1,0.4l0.4,2.1l2.1-0.4l-0.8,1.4l-0.4,0.1
					c0.2,0,0.4-0.1,0.6-0.2c1.1-0.4,2.2-0.8,3.3-1.3c0.2,0,0.4-0.1,0.5-0.2l-0.7-0.4l2.9-2.8l1.9,1.2l1.6-0.3c1.3-1.8,2.7-3.3,4.6-5
					l-1.7-0.3l-0.6-0.2l1.5-0.9l0.9-0.8l0.4-1l-0.2-0.9l0.6,0.2l0.7,0.8l2.1-0.4l0.2,1.2l0.5-0.4l0.2,1.2l-1.7-0.3
					c0.1,0.3-0.4,0.7-0.4,0.7l-4.2,4l0.1,0.6l1.1-0.2l1.9-1.6l1.1,0.1c-1.4,1.5-3.9,2.6-5.3,3.9l-1.4,1.2l-0.2-1.2
					c-0.5,0.1-1.5,0.6-2.6,0.8l-1.2-0.7l-0.4,0.7l0.2,1.2l-2.6,0.8l0.1,0.6l1.6-0.3l0.1,0.3l-0.6,0.6c0.5-0.3,1-0.6,1.5-1
					c0.6-0.5,1.2-0.9,1.8-1.3c0.1,0,0.2,0,0.2,0l-7.1,7.2l-7.1,4.8l-1.8,0.6l-0.4,0.4l-8.1,4.6l-2,0.8l-0.4-0.4l0.4-0.8l-0.6-0.6
					l-0.8,0.8l0.4,1.2l-0.8,0.8l-2.4,1.2l-1.8,0.2l-1.6,0.7c1.1,1.6,2.9,4.4,3.7,7.4c1.2,4.5,20.1,33.4,20.1,33.4
					c-1.3-1.3-4.7-5.8-8.3-10.6c-0.7-0.5-1.6-0.9-2.4-1c-0.4-0.1-0.7-0.1-1.1-0.1l0.7,3l1.7,3l2.1,1.7l-0.6,0.9l-0.2,0.7l0.4,0
					l-0.3,0.5l0.5,0.5l0.4,1.2l0.3-0.2l0.5,0.9l-0.6,0l0.5,1.8l0.2-0.1l1.8,0.9l0.4,1.2l1.2-0.7l-0.7-2.2c-1-1.2-1.8-2.6-2.5-4.1
					c0.9,0.4,1.8,0.6,2.7,0.5c1.3,1.6,2.6,3.1,3.9,4.7c-0.6-1.1-1.2-2.2-1.8-3.3c-0.1-0.2-0.2-0.3-0.3-0.5c1,1.6,1.9,3.2,2.9,4.9
					c1.4,1.7,2.8,3.5,4,5.4l0,1.1c1.5,2,2.6,4.5,4,6.7c0,0.1,0.1,0.2,0.1,0.2c0.4,0.7,0.8,1.4,1.3,2l0.1,0.3
					c0.8,1.2,1.5,2.5,2.2,3.7c-0.1-0.1-0.3-0.1-0.4-0.1c0.6,1,1.2,2,1.9,3l-1.4,1.5l0.4,2.4l1.7,2l-1.9-1c0.2,0.4,0.4,0.9,0.6,1.3
					l0.4-0.6l0.5,0.9l1.4,1.5l0.2,0.4l1.2,4.9l2.5,1.3l0.4,1.3l2,0.5l0.5-0.9l-1.6-0.2l-1.9-4.9l-3-3.8l-0.2-1.8l-1.9-4.9
					c1.3,2.1,2.8,4.2,4.4,6.3l0.4,0.5c2.1,3.5,4.1,7,6,10.5l-1.3-1.2l0,1.1l1.1,1.1l0.4-0.8c0.4,0.8,0.8,1.6,1.3,2.3
					c1.5,2.9,3.2,5.7,4.9,8.6l-3-1.6l2.5,2.7l1.2,2.1l0.8-0.8l-0.2-0.4c2.5,4,5,7.9,7.6,11.9c2.6,5,5.5,10.2,7.3,15.8l3,3.8l1.2,5.1
					l1.1,1.1c0.2,0.3,0.4,0.7,0.5,1.1c0.4-1,0.7-2,0.7-3.1L484,558l26,39.4c11.2-15.6,22.9-33.3,33.8-52.2c0-0.1,0.1-0.2,0.1-0.2
					c33.8-53.6,62.4-109.9,82.9-170.2c6.3-18.6,11.6-37.6,16-56.7C652.5,277.5,656.1,236.4,649.4,194.8z M268.8,385.5l0-4l1,3
					L268.8,385.5z M268.4,375.6l0.5-2.5l0.4,4l1,0.5l0,2l-2,0L268.4,375.6z M257.4,469l-0.2-1.9l0,0.8l-1.5-1l-1,2l-0.5,3l-1,0l0-2
					l1.5-5.4l0.1-4.5l1,0l0.5,0.5l-0.5,0.5l-0.1,5.4l0.5-0.5l0.8,0L257,465l0-3.5l1.4,3L257.4,469z M280.8,458.4l-0.1,6.4l-1.9-6.5
					l1-1L280.8,458.4z M279.9,451l0,2l-1,1.5l-0.5,2.5l-0.5,1l0.9,6.9l1.5,1.5l0.9,8.9l0.5,0.5l-1.1,7.9l-1,0l0-2l-0.5-1l1.1-12.9
					l-1-1l-0.5,4.4l-0.5,1.5l-0.6,5.9l-1,4.9l0.1-8.4l1.1-11.9l-0.9-3.5l0.1-8.9l1,0l0.5,1l1-1L279.9,451z M276.7,428.2l2.9,2.5
					l-0.2,14.4l-0.5,0l-0.4-5l-0.5,0l-1,2l-0.1,6.4l-0.5,0.5L276.7,428.2z M274.8,463.3l0.5-1.5l-0.1,5.4l-0.5,1L274.8,463.3z
					 M273.6,486l1,0l0.5,0.5l2.5-0.5l2,0l2-2l1-4.4l-0.9-10.4l1-2l-0.9-8.4l0.2-16.8l-1-2l0.5-3l0.1-7.4l1,1l0.9,7.4l0.5-1l0.1-5.4
					l1-0.5l0.5,1.5l1.4,3l-1,3.9l-0.1,4.9l-2,2l-0.6,11.9l1.5-2l-1.1,9.9l0.9,8.9l1-4.4l0.1-4.5l0.5-1l0.5-3l0.5-0.5l-0.1,8.9
					l1.5,2.5l-0.1,6.4l0.4,4l-0.5,3.5l-2,2l0.5,1.5l0,3l-0.2-0.5c0,0.2,0,0.4-0.1,0.5c0,0.2,0,0.4,0,0.6c-0.1,0.5-0.3,0.9-0.4,1.4
					c-0.6,0.2-1.2,0.7-1.5,1.5c-1.6,3.8-3.6,7.4-5.4,11.1c-0.1,0.2-0.1,0.4-0.2,0.5l-3.3,2.7l-0.7,0.2l-2.2,1.4
					c1.8-4.9-0.1-17.5-0.1-17.5s-1.2,15.2-0.6,17.8l-2.5,1.3c0-1.7,0-3.3,0.3-4.8c0.5-2.8-0.4-8.8,0.3-10.5s0.7-9.4,0.3-11.4
					c-0.1-0.5-0.1-1.2-0.1-2l1.1-0.4l1,1.5L273.6,486z M271.9,460.8l0-1l1.5,0l-0.1,5.9l-1.5,1l-2-1l0-3.5L271.9,460.8z M269.7,435
					l0.1-6.9l0.5,0l-0.1,6.9L269.7,435z M271.6,399.4l1,0l-0.5,4l-0.5-0.5L271.6,399.4z M266.4,377.1l0.5-4l0.1-5.9l1,0l-0.1,5.4
					l-1.1,9.4l-0.5,1L266.4,377.1z M266.1,405.3l1.5-5.4l0.1-4.5l1,0l0.5,0.5l-0.5,0.5l-0.1,5.4l0.5-0.5l1,0l0,2l-1.5-1l-1,2l-0.5,3
					l-1,0L266.1,405.3z M264.4,383l-0.9-3.5l1-2.5l0.5,0l-0.1,5.9L264.4,383z M268.4,419.6l-0.1,9.4l-1,1l-2,0l1.5-3.4l0-3l-0.5,0
					l-0.5,3l-1,2.5l-0.1,12.4l-2.1,6.9l-1-2.5l0-2l1-2.5l2.2-19.3l2-4.9l1-1.5l0.5-1.5l0.5,0l1,1l1.5,0l0,1l-2,0L268.4,419.6z
					 M424,352.2l0.7,0.5l-2.6,0.8l0.1,0.6l1.1,0.1l-2.8,2.4l-0.3,1.3l-2,1l1.5-3.4l3.3-3.1l-1.2-0.4l0.9-1.1l1.4-1.5
					c-0.2-0.9-0.8-1.4-1-2.3l2.1-0.7l0.1,0.3l-1,0.5c0.1,0.6,0.8,1.4,0.9,2l1.1-0.2l0.4,1.8L424,352.2z M427.9,352.4l-0.9,0.8
					l-1.3-1l4.5-5.3l1.1-3l0.1,0.3l-0.4,1l-0.2,1.9L427.9,352.4z"/>
				<polygon class="st1" points="450.5,612.1 451.6,612.8 447.3,605.5 449,610.8 				"/>
				<polygon class="st1" points="457.7,581.1 458.1,578.2 457.4,578.6 457.4,580.6 				"/>
				<path class="st1" d="M453.3,572.4l-0.5,0.3l0.7,1.2l0.4-0.3C453.8,573.4,453.6,572.9,453.3,572.4L453.3,572.4z"/>
				<polygon class="st1" points="452.8,510 451.9,509.6 451.4,510.5 452.3,513.4 453.8,515.9 453.8,515.6 454,515.2 453.1,513.6 
					453.4,513.2 				"/>
				<polygon class="st1" points="413.1,356 413.1,356 413.2,356 				"/>
				<polygon class="st1" points="482.2,619.6 482.7,617.9 481.3,618 				"/>
				<polygon class="st1" points="410.7,354.8 410,354.4 410,354.7 410.7,354.9 				"/>
				<polygon class="st1" points="411.7,354.6 410.5,353.7 410.7,354.8 411.3,355.1 				"/>
				<path class="st1" d="M284.5,489.9l-0.1-0.3l0.5-1.5l-0.5-0.5l-1,1.5l-0.4,1.1c0.4-0.1,0.9-0.3,1.3-0.5
					C284.4,489.8,284.4,489.9,284.5,489.9z"/>
				<polygon class="st1" points="286.5,483.7 286.5,481.2 286,480.2 285,481.2 283.5,481.2 283.5,484.7 284.5,485.7 				"/>
				<path class="st1" d="M446.8,501.8c0.1,0.2,0.2,0.3,0.3,0.5l2.3,0.4l-2.2-1.1L446.8,501.8z"/>
				<polygon class="st1" points="474.6,555 474.3,558.1 475.3,557.5 474.9,555.6 				"/>
				<polygon class="st1" points="473.2,545 473.7,545 473.2,544.2 				"/>
				<polygon class="st1" points="460.5,628.1 461.6,628.8 467.1,638.2 468.6,639.5 470.4,642.7 468.4,636.8 467.2,631.2 
					465.2,630.2 466.9,634.2 464.2,630.8 463,628.7 458.5,622.2 				"/>
				<polygon class="st1" points="478.9,618.7 479.4,618.4 476.9,612.8 478.6,613.3 478.5,611.9 476.6,608.8 477,610.7 472.7,606.9 
									"/>
				<path class="st1" d="M490.3,622.6l0.4,0.6c0.1-0.1,0.2-0.3,0.3-0.4L490.3,622.6z"/>
				<polygon class="st1" points="481.6,562.2 482.5,563.8 485,564.4 488.3,568.9 483.3,559.1 480.5,557.9 480.7,560.6 480.5,561.5 
									"/>
				<polygon class="st1" points="462.7,621.1 463.5,624.9 464.1,624.6 464.4,621.5 459.2,612.6 				"/>
				<polygon class="st1" points="479,603.2 481.8,607.9 483.4,608.3 483.6,607.5 482.4,605.4 481.3,604.7 478.6,601.3 				"/>
				<polygon class="st1" points="460.9,579.3 461.4,579 460.6,578.8 				"/>
				
					<rect x="464.9" y="626.8" transform="matrix(0.8637 -0.5041 0.5041 0.8637 -252.6779 319.992)" class="st1" width="0.6" height="0.6"/>
				<polygon class="st1" points="463.7,581.8 464.8,584.8 465.5,583.6 464.3,581.5 				"/>
				<polygon class="st1" points="497.1,579.2 496.3,579 495.4,582.3 493.5,577.8 493,578.1 491.6,578.2 494.7,583.4 496,586.9 
					500.2,589.3 500.6,586.3 500.2,584.4 499,587.2 497.5,584.6 497.9,582.9 				"/>
				<polygon class="st1" points="459.7,573.6 460.4,574 460.3,574.8 460.6,575.2 461.1,574.9 460.2,573.4 				"/>
				<polygon class="st1" points="487.6,614.3 487.3,613.8 486.6,614.9 				"/>
				<polygon class="st1" points="484.7,567.5 484.9,566.6 484.8,565.3 484.1,566.4 				"/>
				<path class="st1" d="M509,598.3l-1,0.6l0.5,0.8c0.3-0.4,0.5-0.7,0.8-1.1L509,598.3z"/>
				<polygon class="st1" points="481.1,602 481.6,601.7 480.5,600.9 				"/>
				<polygon class="st1" points="484,604.5 483.2,604.3 483.5,604.8 				"/>
				
					<rect x="491.7" y="573.5" transform="matrix(0.8638 -0.5039 0.5039 0.8638 -222.3469 326.4741)" class="st1" width="1.8" height="1.8"/>
				<polygon class="st1" points="495.8,596.1 496.1,596.7 496.8,595.5 495.9,594 				"/>
				
					<rect x="493.6" y="591.1" transform="matrix(0.8637 -0.504 0.504 0.8637 -231.2018 329.6161)" class="st1" width="0.6" height="2.4"/>
				<polygon class="st1" points="500.1,595.1 500.9,595.3 500.3,594.2 499.7,594.5 				"/>
				<polygon class="st1" points="506,597.9 504.7,595.8 503.9,595.6 504,597 505.2,599.1 				"/>
				
					<rect x="501.5" y="588.5" transform="matrix(0.8637 -0.5041 0.5041 0.8637 -228.5262 333.2984)" class="st1" width="0.6" height="1.2"/>
				<polygon class="st1" points="436.7,596.9 437.1,595.3 435.9,593.2 433.8,594.4 436.2,597.2 				"/>
				<polygon class="st1" points="366.7,379.1 366.9,378.4 366.6,378.3 366.1,378.3 				"/>
				<path class="st1" d="M359.5,229l-1.1-1.1l-2.8-1.6l0,2.8l1.7,0l2.1,1.5c0,0,0.1,0,0.2,0L359.5,229z"/>
				<path class="st1" d="M336.6,336.3l1.4-0.6l-1.6-0.6l-0.5,1.4C336.1,336.4,336.4,336.3,336.6,336.3z"/>
				<path class="st1" d="M381.3,313.7c0,0,7.1-11.6,10-21.3c0-0.1,0.1-0.3,0.1-0.4l-1.3,0.7c0.8-1,1.1-2.2,1.8-3.4
					c0.1-0.7,0.2-1.3,0.3-1.9c1.3-11.6-2.1-20.8-2.1-20.8c-8.7-27.9-30.7-36-30.7-36c-1.1-0.1-2.1-0.1-3.2-0.1l-4-3l-2.3-0.5l-1.7,0
					l-2.8-1.6l0-2.8l2.3,1.7l0.6,1.1l1.7,0l0-0.6l1.7,0l0-1.1l-7.9-3.3l-2.8,2.3l-1.1,0.6l1.2,2.2l-3.9,1.2l0-1.1l1.7-0.6l0.5-2.3
					l-2.8-0.5l-1.1,0.6l-14,3.6l-1.1-1.1l-1.1,2.3l-2.3-1.1l-1.1,2.8l-1.1,0l-1.1,1.7l-3.4,0.1l-5.6,2.9l-0.6-0.6l-2.3-1.1l1.2,2.2
					l2.8,0.5l-0.6,0.6l-1.7,0l-1.7,1.2l0,1.7l2.8-1.7l1.1,0l1.7-1.7l0.5-1.1l2.3,0.5l1.1-1.1l2.2-1.2l1.1-1.7l1.7,1.1l1.7,0l0,0.6
					l-1.7,0.6l-2.2,1.7l-5.6,1.8l-10,6.9l-6.7,6.9l-3.3,2.3l-1.6,7.9l-0.6,0.6l0-1.7l0.5-2.3l0-2.3l-1.1,1.1l-3.9,5.7l-1.6,4.5
					l0.1,7.9l-1.1,1.1l1.1,1.1l-1,5.1l0.1,7.9l0.6,1.7l0.6-0.6l0.9-13l0.5-1.1l0-1.7l2.8-2.9l0.1,4.5l-2.2,0.6l-0.5,1.7l1.2,2.2
					l-0.6,0.6l-1.1-1.1l1.2,7.9l-1,7.3l1.6,7.9c-0.1,0.5-0.2,1.1-0.2,1.7c0,2.2,0.1,4.4,0.2,6.6v2.8c0,0.5,0.1,0.9,0.2,1.4
					c0,0,0,0,0,0c-0.1,1.1-0.2,2.1-0.2,3.2c0,0.6-0.1,1.1-0.1,1.7c0,0.8,0.1,1.5,0.3,2.2v0.3c0,0.2,0,0.4,0.1,0.6c0,0.4,0,0.8,0,1.1
					c0,0.1,0,0.1,0,0.1l-0.1,1.9c-0.1,0.6-0.1,1.3-0.2,1.9c0,0.4,0,0.8,0,1.2c0,0.1,0,0.2,0,0.3c-0.1,0.6,0,1.2,0.1,1.8
					c0,0.4-0.1,0.7-0.1,1.1c0,0.3,0,0.7,0,1h5.8l0-0.2c0.3,0.1,0.6,0.1,0.9,0.2h6.2c0,0-2.8,1.3-3.2,1.6c-0.2,0.1-0.7,0.4-1.3,0.8
					c0.1,0.1,0.2,0.2,0.3,0.4c0.1,0,0.3,0,0.5,0c0.9,0,1.5,0.4,1.8,1l4.7,0.6c0.1-0.4,0.3-0.8,0.4-1c0.2-0.3,2.1,0,2.8,0
					c0.7,0,1.5,0.7,1.6,1.3c0,0,0,0.1,0,0.2c1-0.3,3.1-0.8,3.4-1.1c0.4-0.3,4.3-0.3,4.3-0.3c4.3-0.3,2.1,1.2,1.6,1.4
					c-0.5,0.2-2.1-0.1-2.5-0.2c-0.2-0.1-2.2,0.4-3.7,0.8l1.3,0.2l0.7,1.5l1.9-1.8l1.8,1.9l2.1-2.3l1.1,0.4l1.7-1.2l3.3,1.3l6.5-0.6
					l0.3,0.8l1.8,1.9l-0.3-2.6l-2.5-1.6l0.8-0.3l1.6,0.6l2-0.5l0.6-1.6l-3.3,0.6l-1.1-0.4l-2.3,1l-1,0.9l-2-1.4l-1.5,0.7l-2.6,0.3
					l-1.7,1.2l-1.2-1.7L313,336l0.2-0.5l1.8,0.1l2.8-0.8l6.1,0.5l1.8-0.4c1.8,0.1,3.5-0.1,5.3-0.3c2.9,0.3,5.7,0.2,8.6,0l-0.7,0.8
					l0.2,0.1c0,0,0,0,0,0c0.3-0.1,0.5-0.3,0.7-0.5C353,333.7,369.6,328.9,381.3,313.7z M284.5,269l0,0.6l-1.2-1.7l1.6-5.7l1.1,0
					L284.5,269z M304,336.6l-0.2,0.5l-6-2.2l0.3,2.6l-4.8-0.5l0.2-0.5l1.5-0.7l1.1-1.4l8.4,0.6l0.5,0.2l3.1-0.1l1.3-0.2l0.7,1.5
					L304,336.6z M334.1,225.4l-0.5,1.7l-7.9,2.4l-0.6,0l-2.8,1.2l-1.1,0.6l-1.1-1.1l5.6-2.3l0-0.6l6.2-0.1l-1.2-2.2l4.5-1.2l0,0.6
					L334.1,225.4z"/>
				<path class="st1" d="M313.1,345.4l1.6,0.6c0.2,0.1,0.4,0.1,0.7,0.1l0.8-2l-2.6,0.3L313.1,345.4z"/>
				<polygon class="st1" points="308.8,397.4 309.4,399 311.2,400.2 311.7,400 311.3,398.9 310.5,398.6 				"/>
				<polygon class="st1" points="393.8,528.1 394.4,530.2 395.9,532.8 396.1,530.7 				"/>
				<path class="st1" d="M397.1,533.8l-0.2-0.4l-1.3-0.1c0.2,0.3,0.5,0.7,0.7,1L397.1,533.8z"/>
				<path class="st1" d="M424.3,569.1c-0.1-2.2-1.4-4.4-1.9-6.3l-1.7,1l3.5,6L424.3,569.1z"/>
				<path class="st1" d="M419.9,454.9l-0.9-1.6l-0.9-0.5l0.3,2c0.2,0.5,0.5,0.9,0.7,1.4L419.9,454.9z"/>
				<path class="st1" d="M388.8,522.5l1.5,2.6l0.8-0.5c-0.3-0.9-0.7-1.9-1.1-2.8L388.8,522.5z"/>
				<path class="st1" d="M302.9,346c0.4,0.1,0.7,0.2,1.1,0.2l-1-0.4L302.9,346z"/>
				<path class="st1" d="M391.8,414.9c-0.2-0.2-0.4-0.4-0.6-0.6c-0.1-0.1-0.2-0.2-0.3-0.3l0.7,1.2L391.8,414.9z"/>
				<polygon class="st1" points="321.4,207.6 321.9,204.7 321.3,203.6 319.6,204.8 318.5,204.8 315.2,206.5 307.3,208.9 
					298.9,214.1 297.2,214.7 296.7,215.3 296.7,217 304,214 307.3,211.2 311.8,211.1 313.5,209.4 316.3,208.2 318.5,206.5 
					319.7,207.6 				"/>
				<polygon class="st1" points="317.5,209.9 317.5,211 318,211 318.6,210.4 318,209.9 				"/>
				<path class="st1" d="M294.9,344C295,344,295,344,294.9,344l2.2,0.9l1.5-0.7l-1.2-1.7l-2.8,0.8L294.9,344z"/>
				<polygon class="st1" points="312.1,225.2 314.3,224 314.3,222.9 312,222.9 				"/>
				<polygon class="st1" points="293,232.3 291.9,231.7 291.9,232.8 293,232.8 				"/>
				<polygon class="st1" points="313.7,219 311.4,221.8 315.4,220.6 				"/>
				<polygon class="st1" points="287.1,249.8 292.6,244.1 294.3,242.9 294.8,241.2 293.1,241.3 285.9,248.7 				"/>
				<polygon class="st1" points="280,228.5 279.4,228.5 279.4,230.2 280,229.6 				"/>
				<polygon class="st1" points="283.9,225.1 282.2,226.2 282.2,226.8 283.9,226.8 				"/>
				<polygon class="st1" points="289.6,234.6 288.5,235.1 288.5,235.7 289.7,235.7 				"/>
				
					<rect x="288" y="237.4" transform="matrix(0.9999 -1.529040e-02 1.529040e-02 0.9999 -3.6005 4.4357)" class="st1" width="0.6" height="0.6"/>
				<path class="st1" d="M422.9,574.5l0.9-0.5l-0.7-1.3c-0.4,0.2-0.2,0.7-0.6,0.9l-1.2-2.1l0.1-1.8l-2-3.4c-0.5-0.9-0.6-2-1.1-2.8
					l-1.4,2.5c1.2,2.1,2.7,4.7,3.5,7.1c0.5,0.9,1.7,1.9,2.2,2.8L422.9,574.5z"/>
				<polygon class="st1" points="441.1,593.7 440.9,594.5 441.5,595.5 443.1,594.6 				"/>
				
					<rect x="440.3" y="602.3" transform="matrix(0.8637 -0.504 0.504 0.8637 -243.7755 304.3669)" class="st1" width="1.2" height="1.2"/>
				<polygon class="st1" points="440.4,596.1 438.8,592.2 439,591.3 438.5,591.6 437.6,590.1 435.4,589.1 438.8,595.7 				"/>
				<polygon class="st1" points="442,489.9 441.2,489 443.6,493.3 444.6,492.4 				"/>
				<polygon class="st1" points="443.5,593 444,592.6 442.8,590.5 442,590.3 				"/>
				<polygon class="st1" points="310.7,212.8 310.8,214.5 311.9,213.9 311.9,212.8 				"/>
				<polygon class="st1" points="444,601.1 442.2,597.9 442,598.8 443.2,600.9 				"/>
				<polygon class="st1" points="456,517.9 455.5,517.6 455.2,518.3 455.9,519.6 				"/>
				<path class="st1" d="M434.1,591.4l-0.2-0.4l-0.3,0.2c0.1,0.1,0.1,0.3,0.2,0.4L434.1,591.4z"/>
				<path class="st1" d="M453.7,582.8l1.4-0.1l0.2-0.8l-0.3-1.8l-1.1-0.6c-0.5-0.9-1.4-1.5-1.9-2.3l-0.8-0.2L451,578l3.1,1.7
					L453.7,582.8z"/>
				<polygon class="st1" points="435.9,481.9 435.7,479.3 433.2,474.6 432.7,476.6 434,479.5 433.9,479.8 				"/>
				<polygon class="st1" points="455.2,626.2 456.2,625.6 455.5,623.2 453.8,621.4 452.3,618.8 452.6,620.7 				"/>
				<path class="st1" d="M408.5,437.8L408.5,437.8c0.5-0.9,0.5-2,0.9-2.9l-3.1,0.1L408.5,437.8z"/>
				<polygon class="st1" points="409.3,442.4 409.3,442.8 411,445.8 411.2,445.7 410.2,443.1 				"/>
				<polygon class="st1" points="409.3,441.2 410.7,441.2 411.1,440.3 411.2,439.2 409.3,439.5 				"/>
				<path class="st1" d="M408.6,547.8l-1.5,0.3c-1-1.7-1.8-4.1-2.8-5.8l-2.5-4.3l-0.9-0.7l-0.6-2l-1.4-1.4l-0.4,0.2l4,6.9l3.2,8.5
					l-0.6-0.2c0.2,0.4,0.5,0.8,0.7,1.3l1.7-1l0.7,1.3l-0.4,1.4l1,1.7l0.9-0.5c-0.2-0.4-0.3-1.5-0.6-2l0.8-1.6L408.6,547.8z"/>
				<path class="st1" d="M416.9,451.7c-0.8-1.4-1.6-2.7-2.5-4.1l-1.7-0.9l0.9,1.6l0.9,0.6l2,2.7L416.9,451.7z"/>
				<path class="st1" d="M420.7,560.8c-0.2-0.3-0.3-1-0.4-1.5l-0.8-0.8l-0.3-0.2l-1.3,0.7L420.7,560.8z"/>
				<path class="st1" d="M450.2,504.2l-0.9,2.6c0.1,0.1,0.1,0.3,0.2,0.4l1.9,1l-0.4-3.6L450.2,504.2z"/>
				<path class="st1" d="M413.8,564.8l0.4-0.3l-0.7-1.3l-0.6,0C413.2,563.8,413.5,564.3,413.8,564.8z"/>
				<polygon class="st1" points="429.4,474.3 429.8,473.5 428.8,472.3 428.4,473 429.5,473.8 429.2,474.2 				"/>
				<polygon class="st1" points="444.8,496.4 444.2,495.5 444.1,497.2 444,497.6 444.1,497.7 				"/>
				<path class="st1" d="M421.8,575.7l-0.6-0.3c0.2,0.2,0.4,0.3,0.5,0.5L421.8,575.7z"/>
				<path class="st1" d="M416,563.6c-0.2-0.4-0.1-1.1-0.3-1.5l-0.2-0.4l-1.1-3.9l0.8-1.6c-1.1-1.9-2-3.7-2.8-5.6l-1.2-1.4
					c0.9,1.6,1.8,3.4,2.4,5l-0.9,0.5l-2-3.4l-0.9,0.5l1.1,3.9l3.7,6.4C414.8,562.5,415.7,563.1,416,563.6z"/>
				<polygon class="st1" points="407.6,350.2 407.1,350.3 407.3,351.5 407.7,350.8 				"/>
				<polygon class="st1" points="236.9,409.9 236.4,409.9 236.2,420.3 236.8,415.8 				"/>
				<polygon class="st1" points="231,443 231.5,444 233,440.5 231.6,439 				"/>
				<polygon class="st1" points="236.1,427.7 236.6,427.2 236.7,423.7 236.2,423.7 				"/>
				<polygon class="st1" points="234,402.4 233.5,400.9 232.4,407.8 233.4,406.9 				"/>
				<polygon class="st1" points="242,397.1 240.5,398 239,396 238.5,394 238,393.5 237,399 235,398 235,399.9 236,400.9 
					235.9,403.9 236.4,403.9 237.9,401 238.9,401 237.9,402.9 237.9,406.9 238.4,406.4 238.9,404.9 238.9,406.9 239.9,406.4 
					240.4,401.5 241.9,400.5 				"/>
				<polygon class="st1" points="235.6,430.1 236.1,431.1 236.1,429.2 235.6,429.2 				"/>
				<polygon class="st1" points="240.2,419.8 240.7,418.8 240.2,418.3 				"/>
				
					<rect x="244.3" y="407.5" transform="matrix(1.182245e-02 -0.9999 0.9999 1.182245e-02 -166.0435 647.442)" class="st1" width="0.5" height="0.5"/>
				<polygon class="st1" points="245.6,419.9 246.1,418.9 246.2,413.4 245.7,413.9 				"/>
				<polygon class="st1" points="247.3,279.3 247.3,277.8 245.8,278.8 				"/>
				<polygon class="st1" points="245,470.8 245.5,470.4 246.6,464.9 245.1,463.4 244.1,467.9 243.6,468.4 244.1,468.9 				"/>
				<polygon class="st1" points="243.4,440.1 242.4,439.1 242.4,441.6 243.4,441.6 242.8,449 243.3,451 243.8,450.5 245.3,444.6 
					245.3,449.6 246.3,448.6 246.4,436.7 245.9,436.7 245.4,439.2 243.9,439.2 				"/>
				
					<rect x="243.3" y="454" transform="matrix(1.182245e-02 -0.9999 0.9999 1.182245e-02 -213.5891 692.3601)" class="st1" width="0.5" height="0.5"/>
				<polygon class="st1" points="235.7,384.6 237.2,376.7 236.3,376.7 236.3,375.2 236.8,371.8 235.3,370.7 234.8,370.7 
					234.8,372.2 235.3,373.2 234.7,379.2 233.2,381.1 233.2,386.6 233.7,385.6 234.2,382.6 234.7,384.6 				"/>
				<polygon class="st1" points="241.7,421.3 241.6,423.3 242.6,422.3 				"/>
				<polygon class="st1" points="233.7,427.6 233.7,429.1 234.6,428.6 				"/>
				<polygon class="st1" points="243.6,382.7 243.1,383.2 243.1,384.7 243.6,384.7 				"/>
				<polygon class="st1" points="233.8,371.2 232.9,371.2 232.3,376.6 230.8,379.1 230.8,379.6 231.3,379.6 233.8,377.2 				"/>
				<polygon class="st1" points="243.1,427.3 242.1,426.3 242.1,427.7 242.6,428.2 				"/>
				
					<rect x="232.9" y="367.3" transform="matrix(1.182981e-02 -0.9999 0.9999 1.182981e-02 -136.613 597.2784)" class="st1" width="2" height="1"/>
				<polygon class="st1" points="230.6,394.4 231.6,392 230.6,391.5 				"/>
				<polygon class="st1" points="233.7,421.7 234.2,421.2 233.8,418.7 				"/>
				<polygon class="st1" points="233.1,391 233.1,396.5 234.1,391.5 				"/>
				<polygon class="st1" points="234.6,433.6 234.6,432.1 233.6,431.1 233.1,433.1 233.6,434.6 				"/>
				<polygon class="st1" points="234.9,327.7 233.4,328.2 233.3,330.1 234.8,330.2 236.2,337.1 235.2,342 235.6,344.5 235.6,348 
					234.6,348.5 234.5,356.4 235,356.4 236.5,354.4 236.5,356.9 237,358.4 237.5,354.4 237.1,345 236.2,342.5 237.2,341.1 
					237.3,332.2 235.9,324.7 234.9,324.7 				"/>
				<polygon class="st1" points="236.1,389.6 236.1,392.5 236.6,392.5 238.1,390.1 238.6,390.1 240,392.6 241,391.6 243.1,387.2 
					241.1,384.2 241.4,362.4 242.4,359.4 242.5,354.5 243.5,352.5 243.5,352 241.5,351 240.5,350 241.6,346.6 240.1,341.1 
					239.6,343.6 240.1,346.5 239.5,355 240.4,356.9 240.2,375.8 239.2,382.7 239.1,389.1 238.6,389.1 238.7,379.7 238.2,379.2 				
					"/>
				
					<rect x="238.4" y="361.4" transform="matrix(1.120029e-02 -0.9999 0.9999 1.120029e-02 -125.6169 596.2245)" class="st1" width="0.5" height="0.5"/>
				<polygon class="st1" points="243.3,370.8 242.8,370.3 242.3,370.8 242.3,371.8 242.7,372.3 243.2,371.8 				"/>
				<polygon class="st1" points="240.7,339.6 241.2,339.6 240.7,339.1 				"/>
				<polygon class="st1" points="239.9,322.3 239.4,321.8 239.4,322.8 239.9,322.8 				"/>
				<polygon class="st1" points="236,311.4 236.1,309.9 235.6,310.4 				"/>
				<polygon class="st1" points="240.7,334.2 240.7,334.7 241.2,334.7 				"/>
				<polygon class="st1" points="226.7,242.7 226.2,242.8 226.3,243.7 226.8,243.3 				"/>
				<polygon class="st1" points="229.1,351.4 229,363.2 227.9,367.7 229.4,366.7 229.5,365.2 231,364.3 231,362.8 229.5,359.8 
					231.6,352.9 229.6,351.4 				"/>
				<polygon class="st1" points="229.8,334.1 230.3,333.1 229.8,332.6 				"/>
				
					<rect x="234.9" y="283.6" transform="matrix(1.182490e-02 -0.9999 0.9999 1.182490e-02 -50.5583 517.6172)" class="st1" width="3.5" height="1.5"/>
				<polygon class="st1" points="236.9,324.7 237.4,324.7 237.4,322.8 236.9,322.3 				"/>
				
					<rect x="247.2" y="287.7" transform="matrix(1.182981e-02 -0.9999 0.9999 1.182981e-02 -43.4343 532.0127)" class="st1" width="0.5" height="0.5"/>
				<polygon class="st1" points="248.8,360 248.3,359.5 248.3,361 248.8,361.5 				"/>
				<polygon class="st1" points="247.1,334.8 247.1,338.7 249.1,335.8 248.6,334.8 				"/>
				<polygon class="st1" points="248.4,351.6 247.4,351.1 247.4,352.6 248.4,354.1 				"/>
				
					<rect x="246.9" y="291.5" transform="matrix(1.181510e-02 -0.9999 0.9999 1.181510e-02 -46.7024 536.1413)" class="st1" width="2" height="0.5"/>
				<polygon class="st1" points="245,387.7 245,392.6 246,392.7 246.5,390.2 246.6,382.3 246.1,382.3 245.1,384.2 244.6,385.7 				
					"/>
				<polygon class="st1" points="245.9,275.8 247.3,276.3 247.4,275.4 245.9,275.3 				"/>
				<polygon class="st1" points="247.5,344.7 247.5,347.6 250,345.2 				"/>
				
					<rect x="244.8" y="280.3" transform="matrix(1.182981e-02 -0.9999 0.9999 1.182981e-02 -38.3399 522.2616)" class="st1" width="0.5" height="0.5"/>
				<polygon class="st1" points="246.3,366.9 248.8,366.5 248.8,363.5 247.3,365.4 246.8,363.5 246.3,363 				"/>
				<polygon class="st1" points="249.7,450.6 249.2,450.1 249.2,454.6 249.7,454.1 				"/>
				<polygon class="st1" points="246.3,361 246.3,362 246.8,361.5 				"/>
				<polygon class="st1" points="225.8,341.9 227.3,340.5 227.3,339.5 225.8,339.4 				"/>
				
					<rect x="253.9" y="477.4" transform="matrix(1.182245e-02 -0.9999 0.9999 1.182245e-02 -226.0075 726.5851)" class="st1" width="1.5" height="0.5"/>
				<polygon class="st1" points="252.4,354.6 252.8,355.1 252.9,352.6 252.4,353.1 				"/>
				<polygon class="st1" points="252.4,350.7 252.9,350.7 252.9,350.2 252.4,349.7 				"/>
				<polygon class="st1" points="252.2,365 253.2,366.5 253.2,363 252.8,361.5 252.8,358.1 252.3,358.1 251.3,360 250.8,362.5 
					250.8,364.5 251.3,362.5 				"/>
				<polygon class="st1" points="250,424.4 250,427.8 250.5,427.4 250.5,424.4 				"/>
				<polygon class="st1" points="253,339.3 251,340.2 251,341.2 254,340.8 				"/>
				<polygon class="st1" points="253,342.2 252.5,342.2 252.4,348.2 252.9,347.7 				"/>
				<polygon class="st1" points="249.6,336.3 249.6,337.8 250.6,337.3 				"/>
				<polygon class="st1" points="249.6,291.2 250.7,287.3 249.7,286.3 				"/>
				<polygon class="st1" points="250.1,421.4 250.6,421.4 250.6,418.4 250.1,417 				"/>
				<polygon class="st1" points="249.7,324.9 249.7,325.9 250.7,324.9 				"/>
				<polygon class="st1" points="249.4,314.5 248.8,317.9 248.8,319.9 250.3,319.9 251.8,317 				"/>
				<polygon class="st1" points="223.3,248 223.7,247.3 223.6,246.7 223.1,247.1 				"/>
				
					<rect x="253.2" y="426.6" transform="matrix(1.182613e-02 -0.9999 0.9999 1.182613e-02 -176.1396 675.5555)" class="st1" width="1" height="0.5"/>
				<polygon class="st1" points="255.8,481.4 256.8,483.4 256.8,480.4 256,480.5 				"/>
				
					<rect x="260.5" y="419.1" transform="matrix(1.182490e-02 -0.9999 0.9999 1.182490e-02 -162.1152 675.5594)" class="st1" width="0.5" height="1.5"/>
				<polygon class="st1" points="274.9,417.2 274.9,416.3 274.4,416.3 274.4,417.7 				"/>
				<polygon class="st1" points="278.5,400 278.5,401.9 279,400.5 				"/>
				<polygon class="st1" points="257.6,411.6 258.1,411.1 258.2,406.2 257.7,407.1 				"/>
				<polygon class="st1" points="259.3,480.9 259.2,486.4 258.7,487.3 258.7,491.3 261.7,486.4 261.8,479 260.8,476.5 				"/>
				<polygon class="st1" points="256.8,479.4 257.3,476.9 256.9,475.9 256.2,479.5 256.8,479.5 				"/>
				<polygon class="st1" points="264,462.2 263.3,476.5 262.7,481 262.6,489.4 264.2,486.4 264.7,480.5 266.8,476.1 266.8,468.6 
					264.9,466.6 264.9,463.7 				"/>
				<polygon class="st1" points="257.9,475 258.9,474 257.9,473 				"/>
				<polygon class="st1" points="262.4,468.1 261.9,466.6 261.4,470.5 261.3,475 262.3,475 				"/>
				<polygon class="st1" points="228.8,381.1 228.8,376.6 228.3,376.6 227.3,382 				"/>
				<polygon class="st1" points="249.4,481.3 250,470.9 249.5,470.9 247.4,480.8 247.9,482.3 				"/>
				<polygon class="st1" points="230.8,334.6 230.8,336 231.3,336 232.3,335.1 231.3,334.6 				"/>
				<polygon class="st1" points="231.5,278.1 231.5,278.6 232,278.6 				"/>
				<path class="st1" d="M232.5,295.5l0.8,0l0-1.5l-0.9,0C232.4,294.5,232.4,295,232.5,295.5z"/>
				
					<rect x="231.4" y="327.1" transform="matrix(1.182981e-02 -0.9999 0.9999 1.182981e-02 -98.4662 555.1461)" class="st1" width="0.5" height="0.5"/>
				<polygon class="st1" points="231.8,333.1 232.3,332.6 231.8,332.1 				"/>
				
					<rect x="232.1" y="350.4" transform="matrix(1.182981e-02 -0.9999 0.9999 1.182981e-02 -121.031 578.8566)" class="st1" width="0.5" height="0.5"/>
				<polygon class="st1" points="243.3,368.9 243.8,368.4 243.3,367.4 				"/>
				<polygon class="st1" points="232.9,288.1 233.4,287.6 233.4,286.6 232.9,286.6 				"/>
				<path class="st1" d="M401.9,279.8l1.1-0.2c-0.3-1.5-0.1-3.1-0.4-4.6L401.9,279.8z"/>
				<polygon class="st1" points="233.4,322.7 233.4,324.2 233.9,324.2 234.4,323.7 233.9,322.7 				"/>
				<polygon class="st1" points="232.6,305.9 233.1,307.9 234.1,307.9 233.1,305.4 				"/>
				<polygon class="st1" points="231.4,281.1 231.9,281.1 232,280.6 231.5,280.1 				"/>
				<polygon class="st1" points="228.2,431.5 232.3,422.2 232.3,415.8 231.3,414.8 230.8,418.7 229.8,418.7 228.8,422.1 227.2,432 
					225.7,433.5 225.6,442.4 228.1,437.5 				"/>
				<polygon class="st1" points="228.3,459.3 229.3,463.2 230.8,461.3 230.9,450.4 228.4,452.3 				"/>
				<polygon class="st1" points="229.5,446.4 229.5,449.4 230,448.4 230,445.9 				"/>
				<polygon class="st1" points="243.8,490.6 242.8,490.1 242.8,496.1 243.7,496.1 				"/>
				
					<rect x="229.3" y="396.7" transform="matrix(1.182613e-02 -0.9999 0.9999 1.182613e-02 -169.292 622.5331)" class="st1" width="2" height="0.5"/>
				<polygon class="st1" points="247.3,451.1 245.3,451 245.1,461.9 246.2,460.5 247.7,457.5 				"/>
				<polygon class="st1" points="229,406.3 230,400.4 228,401.3 				"/>
				<polygon class="st1" points="226.5,406.3 227,405.8 227,402.8 226.5,402.3 				"/>
				<polygon class="st1" points="227.9,326.1 228.9,325.6 229,322.2 228,320.7 				"/>
				
					<rect x="225.7" y="367.9" transform="matrix(1.202983e-02 -0.9999 0.9999 1.202983e-02 -145.1479 590.4103)" class="st1" width="1" height="1.5"/>
				<polygon class="st1" points="242.8,408.9 243.3,408 243.3,405 242.9,404 				"/>
				<polygon class="st1" points="235.3,292 235.3,291.1 234.3,292 				"/>
				<path class="st1" d="M392.5,245.8c0.1,0.8,0.3,1.6,0.7,2.3c-0.1-0.9-0.2-1.8-0.3-2.8L392.5,245.8z"/>
				<polygon class="st1" points="385.5,384.2 384.9,384.4 385.1,384.6 				"/>
				<path class="st1" d="M392.6,291.3l-0.8,0.4c-0.1,0.3-0.2,0.5-0.3,0.8c0.4,0.5,1.2,2,0.2,5.9c0.6-2.3,1.1-4.3,1.5-6.1l0-0.2
					l0.2-0.3c0.1-0.2,0.1-0.5,0.2-0.7c-0.2-0.7-0.7-1.4-0.9-2.2c-0.1,0.4-0.2,0.8-0.3,1.1L392.6,291.3z"/>
				<polygon class="st1" points="224.7,388.9 224.7,389.9 225.2,389.4 				"/>
				<path class="st1" d="M390,304.9c0.5-1.7,1-3.5,1.5-5.5C390.6,302.7,389.8,302.5,390,304.9z"/>
				<polygon class="st1" points="387.1,370.2 385.3,369.6 383.2,370 382.9,371 380.3,372.1 380.8,374.9 382.3,373.9 384.9,372.8 
					384.8,372.2 384.1,371.7 384,371.1 386.2,371 				"/>
				<polygon class="st1" points="394.5,383.1 394.3,382.9 392.9,383.1 393.7,383.9 				"/>
				
					<rect x="393" y="340.9" transform="matrix(0.9809 -0.1944 0.1944 0.9809 -58.7816 82.9429)" class="st1" width="0.5" height="0.3"/>
				<polygon class="st1" points="397.6,330.9 398.7,330.7 398.5,329.8 396.9,330.1 				"/>
				<path class="st1" d="M396,332.1l1.1-1.1l-0.2-0.9l0-0.2C396.6,330.6,396.3,331.3,396,332.1z"/>
				
					<rect x="392.4" y="380.5" transform="matrix(0.7034 -0.7107 0.7107 0.7034 -154.2408 392.1986)" class="st1" width="0.8" height="0.8"/>
				<path class="st1" d="M394.7,335.1l2-0.9l-1.4-0.3C395,334.3,394.9,334.7,394.7,335.1z"/>
				<path class="st1" d="M381.8,389.1l-0.2,0.2l1.2,0l-0.4-0.4l0.8-0.8c-0.1-0.4-0.2-0.6-0.2-0.6l-2.4,0.4l-0.4,0l-1.2,1.2l2.4-0.4
					L381.8,389.1z"/>
				<path class="st1" d="M383.4,389.1l-0.6,0.3c0,0,0.4,0.6,1,1.7C383.7,390.3,383.5,389.7,383.4,389.1z"/>
				<path class="st1" d="M383.4,387.9l-0.4-0.4C383,387.5,383.1,387.7,383.4,387.9L383.4,387.9z"/>
				
					<rect x="377.2" y="386.1" transform="matrix(0.7033 -0.7109 0.7109 0.7033 -162.3472 383.7995)" class="st1" width="2.8" height="0.6"/>
				<path class="st1" d="M377.8,388.8l-0.6-0.6l-0.4,0.1c0,0.3,0,0.6,0,0.9L377.8,388.8z"/>
				<path class="st1" d="M397.9,260.5l0.6-0.7l-0.3-1.5l-0.3,0.2C397.9,259.2,397.9,259.9,397.9,260.5z"/>
				<path class="st1" d="M382.6,507.2c-0.3-0.5-0.6-1-0.9-1.5c-0.6-1-1.2-2.1-1.8-3.1l-0.4,0.7l2.5,4.3L382.6,507.2z"/>
				<path class="st1" d="M384.3,318.4c0.5-0.8,1-1.7,1.6-2.7C384.7,316,384.4,316.3,384.3,318.4z"/>
				<polygon class="st1" points="380,381.8 380.2,382 381.7,381.6 381.3,381.2 380.3,381.4 				"/>
				
					<rect x="386.2" y="383.6" transform="matrix(0.7033 -0.7109 0.7109 0.7033 -158.1646 388.7635)" class="st1" width="0.8" height="0.6"/>
				<polygon class="st1" points="388.7,386.5 389.3,385.9 388.9,385.5 388.1,385.9 387.9,385.7 386.9,386.3 387.7,386.3 				"/>
				<path class="st1" d="M372.7,378.3l1.7,0.3l2.6-0.8l2.1,0.2c0.1-0.1,0.1-0.2,0.2-0.4l0.1-1.5l0.4-0.7L379,374l-0.6-0.2l-1,0.5
					l-0.5,0.1l0.2,0.9l-2.8-0.4l-2.8,2.7l-0.4,0.7l1.2,0.7L372.7,378.3z"/>
				<polygon class="st1" points="377,380.4 374.6,381.4 376.2,381.2 				"/>
				<polygon class="st1" points="407.8,325.8 406.9,327.2 408.5,326.9 408.3,325.7 				"/>
				<polygon class="st1" points="403.2,358.6 404.2,358.4 403,358 				"/>
				<polygon class="st1" points="402.5,352.2 402.5,352.5 403.6,352.6 403.5,352 				"/>
				<polygon class="st1" points="404.3,350.2 403.8,350.6 404,351.5 404.5,351.1 				"/>
				
					<rect x="401.9" y="357.5" transform="matrix(0.981 -0.1942 0.1942 0.981 -61.8299 84.9088)" class="st1" width="0.5" height="0.6"/>
				<path class="st1" d="M402.8,312.1l-1.2-0.6c-0.1,0.8-0.1,1.5-0.2,2.1l1.1-0.2L402.8,312.1z"/>
				<polygon class="st1" points="405.1,362.6 405.2,363.2 406.3,363 406.2,362.7 				"/>
				<polygon class="st1" points="406.3,299.2 404.8,300.1 404.9,300.4 405.4,300.3 406.9,299.1 				"/>
				<path class="st1" d="M401.8,288.5l0.2,0.1l1.1-0.2L403,288l-1.4-0.2C401.7,288,401.7,288.2,401.8,288.5z"/>
				<polygon class="st1" points="401.3,268.4 401.9,268.6 401.8,268 				"/>
				<path class="st1" d="M400.8,316.2l0.5-0.4l-0.1-0.6l-0.1,0C401,315.6,400.9,315.9,400.8,316.2z"/>
				<path class="st1" d="M401.1,278.4c-0.1,0.5-0.1,1.1-0.1,1.6l0.4-0.1L401.1,278.4z"/>
				<polygon class="st1" points="400.7,271 401.6,269.9 401.4,269 400.4,269.2 				"/>
				<polygon class="st1" points="408.2,353.2 409,351.5 407.9,351.7 406.5,352.9 407.1,353.4 				"/>
				<polygon class="st1" points="404.2,282.8 405.8,282.8 406.2,282.1 404.1,282.2 				"/>
				<path class="st1" d="M402.6,257.8c0.2,0.9-0.2,1.9,0,2.8l1.5-0.9l-0.5-2.4L402.6,257.8z"/>
				<polygon class="st1" points="404.2,271.5 404.9,269.5 403.9,270 				"/>
				
					<rect x="403.6" y="268.5" transform="matrix(0.9809 -0.1946 0.1946 0.9809 -44.5787 83.7219)" class="st1" width="0.5" height="0.6"/>
				<path class="st1" d="M399.3,322.8l-0.1-0.8c-0.1,0.4-0.2,0.7-0.3,1.1L399.3,322.8z"/>
				
					<rect x="402.2" y="255.6" transform="matrix(0.981 -0.194 0.194 0.981 -41.9631 82.9774)" class="st1" width="1.1" height="0.3"/>
				<polygon class="st1" points="406.6,311.7 406.2,312.4 406.7,312.3 				"/>
				<polygon class="st1" points="397.9,256.9 398.1,257.8 398.6,257.6 398.4,256.4 				"/>
				<path class="st1" d="M405.6,287.2l0.5,2.4l0.8-1.4c-0.2-0.9-0.8-1.4-1-2.3L405.6,287.2z"/>
				<polygon class="st1" points="406.4,291.4 405.8,291.2 405.2,293.5 405.5,295.3 406.7,292.6 				"/>
				<polygon class="st1" points="406,297.4 406.7,298.5 407.3,298.4 406.5,297.3 				"/>
				<path class="st1" d="M384.3,510.2c-0.4-0.7-0.8-1.4-1.2-2.2l-0.6,0.4l1.2,2.1L384.3,510.2z"/>
				<path class="st1" d="M392.8,288.6l1.3-0.7l0-2c-0.3,0.3-0.6,0.6-0.8,1C393.1,287.4,393,288,392.8,288.6z"/>
				<polygon class="st1" points="270.8,340.5 269.8,341 269.8,341.5 270.8,341 				"/>
				<polygon class="st1" points="267,284.5 267.5,286 267.6,283.5 				"/>
				<polygon class="st1" points="270.1,245.6 270.1,244.4 269.5,244.5 269.9,245.9 				"/>
				<polygon class="st1" points="265.4,339.4 263.4,337.4 262.9,340.9 262.4,342.4 262.9,342.4 				"/>
				<polygon class="st1" points="259.2,277.5 259.3,271 258.2,276 				"/>
				<polygon class="st1" points="272.7,235.4 270.5,237.7 270.6,239.9 271.7,239.9 275,234.8 				"/>
				<polygon class="st1" points="270.9,337.5 271.4,337.5 272.9,336 271.4,335 270.9,335 				"/>
				<polygon class="st1" points="271.7,241.6 271.2,242.7 272.8,241.6 				"/>
				<polygon class="st1" points="260.1,288.4 261.6,288.9 263.1,286.4 264.1,286 264.1,284.5 261.6,285.9 261.6,288.4 260.1,285.9 
									"/>
				<polygon class="st1" points="257,341.3 257,342.3 257.5,342.3 				"/>
				<polygon class="st1" points="249.9,439.2 249.4,440.7 249.3,446.6 250.3,448.1 252.3,446.2 252.3,439.3 251.9,438.8 
					251.4,439.2 251.3,444.7 249.8,444.7 				"/>
				<polygon class="st1" points="255.5,340.8 255.5,342.3 256,341.3 				"/>
				
					<rect x="256.7" y="277" transform="matrix(1.182981e-02 -0.9999 0.9999 1.182981e-02 -18.8906 535.4014)" class="st1" width="9.4" height="0.5"/>
				<polygon class="st1" points="260.9,345.3 262.4,344.8 260.9,343.3 				"/>
				<polygon class="st1" points="258.5,339.8 259.5,339.4 261,339.4 262,338.4 258.5,337.9 				"/>
				<polygon class="st1" points="259.2,280 259.7,280 259.7,279.5 259.2,278.5 				"/>
				<polygon class="st1" points="235.3,498.9 235.3,498 234.8,497.5 234.8,498.9 				"/>
				<polygon class="st1" points="239.2,500.5 239.7,500.5 239.7,499.5 239.3,499 				"/>
				<polygon class="st1" points="254.9,349.7 254.9,350.7 255.4,350.7 255.9,350.2 255.4,349.7 				"/>
				<polygon class="st1" points="237.9,488.1 238,476.2 237.6,475.7 237,478.2 237,481.1 236,481.1 235.5,478.7 234.5,481.1 
					235.5,484.6 234,484.6 233,482.1 231,488.5 231.9,490 234.4,489.5 235.4,486.6 235.9,486.6 235.9,488.1 				"/>
				<path class="st1" d="M236.3,460.3l0.2-18.3l2-1.5l0.6-10.9l-0.5-0.5l-0.6,4.9l-2,4.4l-0.1,5.9l-0.6,4.9l-1,3.5l-0.5-0.5
					l-0.4-6.4l-1.1,9.9l-1,3.5l-0.1,4.5l-0.5,2l-0.1,4.9l-1.1,5.4l-1.7,18.3l1,1.5l0.4,0.8c0,0,0.1,0.1,0.1,0.1l1-1.9l0.2-12.9
					l1.6-13.8l0.5,2l0.5-0.5l0-4l2-2.9l-0.1,7.4l0.4,6.4l1.5-5.4l-1.5-1.5l2-4.4l0.6-4.9L236.3,460.3z"/>
				<path class="st1" d="M227,493.1l0-2.2l-0.8-0.4C226.4,491.4,226.6,492.3,227,493.1z"/>
				<polygon class="st1" points="240.2,458.9 241.3,455 242.3,454 242.3,453 240.3,451.5 240.6,427.2 240.1,427.2 240,437.6 
					239.4,442.6 237.9,444 237.8,451.5 238.4,448.5 239.4,448.5 239.8,450 238.3,452.5 237.8,452.9 237.8,456.9 238.3,457.9 
					238.2,460.4 239.7,459.9 				"/>
				<polygon class="st1" points="227.9,455.8 226.4,456.8 225.9,460.7 224.9,459.7 223.8,465.6 224.3,467.6 225.3,467.6 
					226.3,464.2 227.8,462.7 				"/>
				
					<rect x="250.2" y="392.5" transform="matrix(1.182613e-02 -0.9999 0.9999 1.182613e-02 -144.5013 639.7043)" class="st1" width="2.5" height="1"/>
				<polygon class="st1" points="251,469.9 251.5,470.4 252,469.9 252,465 251.1,464 				"/>
				<polygon class="st1" points="252.2,450.6 251.7,450.1 251.7,453.1 252.2,452.6 				"/>
				<polygon class="st1" points="252,423.9 252,425.4 252.5,424.4 				"/>
				<polygon class="st1" points="385.4,513.6 384.9,512.7 383.6,513.5 384.9,515.6 				"/>
				<polygon class="st1" points="241.2,498.5 241.4,482.2 242.5,476.8 244,473.8 242.6,470.8 241.6,472.3 240.1,472.3 240.1,470.3 
					241.6,467.8 240.2,461.9 240.2,460.9 238.6,475.2 239.5,478.2 239.3,492.6 239.8,498.5 				"/>
				<polygon class="st1" points="247,472.8 245,472.8 245,475.3 243.5,475.3 243.4,480.7 244.4,480.7 246.9,476.8 				"/>
				<polygon class="st1" points="245.8,492.6 246.8,491.2 246.8,489.2 245.3,487.2 245.3,490.2 				"/>
				<polygon class="st1" points="243.9,485.7 244.9,485.2 244.9,483.2 243.9,483.2 				"/>
				<path class="st1" d="M450.9,275.1c0,1.1-0.3,2.3-0.5,3.3c0.1,0.7,0.3,1.3,0.5,2C451.5,278.3,451.3,276.8,450.9,275.1z"/>
				<polygon class="st1" points="277.6,398 276.6,397 276.6,397.5 277.1,398.5 				"/>
				<path class="st1" d="M449.7,269.1l0.8,3.9c-0.3-1.4-0.4-3.3-0.6-5.3L449.7,269.1z"/>
				<polygon class="st1" points="407.9,357.3 407.4,357.4 407.4,357.7 408,357.9 				"/>
				
					<rect x="273" y="364.8" transform="matrix(1.182613e-02 -0.9999 0.9999 1.182613e-02 -94.954 634.4343)" class="st1" width="1" height="1"/>
				<polygon class="st1" points="273,368.7 274,367.7 273,367.2 				"/>
				<polygon class="st1" points="255.6,376.9 257.1,375.5 255.6,372.5 				"/>
				<polygon class="st1" points="275.7,349 275.7,348.5 275.2,348 275.2,348.9 				"/>
				<polygon class="st1" points="258.3,358.1 259.3,357.2 259.3,356.2 258.3,356.2 				"/>
				<polygon class="st1" points="262.2,361.7 262.7,360.7 260.7,358.2 260.7,361.1 				"/>
				<polygon class="st1" points="257.1,371.5 258.1,370.5 258.2,362.1 257.7,361.6 256.7,362.1 257.2,363.6 258.1,367.1 
					257.1,369.5 				"/>
				<polygon class="st1" points="272.3,345.4 270.7,348.9 274.7,345.5 				"/>
				<polygon class="st1" points="268.7,352.3 269.7,352.3 270.7,351.9 269.8,347.9 269.8,345.4 268.8,348.4 267.8,348.4 267.9,338 
					268.9,336 266.5,333.5 266,332.5 264.5,331.5 264.5,333 263,333 261,333.9 263.9,337.4 265.4,336.5 266.4,336.5 266.4,341.4 
					265.9,342.4 265.8,345.4 263.3,346.3 262.8,347.8 262.3,347.8 260.9,346.8 260.4,346.8 260.3,351.2 259.3,351.2 257.4,349.2 
					256.3,353.2 254.4,353.2 254.2,362.1 254.7,365 255.2,364.5 254.8,356.1 256.3,354.7 257.3,354.7 258.8,353.7 259.3,354.7 
					262.8,349.8 263.8,348.3 264.8,352.3 266.2,353.3 265.2,354.3 265.2,356.7 266.2,356.3 266.7,357.3 268.2,357.3 269.7,354.3 
					267.7,354.3 267.7,353.3 				"/>
				
					<rect x="385.5" y="516.1" transform="matrix(0.8659 -0.5001 0.5001 0.8659 -206.5705 262.4267)" class="st1" width="1.5" height="1"/>
			</g>
			<path class="st2" d="M503.9,229.5C483,153.1,416.6,97.1,338.1,97.1c-78.5,0-144.9,56-165.9,132.4c-0.3,0-0.6,0-0.9,0
				c-14.5,0-26.3,11.8-26.3,26.3v50.9c0,14.5,11.8,26.3,26.3,26.3c14.5,0,26.3-11.8,26.3-26.3v-50.9c0-9-4.6-17-11.5-21.8
				c19-70.5,79.9-122.2,151.9-122.2c71.8,0,132.5,51.4,151.7,121.5c-7.6,4.6-12.6,12.9-12.6,22.4v50.9c0,14.5,11.8,26.3,26.3,26.3
				c14.5,0,26.3-11.8,26.3-26.3v-50.9C529.8,241.4,518.2,229.7,503.9,229.5z"/>
		</g>
		<g>
			<g>
				<path class="st2" d="M164.4,1087.4c-0.1-5.7-3-8.6-8.6-8.8h-3.7h-9.3h-1.5c-3.8,0.8-6.5,2.8-8.4,5.9
					c-11.1,17.5-22.2,34.9-33.1,52.3c-11.1-17-22.1-34.1-32.9-51.3c-2.1-3.3-5.2-5.5-9.1-6.6c-2.3,0-4.4-0.1-6.4-0.2h-1.2h-3.2h-3.4
					c-5.7,0.4-8.6,3.2-8.6,8.6v2V1253c0.8,5.9,4.2,9,10,9.3h12.5c6-0.7,9.5-4.1,10.3-10.3v-17.7v-88.6c7.9,13.4,15.8,26.7,23.8,40
					c1,1.8,2.4,3.1,4.2,3.9c1.1,0.5,2.5,0.7,3.9,0.5c1,0.1,2.1,0.1,3.4-0.2c1.8-0.8,3.3-2.1,4.4-3.7c8-13.3,15.9-26.6,23.8-40.2v106
					c0.5,6.2,3.9,9.6,10.1,10.3h12.7c6-0.5,9.5-3.8,10.3-10.1v-43.7v-74.6v-45.6C164.4,1088.1,164.3,1087.8,164.4,1087.4z"/>
				<path class="st2" d="M286.6,1078.6h-12.8c-6.2,1-9.6,4.5-10.1,10.5c-0.2,41.2-0.2,82.3-0.2,123.1c-0.8,12.9-7.9,19.4-21.3,19.4
					c-12.9-0.5-19.6-7.1-20.1-19.7c-0.2-40.9-0.3-81.8-0.3-122.9c-0.5-6-3.8-9.6-10-10.5H199c-5.7,0.8-9,4-9.8,9.6v123.9
					c0,9,2.3,17.4,6.9,25.3c11,17.6,26.5,26.5,46.6,26.5c20.1,0,35.7-8.9,46.6-26.5c4.4-7.9,6.9-16.3,7.3-25.3v-123.9
					C295.3,1082.8,292,1079.6,286.6,1078.6z"/>
				<path class="st2" d="M365.1,1111.7c13.1-1.8,25,1.5,35.8,9.8c2.3,1.1,4.3,2.3,6.1,3.4c5.7,2.8,10.4,1.5,14-3.7
					c2.1-3.6,4.3-7.1,6.6-10.5c3.4-6.2,2.3-11.2-3.4-15c-2.1-1-4.2-2.1-6.1-3.4h0.3c-9.8-6.1-20.3-10.8-31.7-14.2v-0.5
					c-18-4.3-33.8-0.7-47.3,10.8c-13.6,11.5-20.5,26-20.6,43.7v0.3c-0.2,2.8,0.2,5.7,1.2,8.8c3.4,14.7,12.5,25.3,27.2,31.6
					c7,4.2,14.1,8.1,21.1,11.6c7.7,4.1,14.6,8.8,20.6,14.2c8.4,11.9,6.8,22.1-4.7,30.4c-6.5,2.8-13,2.8-19.5,0.1
					c-6.5-2.7-12.5-5.8-18-9.4c-2.6-1.1-4.8-2.3-6.6-3.4c-5.9-2.8-10.5-1.6-14,3.7c-2.3,3.6-4.3,7-6.1,10.3
					c-2.5,6.1-1.4,10.6,3.2,13.7c2,1.2,3.8,2.2,5.6,3.2c8.2,5.6,17.3,10.1,27.2,13.5v0.5c18.2,5.7,34.7,3.3,49.5-7.1
					c14.9-10.5,22.5-25.3,22.8-44.6v-0.3c0-2.6-0.3-5.6-1-8.8c-3.8-14.9-12.9-25.8-27.5-32.6c-7.2-4.1-14.3-8.1-21.4-12
					c-7.5-3.2-14.5-7.5-20.9-12.7C349.4,1130.1,351.9,1119.7,365.1,1111.7z"/>
				<path class="st2" d="M481.4,1078.6h-12.7c-6.4,1-9.7,4.5-10.1,10.5v164.1c0.7,6.1,4,9.2,10.1,9.3h12.7c1.6,0,3.3-0.3,4.9-1
					c-0.2-0.1-0.1-0.2,0.2-0.2h0.2c1.3-0.8,2.4-2,3.2-3.4c0.8-1.2,1.4-2.6,1.7-4.2v-1.2v-18.1v-145c0-2-0.6-3.8-1.7-5.6
					C487.8,1080.6,485,1079,481.4,1078.6z"/>
				<path class="st2" d="M606.5,1152h13c5.9-1,9.4-4.5,10.6-10.5v-10.3c-3.5-33.1-21.5-51.3-54.2-54.7c-33.2,3.4-51,21.6-53.5,54.7
					v79.5c2.6,33,20.5,50.9,53.5,53.5c32.4-3,50.4-20.8,54.2-53.5V1200c-1.2-6-4.8-9.5-11-10.3h-12c-6.6,0.7-10.2,4.1-11,10.3v10.6
					c-1.1,12.7-7.8,19.7-20.1,20.8c-12.9-1.2-19.9-8.1-21.1-20.8v-78.8c1.1-12.3,8.2-19.1,21.1-20.6c12.3,1.5,19,8.3,20.1,20.6v9.9
					C596.7,1147.9,600.2,1151.3,606.5,1152z"/>
			</g>
			<g>
				<path class="st1" d="M97.3,825.8H63.7H48.1h-1.7c-6.6,1.3-10.2,5.4-11,12.2v76.8v39.4v76.5c0.8,7.3,4.7,11.3,11.9,11.9h15.1
					c7.3-0.4,11.4-4.3,12.2-11.9v-70.4c0.6-3.7,2.7-5.7,6.4-6.1h9.3h5.8c14.9,1.3,23.2,9.5,24.9,24.3v52.1
					c0.6,7.5,4.6,11.5,12.2,11.9h14.8c7.1-0.4,11.1-4.3,11.9-11.9v-55c0.2-15.8-5.2-29.4-16.2-40.9c11.6-12.5,17.6-27.4,18-44.6
					C157.5,851.1,136.1,829.7,97.3,825.8z M95.9,914.8H80.8c-3.9-0.2-6-2.2-6.4-6.1v-37.1c0.4-3.7,2.5-5.7,6.4-6.1h15.1
					c14.9,1.3,23.2,9.5,24.9,24.6C119,905.2,110.7,913.4,95.9,914.8z"/>
				<path class="st1" d="M253.7,823.2c-39,3.9-60.2,25.2-63.4,64v94.4c3.7,38.4,24.8,59.5,63.4,63.2c38.6-3.5,60-24.5,64-63.2v-94.4
					C313.9,848.4,292.6,827.1,253.7,823.2z M278.6,982c-1.6,15.1-9.8,23.1-24.9,24c-15.1-1-23.3-9-24.6-24v-93.5
					c1.3-14.9,9.6-23.1,24.6-24.6c15.1,1.4,23.4,9.6,24.9,24.6V982z"/>
				<path class="st1" d="M461.1,1003.7h-69.2c-3.7-0.4-5.7-2.4-6.1-6.1V876.5V838c-0.6-7.3-4.6-11.4-12.2-12.2h-15
					c-7,0.8-10.9,4.5-11.9,11.3v180.8v13c0.6,7,4.2,10.9,11,11.9h103.7c7-0.6,11-4.5,12.2-11.9v-15.1
					C472.4,1008.5,468.3,1004.5,461.1,1003.7z"/>
				<path class="st1" d="M566.3,823.5c-39,3.9-60.3,25.2-63.7,64v144.3c1,6.8,4.9,10.4,11.9,11h15.1c7.3-0.8,11.4-4.9,12.2-12.5
					v-50.1c0.4-3.5,2.4-5.5,6.1-6.1h37.4c3.5,0.6,5.4,2.6,5.8,6.1v50.1c0.6,7.4,4.5,11.5,11.9,12.5h15.4c6.9-0.8,10.9-4.7,11.9-11.9
					V887.5C626.3,848.5,605.1,827.2,566.3,823.5z M590.9,928.9c-0.6,3.7-2.5,5.7-5.8,6.1h-37.4c-3.9,0-5.9-2-6.1-6.1v-40.3
					c1.3-14.9,9.5-23.1,24.6-24.6c14.9,1.3,23.1,9.6,24.6,24.6V928.9z"/>
			</g>
		</g>
	</g>
	<rect x="-113.6" y="-115" class="st3" width="892.5" height="1505.1"/>
</g>
</svg>
