<?xml version="1.0" encoding="utf-8"?>
<!-- Generator: Adobe Illustrator 25.1.0, SVG Export Plug-In . SVG Version: 6.00 Build 0)  -->
<svg version="1.1" id="Capa_1" xmlns="http://www.w3.org/2000/svg" xmlns:xlink="http://www.w3.org/1999/xlink" x="0px" y="0px"
	 viewBox="0 0 61.1 61.1" style="enable-background:new 0 0 61.1 61.1;" xml:space="preserve">
<style type="text/css">
	.st0{fill:#24C1B6;}
	.st1{fill:#FFFFFF;}
	.st2{fill:#2E3335;}
	.st3{fill:none;stroke:#24C1B6;stroke-width:3;stroke-miterlimit:10;}
	.st4{opacity:0.5;}
	.st5{clip-path:url(#SVGID_14_);}
</style>
<g id="xxFigE_2_">
	<g>
		<path class="st0" d="M22.3,49.5c-0.4-0.3-0.7-0.5-0.9-0.7c-4.1-2.7-7.1-6.4-9.1-10.9c-1.2-2.7-2.4-5.4-3.6-8.1
			c-1-2.1-0.3-4.5,1.7-5.8c1.8-1.2,4.3-0.9,5.8,0.8c1.5,1.7,2.8,3.4,4.2,5.1c0.1,0.2,0.3,0.3,0.5,0.6c0-0.4,0-0.6,0-0.8
			c0-8,0-16,0-23.9c0-2.3,1.4-4.1,3.6-4.6c2.5-0.5,5,1.3,5.3,3.8c0,0.4,0.1,0.8,0.1,1.3c0,3.4,0,6.8,0,10.3c0,0.2,0,0.4,0,0.7
			c2.1-1,4-0.7,5.7,0.9c1.7-1.7,3.6-1.9,5.7-0.9c0-0.3,0-0.4,0-0.6c0-1.7,0-3.4,0-5.1c0-1.9,1-3.3,2.7-4c1.7-0.8,3.4-0.5,4.8,0.8
			c1,0.9,1.5,2.1,1.5,3.4c0,2.9,0,5.7,0,8.6c0,0.7-0.4,1.2-1,1.2c-0.5,0.1-1-0.2-1.2-0.7c-0.1-0.2-0.1-0.4-0.1-0.7
			c0-2.8,0-5.5,0-8.3c0-1.3-0.7-2.2-1.8-2.5c-1.3-0.3-2.6,0.6-2.8,1.9c0,0.2,0,0.4,0,0.6c0,4.5,0,8.9,0,13.4c0,1.8-0.7,3.2-2.3,4.2
			c-1.7,1-3.9,0.7-5.3-0.7c-0.1-0.1-0.1-0.2-0.1-0.1c-0.8,0.4-1.6,1-2.4,1.2c-2.7,0.8-5.5-1.2-5.6-4.1c-0.1-1.9,0-3.7,0-5.6
			c0-4.7,0-9.4,0-14.1c0-0.9-0.2-1.7-1-2.2c-0.7-0.5-1.6-0.6-2.4-0.2c-0.8,0.4-1.3,1.1-1.3,2c0,1.4,0,2.8,0,4.1c0,7,0,14.1,0,21.1
			c0,0.2,0,0.3,0,0.5c-0.1,0.9-0.5,1.4-1.3,1.7c-0.8,0.3-1.5,0.1-2.1-0.6c-1.7-2-3.4-4.1-5.1-6.2c-0.7-0.8-1.5-1.1-2.5-0.8
			c-1,0.3-1.6,1-1.7,2c0,0.4,0.1,0.9,0.2,1.3c1.4,3.1,2.8,6.3,4.3,9.4c1.7,3.4,4.1,6.2,7.2,8.3c0.3,0.2,0.7,0.5,1,0.7
			c1.1,0.8,1.1,0.5,1.3,2c5.4,0,10.9,0,16.4,0c-0.2-0.9,0.4-1.4,0.9-2c1.1-1.1,2.3-2.2,3.3-3.4c2.1-2.2,3-4.9,3-7.9
			c0-2.4,0-4.9,0-7.3c0-0.7,0.3-1.1,0.9-1.2c0.7-0.1,1.2,0.3,1.3,1c0,0.3,0,0.6,0,0.9c0,2.6,0,5.2-0.1,7.8c-0.2,3.4-1.6,6.3-4,8.7
			c-1,1-1.9,2-2.9,2.9c-0.1,0.1-0.2,0.3-0.4,0.5c0.1,0.1,0.2,0.1,0.3,0.2c1,0.4,1.5,1.2,1.5,2.3c0,1.5,0,2.9,0,4.4
			c0,0.8-0.4,1.2-1.2,1.2c-0.1,0-0.2,0-0.4,0c-7,0-14,0-21.1,0c-1.3,0-1.6-0.3-1.6-1.6c0-1.2,0-2.3,0-3.5
			C20.5,51.2,20.8,50.1,22.3,49.5z M22.8,55.3c6.6,0,13.2,0,19.8,0c0-1,0-2,0-3c0-0.5-0.2-0.7-0.7-0.7c-6.2,0-12.3,0-18.5,0
			c-0.1,0-0.2,0-0.3,0c-0.1,0.1-0.3,0.2-0.3,0.3C22.8,53,22.8,54.1,22.8,55.3z M36.7,23.4c0,0.7,0,1.4,0,2.1c0,1.4,1,2.4,2.2,2.4
			c1.3,0,2.4-1,2.4-2.4c0-1.2,0-2.4,0-3.7c0-0.3,0-0.7-0.1-1c-0.2-1.2-1.3-2-2.4-1.9c-1.2,0.1-2.1,1-2.1,2.2
			C36.7,21.9,36.7,22.7,36.7,23.4z M34.5,23.5C34.5,23.5,34.5,23.5,34.5,23.5c0-0.8,0-1.5,0-2.3c0-1.3-1-2.2-2.2-2.3
			c-1.1-0.1-2.3,0.8-2.4,1.9c-0.1,1.7-0.1,3.4,0,5.1c0.1,1.1,1.2,2,2.4,1.9c1.1-0.1,2.1-1.1,2.1-2.2C34.5,25,34.5,24.2,34.5,23.5z"
			/>
		<path class="st0" d="M25.7,34.4c2.8,0,5.3,2.3,5.7,5.1c0.1,0.7-0.2,1.2-0.8,1.3c-0.6,0.1-1.1-0.2-1.3-0.8c-0.2-1-0.6-1.9-1.5-2.5
			c-0.7-0.5-1.4-0.8-2.3-0.8c-0.5,0-0.8-0.2-1.1-0.6C24.2,35.3,24.6,34.3,25.7,34.4z"/>
		<path class="st0" d="M49.2,25.7c-0.6,0-1.1-0.5-1.1-1.1c0-0.6,0.5-1.1,1.1-1.1c0.6,0,1.1,0.5,1.1,1.1
			C50.3,25.2,49.8,25.7,49.2,25.7z"/>
	</g>
</g>
</svg>
