<?xml version="1.0" encoding="utf-8"?>
<!-- Generator: Adobe Illustrator 25.1.0, SVG Export Plug-In . SVG Version: 6.00 Build 0)  -->
<svg version="1.1" id="Capa_1" xmlns="http://www.w3.org/2000/svg" xmlns:xlink="http://www.w3.org/1999/xlink" x="0px" y="0px"
	 viewBox="0 0 61.1 61.1" style="enable-background:new 0 0 61.1 61.1;" xml:space="preserve">
<style type="text/css">
	.st0{fill:#24C1B6;}
	.st1{fill:#FFFFFF;}
	.st2{fill:#2E3335;}
	.st3{fill:none;stroke:#24C1B6;stroke-width:3;stroke-miterlimit:10;}
	.st4{opacity:0.5;}
	.st5{clip-path:url(#SVGID_14_);}
</style>
<g id="n0SSvB.tif_1_">
	<g>
		<path class="st0" d="M58.4,11.1c0.3,0.5,1,0.8,0.9,1.4c0,0.2-0.1,0.4-0.3,0.6c-0.5,0.5-0.9,0.3-1.9-0.6c-0.4,0.4-0.9,0.9-1.4,1.4
			c0.2,0.1,0.4,0.3,0.6,0.5c0.4,0.4,0.4,1,0,1.3c-0.4,0.4-0.9,0.4-1.4,0c-0.2-0.2-0.4-0.4-0.6-0.7c-1,1-2.2,1.3-3.6,1
			c-0.1,0-0.3,0.1-0.4,0.2c-5.5,5.5-10.9,10.9-16.4,16.4c-0.1,0.1-0.1,0.2-0.2,0.3c0.6,0.2,1.2,0.4,1.8,0.5c1.4,0.3,2.6,0.8,3.5,1.9
			c1.2,1.5,1.1,3.3-0.4,4.6c-1,0.9-2.3,1.2-3.6,1.5c-0.6,0.1-1.2,0.2-1.8,0.4c-2.4,0.6-3.1,1.6-3.2,4c-0.1,1.4,0,2.8-0.2,4.2
			c-0.7,4.9-4.7,8.6-9.6,9c-4.5,0.4-8.4-1.1-11.8-3.9C4.9,52.4,2.7,48.8,2,44.5c-0.9-5.8,1.6-10.8,7.1-12.9c1.4-0.6,2.9-0.7,4.5-0.8
			c0.8,0,1.7-0.2,2.5-0.4c0.8-0.2,1.4-0.8,1.7-1.6c0.3-0.8,0.6-1.7,0.8-2.6c0.3-1.3,0.7-2.6,1.6-3.7c1.4-1.9,3.4-2.5,5.6-2.3
			c2.3,0.2,4.2,1.4,5.8,2.9c0.2,0.2,0.3,0.3,0.5,0.5c0,0,0.1,0,0.1,0.1c0.1-0.1,0.2-0.2,0.4-0.3c4.1-4.1,8.2-8.2,12.3-12.3
			c0.3-0.3,0.3-0.5,0.3-0.9c-0.2-1.2,0.2-2.3,1.1-3.3c-0.2-0.2-0.5-0.3-0.7-0.5c-0.4-0.4-0.4-1-0.1-1.4c0.4-0.4,0.9-0.4,1.4,0
			c0.2,0.2,0.4,0.4,0.5,0.6c0.5-0.5,0.9-0.9,1.3-1.4c-0.4-0.5-1.4-1.1-0.5-2c0.8-0.8,1.4,0.1,2,0.6c0.2-0.2,0.4-0.3,0.5-0.4
			c1.1-0.8,2.6-0.7,3.7,0.3c1.4,1.3,2.7,2.7,4.1,4.1C59.6,8,59.6,9.5,58.4,11.1z M30.8,25.2c-1.5-1.5-2.9-2.7-4.9-3
			c-1.6-0.2-3.2,0-4.2,1.4c-0.4,0.6-0.7,1.3-1,2c-0.4,1.1-0.6,2.3-1,3.4c-0.6,1.8-1.7,3-3.6,3.4c-0.9,0.2-1.9,0.3-2.8,0.3
			c-3.9,0.1-6.9,1.7-8.7,5.2c-1.2,2.5-1.3,5.2-0.5,7.8c1.3,4.3,4,7.6,8,9.7c2.8,1.5,5.8,2.1,8.9,1.5c4.1-0.8,6.8-4.4,6.9-8.8
			c0-1,0-2.1,0.1-3.1c0.2-2.4,1.3-4,3.6-4.7c1.1-0.3,2.1-0.5,3.2-0.8c0.8-0.2,1.6-0.4,2.3-0.9c0.8-0.6,0.9-1.5,0.1-2.1
			c-0.5-0.4-1-0.7-1.6-0.9c-1.2-0.4-2.4-0.7-3.7-1.1c-0.8,0.8-1.6,1.6-2.5,2.5c-0.7,0.7-1.1,0.7-1.7,0c-1.2-1.2-2.4-2.4-3.7-3.7
			c-0.7-0.7-0.7-1.1,0-1.7c2-2,4.1-4.1,6.1-6.1C30.5,25.4,30.6,25.3,30.8,25.2z M47.5,8.4c-0.7,0.7-0.8,1.7-0.2,2.4
			c1,1.1,2,2.2,3.2,3.1c0.7,0.6,1.9,0.4,2.4-0.2c-1-1.1-1.1-1.5-0.6-2c0.5-0.5,0.9-0.4,1.9,0.6c0.4-0.4,0.9-0.9,1.4-1.4
			c-0.2-0.1-0.4-0.3-0.6-0.5c-0.4-0.5-0.4-1-0.1-1.4c0.4-0.4,1-0.4,1.4,0.1c0.2,0.2,0.4,0.4,0.6,0.6c0.5-0.6,0.6-1,0.1-1.5
			c-1.3-1.4-2.7-2.7-4-4c-0.5-0.5-1-0.4-1.5,0.2c0.5,0.6,1.5,1.1,0.6,2c-0.9,0.8-1.4-0.1-2-0.6c-0.4,0.5-0.9,0.9-1.3,1.3
			c0.5,0.6,1.4,1.1,0.6,1.9C48.6,9.9,48.1,8.8,47.5,8.4z M39.5,19.1c0.9,0.9,1.8,1.8,2.6,2.6c0.4-0.4,0.8-0.8,1.2-1.2
			c-0.9-0.9-1.8-1.8-2.6-2.7C40.3,18.3,39.9,18.7,39.5,19.1z M27.4,31.3c-0.4,0.4-0.9,0.8-1.3,1.2c0.9,0.9,1.7,1.7,2.6,2.6
			c0.4-0.4,0.8-0.8,1.2-1.2C29.1,33,28.3,32.2,27.4,31.3z M46.1,12.5c-0.4,0.4-0.8,0.8-1.2,1.2c0.9,0.9,1.8,1.8,2.6,2.6
			c0.4-0.4,0.8-0.8,1.2-1.1C47.9,14.3,47,13.4,46.1,12.5z M40.7,23.3c-0.9-0.9-1.8-1.8-2.6-2.6c-0.4,0.4-0.8,0.8-1.2,1.2
			c0.9,0.9,1.8,1.8,2.7,2.7C39.8,24.1,40.3,23.7,40.7,23.3z M28.8,29.8c0.9,0.9,1.8,1.8,2.6,2.6c0.4-0.4,0.9-0.8,1.3-1.2
			c-0.9-0.9-1.8-1.8-2.7-2.7C29.6,29,29.2,29.4,28.8,29.8z M31.6,27.1c0.9,0.9,1.7,1.8,2.6,2.6c0.4-0.4,0.8-0.8,1.2-1.2
			c-0.9-0.9-1.7-1.7-2.6-2.6C32.4,26.3,32,26.7,31.6,27.1z M46,17.9c-0.9-0.9-1.8-1.8-2.6-2.6c-0.4,0.4-0.9,0.8-1.3,1.1
			c0.9,0.9,1.8,1.8,2.6,2.6C45.2,18.7,45.6,18.3,46,17.9z M34.2,24.4c0.9,0.9,1.8,1.8,2.6,2.6c0.3-0.3,0.7-0.7,1-1
			c-0.8-0.8-1.7-1.7-2.6-2.6C34.9,23.7,34.6,24,34.2,24.4z"/>
		<path class="st0" d="M21.8,46.2c-0.5,0-1.2-0.3-1.7-0.8c-1.4-1.3-2.7-2.7-4.1-4.1c-1.2-1.2-1.1-2.9,0-4.1c1.1-1.1,2.9-1.1,4,0
			c1.4,1.4,2.7,2.7,4.1,4.1c0.8,0.8,1,2.1,0.5,3.1C24.2,45.6,23.2,46.2,21.8,46.2z M17.1,39.4c0,0.1,0.1,0.3,0.3,0.5
			c1.4,1.4,2.7,2.7,4.1,4.1c0.2,0.2,0.6,0.3,0.8,0.2c0.3-0.1,0.6-0.4,0.8-0.6c0.2-0.4,0-0.7-0.3-1c-1.3-1.3-2.5-2.6-3.8-3.8
			c-0.1-0.1-0.3-0.3-0.5-0.3C17.7,38.2,17.1,38.6,17.1,39.4z"/>
		<path class="st0" d="M12.6,43.6c0.3,0.2,0.6,0.3,0.8,0.5c1.3,1.3,2.6,2.6,4,3.9c0.4,0.4,0.5,1,0.1,1.4c-0.4,0.4-1,0.4-1.5-0.1
			c-1.3-1.3-2.6-2.6-3.9-3.9c-0.3-0.3-0.5-0.7-0.3-1.1C12,44.1,12.3,43.9,12.6,43.6z"/>
		<path class="st0" d="M23.5,51.1c-0.5,0-0.9-0.4-1-0.9c0-0.5,0.4-0.9,0.9-1c0.6,0,1,0.4,1,1C24.4,50.6,24,51.1,23.5,51.1z"/>
		<path class="st0" d="M19.4,52.4c-0.5,0-0.9-0.4-1-0.9c0-0.5,0.4-1,1-1c0.5,0,0.9,0.5,0.9,1C20.4,52,19.9,52.4,19.4,52.4z"/>
	</g>
</g>
</svg>
