<?xml version="1.0" encoding="utf-8"?>
<!-- Generator: Adobe Illustrator 25.1.0, SVG Export Plug-In . SVG Version: 6.00 Build 0)  -->
<svg version="1.1" id="Capa_1" xmlns="http://www.w3.org/2000/svg" xmlns:xlink="http://www.w3.org/1999/xlink" x="0px" y="0px"
	 viewBox="0 0 61.1 61.1" style="enable-background:new 0 0 61.1 61.1;" xml:space="preserve">
<style type="text/css">
	.st0{fill:#24C1B6;}
	.st1{fill:#FFFFFF;}
	.st2{fill:#2E3335;}
	.st3{fill:none;stroke:#24C1B6;stroke-width:3;stroke-miterlimit:10;}
	.st4{opacity:0.5;}
	.st5{clip-path:url(#SVGID_14_);}
</style>
<g id="qGBQ4q_2_">
	<g>
		<path class="st0" d="M43.5,13.4c0.1-0.3,0.1-0.5,0.2-0.8c0.2-0.3,0.5-0.4,0.8-0.4c0.8,0,1.6,0,2.5,0c0-0.3,0-0.5,0-0.7
			c0-0.7,0.3-1,1-1c1.3,0,2.5,0,3.8,0c0.5,0,1,0,1.4,0c0.6,0,1,0.4,1,1c0,3.8,0,7.6,0,11.4c0,0.6-0.4,1-1.1,1c-2.6,0-5.2,0-7.9,0
			c-0.3,0-0.5,0.1-0.7,0.3c-1.2,1.6-2.7,2.7-4.7,3c-0.4,0.1-0.8,0.1-1.1,0c-0.3,0-0.4,0.1-0.6,0.3c-2.9,2.9-5.9,5.9-8.8,8.8
			c-0.6,0.6-1.1,0.6-1.8,0c-5.7-5.7-11.4-11.4-17-17c-0.6-0.6-0.6-1,0-1.7c3.3-3.3,6.6-6.6,9.9-9.9c0.6-0.6,1-0.6,1.6,0
			c0.9,0.9,1.8,1.8,2.7,2.7c0.2,0.2,0.3,0.2,0.5,0.1c1.4-0.5,2.8-1.1,4.3-1.5c1.8-0.6,3.6-0.5,5.3,0.4c2.2,1.1,4.3,2.2,6.5,3.4
			C42,13.2,42.7,13.4,43.5,13.4z M43.5,15.3c-1.6,0-2.9-0.6-4.2-1.4c-1.7-1-3.5-1.9-5.3-2.7c-1.4-0.7-2.9-0.7-4.4-0.1
			c-1,0.4-2,0.7-3,1.1c-0.1,0-0.2,0.1-0.3,0.1c1.1,1.1,2.1,2.1,3.1,3.1c0.2,0.2,0.4,0.3,0.7,0.4c2,0.6,4,1.3,6,1.9
			c0.6,0.2,0.9,0.7,0.8,1.2c-0.2,0.5-0.7,0.7-1.3,0.5c-0.6-0.2-1.3-0.4-1.9-0.6c-2-0.6-4-1.3-6-1.9c-0.9-0.3-1.8,0-2.2,0.8
			c-0.4,0.7-0.3,1.7,0.5,2.3c0.3,0.3,0.7,0.4,1.1,0.6c2.3,0.8,4.6,1.6,6.9,2.4c0.3,0.1,0.5,0.3,0.7,0.5c1.4,1.7,3.2,2.3,5.3,1.9
			c1.5-0.3,2.5-1.3,3.4-2.5c0.1-0.1,0.2-0.4,0.2-0.5c0-2.2,0-4.5,0-6.7C43.5,15.5,43.5,15.4,43.5,15.3z M29.9,23.5
			c0,0.1-0.1,0.3-0.1,0.4c-0.7,1.9-2.1,3.1-4.1,3.4c-2.1,0.4-3.8-0.3-5.1-2c-2.3-3-0.7-7.3,2.9-8.2c0.1,0,0.3-0.1,0.4-0.3
			c0.6-0.9,1.3-1.5,2.3-1.7c0.1,0,0.2-0.1,0.3-0.1c-0.6-0.6-1.2-1.1-1.7-1.7c-0.2-0.2-0.3-0.2-0.6-0.1c-1.4,0.9-3,1.1-4.7,0.7
			c-0.6-0.2-1.3-0.5-1.8-0.8c-0.7,0.7-1.4,1.4-2.1,2.1c0.7,1,1,2.1,1,3.4c0,1.2-0.4,2.4-1,3.3c3.1,3.1,6.2,6.2,9.3,9.4
			c1-0.7,2.1-1,3.3-1c1.2,0,2.4,0.4,3.4,1c0.7-0.7,1.4-1.4,2.1-2.1c-0.9-1.4-1.2-2.9-0.9-4.6C31.9,24.2,30.9,23.9,29.9,23.5z
			 M48.9,12.4c0,3.3,0,6.5,0,9.7c1.2,0,2.4,0,3.6,0c0-3.2,0-6.5,0-9.7C51.2,12.4,50.1,12.4,48.9,12.4z M23.5,19.1
			c-0.1,0-0.2,0.1-0.2,0.1c-1.3,0.7-2.1,2.2-1.8,3.6c0.3,1.6,1.6,2.7,3.2,2.8c1.4,0.1,2.9-0.9,3.4-2.3c0.1-0.3,0.1-0.4-0.2-0.5
			c-0.7-0.2-1.5-0.4-2.1-0.8C24.5,21.4,23.8,20.4,23.5,19.1z M47,22.1c0-2.7,0-5.3,0-8c-0.5,0-1.1,0-1.6,0c0,2.7,0,5.3,0,8
			C45.9,22.1,46.5,22.1,47,22.1z M30.5,32.6c-1.1-0.8-3-0.8-4,0c0.7,0.7,1.4,1.4,2,2C29.1,34,29.8,33.3,30.5,32.6z M23.2,11.8
			c-0.7-0.7-1.4-1.4-2-2c-0.7,0.7-1.3,1.3-2,2C20.2,12.5,22.2,12.5,23.2,11.8z M14.4,16.5c-0.7,0.7-1.4,1.4-2,2.1
			c0.7,0.7,1.3,1.3,2,2C15.2,19.3,15.2,17.9,14.4,16.5z M36.2,26.9c-0.5-0.3-1-0.5-1.5-0.8c0,0.7,0.2,1.3,0.6,1.8
			C35.6,27.5,35.9,27.2,36.2,26.9z"/>
		<path class="st0" d="M38,43.5c2.2-0.6,4.5-1.2,6.7-1.8c1.1-0.3,2.3-0.4,3.4,0.2c1.8,1,2.9,3.9,0.4,6c-0.5,0.4-1.1,0.7-1.6,1
			c-4.5,1.6-9,3.2-13.5,4.9c-1.2,0.4-2.4,0.8-3.7,0.7c-1-0.1-2-0.2-2.9-0.7c-1.9-1-3.9-2-5.8-3c-1.1-0.6-1.6-0.8-2.8-0.9
			c0,0.1,0,0.1,0,0.2c0,0.6-0.4,1-1,1c-0.8,0-1.6,0-2.5,0c0,0.2,0,0.4,0,0.7c0,0.7-0.3,1-1,1.1c-1.8,0-3.5,0-5.3,0c-0.6,0-1-0.4-1-1
			c0-3.8,0-7.6,0-11.4c0-0.7,0.4-1,1-1c2.7,0,5.4,0,8,0c0.2,0,0.4-0.1,0.5-0.3c1.1-1.5,2.4-2.6,4.3-3c2.7-0.5,5,0.3,6.9,2.3
			c0.1,0.1,0.3,0.3,0.5,0.3c2.1,0.7,4.2,1.4,6.3,2.1C36.3,41.2,37.4,42,38,43.5z M18.1,48c1.4,0.1,2.7,0.6,3.9,1.2
			c1.8,1,3.7,1.9,5.5,2.9c0.9,0.4,1.8,0.6,2.8,0.5c0.8-0.1,1.5-0.3,2.2-0.6c4.6-1.6,9.1-3.3,13.7-4.9c0.5-0.2,0.9-0.5,1.3-0.8
			c0.5-0.4,0.6-1,0.4-1.6c-0.3-1-1.2-1.6-2.4-1.2c-2.4,0.6-4.8,1.3-7.3,2c-0.1,0-0.2,0.2-0.3,0.3c-0.7,2.1-2.7,3.1-4.8,2.4
			c-1.5-0.5-3.1-1-4.6-1.5c-1.1-0.4-2.3-0.7-3.4-1.1c-0.4-0.1-0.7-0.5-0.6-1c0-0.4,0.4-0.8,0.8-0.8c0.2,0,0.4,0,0.6,0.1
			c2.6,0.8,5.3,1.7,7.9,2.5c0.8,0.3,1.6,0,2-0.7c0.4-0.7,0.4-1.5-0.1-2.1c-0.4-0.4-0.8-0.7-1.4-0.9c-2.3-0.8-4.6-1.5-6.9-2.3
			c-0.3-0.1-0.5-0.3-0.7-0.5c-1.4-1.6-3.2-2.3-5.3-1.9c-1.5,0.3-2.6,1.4-3.4,2.6c-0.1,0.1-0.1,0.3-0.1,0.4c0,1.9,0,3.8,0,5.7
			C18.1,47,18.1,47.5,18.1,48z M9.2,41.1c0,3.3,0,6.5,0,9.7c1.2,0,2.4,0,3.6,0c0-3.2,0-6.5,0-9.7C11.6,41.1,10.4,41.1,9.2,41.1z
			 M16.3,49.1c0-2.7,0-5.3,0-8c-0.5,0-1.1,0-1.6,0c0,2.7,0,5.3,0,8C15.2,49.1,15.7,49.1,16.3,49.1z"/>
		<path class="st0" d="M39.4,20.6c-0.5,0-0.9-0.4-0.9-0.9c0-0.5,0.4-0.9,0.9-0.9c0.5,0,0.9,0.4,0.9,0.9
			C40.3,20.2,39.9,20.6,39.4,20.6z"/>
		<path class="st0" d="M22.2,44.5c-0.5,0-0.9-0.4-0.9-0.9c0-0.5,0.4-0.9,0.9-0.9c0.5,0,0.9,0.4,0.9,0.9
			C23.2,44.1,22.8,44.5,22.2,44.5z"/>
	</g>
</g>
</svg>
