<?xml version="1.0" encoding="utf-8"?>
<!-- Generator: Adobe Illustrator 25.1.0, SVG Export Plug-In . SVG Version: 6.00 Build 0)  -->
<svg version="1.1" id="Capa_1" xmlns="http://www.w3.org/2000/svg" xmlns:xlink="http://www.w3.org/1999/xlink" x="0px" y="0px"
	 viewBox="0 0 61.1 61.1" style="enable-background:new 0 0 61.1 61.1;" xml:space="preserve">
<style type="text/css">
	.st0{fill:#24C1B6;}
	.st1{fill:#FFFFFF;}
	.st2{fill:#2E3335;}
	.st3{fill:none;stroke:#24C1B6;stroke-width:3;stroke-miterlimit:10;}
	.st4{opacity:0.5;}
	.st5{clip-path:url(#SVGID_14_);}
</style>
<g id="QqwMdW.tif_3_">
	<g>
		<path class="st0" d="M15.5,37c1.5-0.7,2.9-1.5,3.7-3c0.4-0.6,0.6-1.3,0.9-2c0.6-1.5,1.1-3.1,1.7-4.6c0.3-0.7,0.7-1,1.5-0.7
			c0.8,0.2,1.5,0.4,2.2,0.8c2.2,1.3,3.1,3.8,2.3,6.2c-0.2,0.7-0.5,1.5-0.7,2.2c0,0.1-0.1,0.3-0.1,0.5c0.2,0,0.4,0,0.5,0
			c2,0,4,0,6.1,0c2.6-0.1,4.3,2.5,3.3,4.8c0,0,0,0.1,0,0.1c1.3,0.6,2.1,1.6,2.2,3.1c0,1.5-0.7,2.5-2,3.2c0.6,2.5,0.4,3.2-1.8,4.8
			c0.3,0.7,0.4,1.4,0.3,2.1c-0.3,1.5-1.6,2.7-3.2,2.7c-4.2,0-8.3,0-12.5,0c-1.4,0-2.8-0.4-4.1-0.9c-0.2,0.8-0.8,1-1.5,1
			c-3,0-6,0-9,0c-1,0-1.4-0.4-1.4-1.4c0-6.1,0-12.2,0-18.2c0-1,0.4-1.3,1.3-1.3c3.1,0,6.1,0,9.2,0C14.8,36.4,15.3,36.5,15.5,37z
			 M23.4,29c-0.5,1.5-1.1,2.9-1.6,4.4c-0.8,2.2-2.1,3.8-4.2,4.9c-0.6,0.3-1.2,0.6-1.8,0.9c-0.2,0.1-0.3,0.3-0.3,0.5
			c0,1.1,0,2.2,0,3.2c0,3.6,0,7.2,0,10.8c0,0.2,0,0.4,0.2,0.5c1.4,0.6,2.8,1,4.2,1c4,0,7.9,0,11.9,0c0.8,0,1.4-0.6,1.4-1.3
			c0-0.8-0.6-1.3-1.5-1.3c-0.9,0-1.9,0-2.8,0c-0.3,0-0.6-0.1-0.9-0.3c-0.3-0.2-0.4-0.7-0.3-1.1c0.2-0.4,0.5-0.6,1-0.6
			c1.5,0,3,0,4.5,0c0.2,0,0.5,0,0.7,0c0.5-0.1,0.9-0.5,1.1-1c0.2-0.9-0.4-1.6-1.4-1.6c-1.5,0-3.1,0-4.6,0c-0.2,0-0.4,0-0.6-0.1
			c-0.5-0.1-0.8-0.6-0.7-1.1c0-0.5,0.4-0.9,0.9-0.9c0.1,0,0.3,0,0.4,0c2,0,4.1,0,6.1,0c0.6,0,1.1-0.2,1.4-0.7
			c0.5-0.9-0.1-1.9-1.2-1.9c-2.1,0-4.2,0-6.3,0c-0.2,0-0.3,0-0.5,0c-0.5-0.1-0.8-0.5-0.8-1.1c0-0.5,0.4-0.9,0.9-1c0.2,0,0.3,0,0.5,0
			c1.4,0,2.9,0,4.3,0c0.8,0,1.4-0.5,1.4-1.2c0.1-0.8-0.5-1.4-1.4-1.4c-2.6,0-5.3,0-7.9,0c-1.1,0-1.5-0.6-1.2-1.6
			c0.4-1.3,0.9-2.7,1.3-4C26.4,31.1,25.3,29.4,23.4,29z M13.5,55.2c0-5.6,0-11.1,0-16.7c-0.8,0-1.5,0-2.3,0c0,0.2,0,0.3,0,0.5
			c0,3.3,0,6.5,0,9.8c0,0.1,0,0.3,0,0.4c-0.1,0.8-0.9,1.2-1.6,0.8c-0.4-0.3-0.5-0.7-0.5-1.1c0-3.3,0-6.6,0-9.9c0-0.2,0-0.3,0-0.5
			c-1.1,0-2.1,0-3.2,0c0,5.6,0,11.1,0,16.7C8.4,55.2,11,55.2,13.5,55.2z"/>
		<path class="st0" d="M37.8,31.6c-0.2,0-0.3,0-0.5,0c-2.5,0-4.9,0-7.4,0c-0.7,0-1.2-0.4-1.2-1c0-0.6,0.4-1,1-1.1c0.3,0,0.6,0,0.9,0
			c2.7,0,5.3,0,8,0c0.9,0,1.3,0.4,1.3,1.3c0,0.4,0,0.8,0,1.3c0.2-0.1,0.2-0.2,0.3-0.2c0.9-0.7,1.8-1.3,2.7-2c0.3-0.2,0.6-0.3,1-0.3
			c1.9,0,3.7,0,5.6,0c2.4,0,4.4-1.3,5.2-3.5c0.3-0.7,0.4-1.4,0.4-2.1c0-4.2,0-8.3,0-12.5c0-2.7-1.9-5-4.5-5.5
			c-0.4-0.1-0.8-0.1-1.1-0.1c-6.6,0-13.1,0-19.7,0c-2.7,0-4.9,1.8-5.5,4.4c-0.1,0.4-0.1,0.9-0.1,1.3c0,2.4,0,4.8,0,7.2
			c0,0.9-0.7,1.4-1.4,1.1c-0.4-0.2-0.6-0.5-0.6-1.1c0-2.4,0-4.9,0-7.3c0-1,0.2-1.9,0.5-2.9c1.1-2.8,4-4.8,7-4.8c6.6,0,13.2,0,19.8,0
			c4.4,0,7.8,3.3,7.8,7.7c0,4.1,0,8.2,0,12.3c0,1.2-0.2,2.4-0.8,3.5c-1.4,2.7-3.7,4.1-6.7,4.2c-1.8,0.1-3.6,0-5.3,0
			c-0.2,0-0.4,0.1-0.6,0.2c-1.4,1-2.8,2.1-4.2,3.1c-0.4,0.3-0.8,0.4-1.3,0.2c-0.5-0.2-0.6-0.7-0.6-1.1
			C37.8,33.2,37.8,32.4,37.8,31.6z"/>
		<path class="st0" d="M24.3,22.9c0,0.6-0.4,1-1,1.1c-0.6,0-1.1-0.5-1.1-1c0-0.6,0.5-1,1-1C23.8,21.9,24.3,22.3,24.3,22.9z"/>
		<path class="st0" d="M11.2,52.3c0,0.6-0.5,1.1-1.1,1.1c-0.6,0-1-0.5-1-1c0-0.6,0.5-1.1,1.1-1.1C10.7,51.3,11.2,51.8,11.2,52.3z"/>
		<g id="_x39_3yZUD.tif_3_">
			<g>
				<path class="st0" d="M34.3,21.1c0-0.1,0-0.3,0-0.4c0-2.8,0-5.5,0-8.3c0-0.7,0.2-0.9,0.8-1.1c3.8-1.1,7.6-2.2,11.4-3.2
					c0.8-0.2,1.3,0.1,1.3,0.9c0,3.8,0,7.6,0,11.4c0,1.8-1.1,3.2-2.9,3.5c-1.7,0.3-3.5-1-3.8-2.7c-0.3-2.3,1.4-4.2,3.7-3.9
					c0.4,0,0.8,0.2,1.2,0.3c0-1.4,0-2.8,0-4.3c-0.7,0.2-1.4,0.4-2.1,0.6c-2.5,0.7-5.1,1.4-7.6,2.2c-0.2,0.1-0.3,0.2-0.3,0.4
					c0,2.4,0,4.8,0,7.3c0,1.5-0.7,2.6-2,3.2c-1.2,0.6-2.7,0.3-3.7-0.7c-1-0.9-1.3-2.4-0.8-3.6c0.5-1.2,1.7-2.1,3-2.1
					c0.5,0,1,0.1,1.4,0.3C34,21,34.1,21,34.3,21.1z M46,11.7c0-0.5,0-1.1,0-1.6c-3.4,1-6.7,1.9-10,2.9c0,0.5,0,1.1,0,1.6
					C39.3,13.6,42.6,12.6,46,11.7z M30.9,24c0,1,0.8,1.7,1.7,1.7c0.9,0,1.7-0.8,1.7-1.6c0-0.9-0.8-1.7-1.7-1.7
					C31.6,22.4,30.9,23.1,30.9,24z M42.6,20.6c0,0.9,0.7,1.7,1.7,1.7c0.9,0,1.7-0.7,1.7-1.6c0-0.9-0.7-1.7-1.7-1.7
					C43.4,19,42.7,19.7,42.6,20.6z"/>
			</g>
		</g>
	</g>
</g>
</svg>
