<?xml version="1.0" encoding="UTF-8" standalone="no"?>
<!DOCTYPE svg PUBLIC "-//W3C//DTD SVG 1.1//EN" "http://www.w3.org/Graphics/SVG/1.1/DTD/svg11.dtd">
<svg width="100%" height="100%" viewBox="0 0 144 144" version="1.1" xmlns="http://www.w3.org/2000/svg" xmlns:xlink="http://www.w3.org/1999/xlink" xml:space="preserve" xmlns:serif="http://www.serif.com/" style="fill-rule:evenodd;clip-rule:evenodd;stroke-linejoin:round;stroke-miterlimit:2;">
    <g transform="matrix(0.423215,0,0,0.423215,-75.8711,-101.377)">
        <circle cx="349.399" cy="409.666" r="165.4" style="fill:white;"/>
    </g>
    <g transform="matrix(0.115634,0,0,0.115634,27.5752,21.0171)">
        <g>
            <path d="M519.8,298.4C519.6,296.6 519.4,294.9 519.1,293.4C518.9,295.1 519.3,296.8 519.8,298.4Z" style="fill:rgb(46,51,53);fill-rule:nonzero;"/>
            <path d="M505.7,306.9L505.3,307.7L505.9,307.6L505.7,306.9Z" style="fill:rgb(46,51,53);fill-rule:nonzero;"/>
            <g transform="matrix(0.981,-0.1938,0.1938,0.981,-50.5697,103.842)">
                <rect x="505.1" y="309.8" width="0.6" height="1.1" style="fill:rgb(46,51,53);"/>
            </g>
            <path d="M513,320.7L512.5,321.8L513.9,321.9L513,320.7Z" style="fill:rgb(46,51,53);fill-rule:nonzero;"/>
            <path d="M512.3,330.5L513.6,330.6L516.4,331.5L516.5,328.6L517.7,328.4C517.4,327 516.5,325.7 516.2,324.3L514.5,325.4L515.1,328.5L513.6,327.4L511.6,327.1L512.3,330.5Z" style="fill:rgb(46,51,53);fill-rule:nonzero;"/>
            <path d="M491.4,348.1L492,347.6L491.3,347.4L491.4,348.1Z" style="fill:rgb(46,51,53);fill-rule:nonzero;"/>
            <path d="M491,378.2L492.3,378.7L494.7,377.8L495.4,378.1L497.7,376.5L501.2,368.2L502.4,367.6L502.6,365.8L502.5,365.1L503.4,366.4L503,367.9L504.9,367.5L505.9,369.1L503,370.8L503.3,372.5L505.1,371.8L506.1,370.2L508.1,370.5L507.2,372.8L508.5,372.6L507.8,375.6L512.2,371.9L513.3,371.3L514.9,369.5L514.9,369.2L514.7,365.2L513.4,365.1L512.4,366.4L511.9,370.5L510.6,370.4L510.3,369L511.8,366.9L510.9,365.2L509.6,365.1L507.6,364.8L505.9,363L503.5,363.8L501.5,363.5L500.8,366.5L500.8,363.2L499.7,363.8L496,371.1L498,371.8L497.2,374.1L495.5,375.2L494.3,372.5L493.5,374.8L492.9,375L491.8,376.2L490.6,376.5L491,378.2Z" style="fill:rgb(46,51,53);fill-rule:nonzero;"/>
            <g transform="matrix(0.9809,-0.1943,0.1943,0.9809,-50.3801,101.6)">
                <rect x="492.4" y="307.3" width="0.6" height="0.7" style="fill:rgb(46,51,53);"/>
            </g>
            <path d="M495.9,338.5L496.6,338.4L496.7,335.8L494.9,336.5L495.9,338.5Z" style="fill:rgb(46,51,53);fill-rule:nonzero;"/>
            <path d="M497.5,352.7L497.6,353.4L498.1,352.9L497.5,352.7Z" style="fill:rgb(46,51,53);fill-rule:nonzero;"/>
            <path d="M493.9,328.1L493.7,327L491.7,327L493.9,328.1Z" style="fill:rgb(46,51,53);fill-rule:nonzero;"/>
            <g transform="matrix(0.9809,-0.1944,0.1944,0.9809,-55.1045,102.881)">
                <rect x="496" y="331.8" width="1.3" height="0.7" style="fill:rgb(46,51,53);"/>
            </g>
            <path d="M511.2,363.7L510.1,364.7L511.3,364.1L511.2,363.7Z" style="fill:rgb(46,51,53);fill-rule:nonzero;"/>
            <g transform="matrix(0.9812,-0.1932,0.1932,0.9812,-54.4874,105.615)">
                <rect x="514" y="332" width="0.6" height="0.4" style="fill:rgb(46,51,53);"/>
            </g>
            <path d="M513.3,341.6L511.5,342.7L511.9,344.4L513.8,344.4L512.2,346.1L512.6,348.2L513.7,347.3L514.6,345L515.1,344.5L513.6,343.3L514.8,343.1L515,340.5L514.3,340.7L513.3,341.9L513.3,341.6Z" style="fill:rgb(46,51,53);fill-rule:nonzero;"/>
            <path d="M516.3,334.1L516.1,333.4L515.5,333.5L514.1,333.1L514.4,334.5L516.3,334.1Z" style="fill:rgb(46,51,53);fill-rule:nonzero;"/>
            <path d="M517.7,315.4L517,315.2L514.8,313.8L514.3,314.3C514.5,315.3 514.2,316.9 514.4,317.9C514.8,320 515.8,321.6 516.2,323.7L516.6,322.5L515.8,318.7L517,318.1L516.7,316.7L517.9,316.5L517.7,315.4Z" style="fill:rgb(46,51,53);fill-rule:nonzero;"/>
            <path d="M513.7,353.5L513.2,354.3L512,354.5L511.6,356L512.1,358.5L514.2,356.2L514,355.2L514.9,353.2L513.7,353.5Z" style="fill:rgb(46,51,53);fill-rule:nonzero;"/>
            <g transform="matrix(0.981,-0.194,0.194,0.981,-55.027,106.825)">
                <rect x="517.6" y="334.2" width="0.6" height="0.4" style="fill:rgb(46,51,53);"/>
            </g>
            <path d="M515.8,367.5L516.6,368.9C517.4,366.7 517.9,365.2 517.9,365.2L516.7,365.4L515.8,367.5Z" style="fill:rgb(46,51,53);fill-rule:nonzero;"/>
            <path d="M519.5,337.5L518.7,336.9L517.6,337.8L517.3,336.4L516,336.3C516.5,339.1 515.9,342.1 516.4,344.9L515.3,349.1L514.9,350.3L514.4,350.8L514.5,351.2L515.8,351.3L515.1,357.6L513.3,358L513,359.5L511,362.4L512.9,362.4L513.3,361.2L514.2,359.2L514.5,360.6L513.8,363.6L513.9,364L515.1,363.8L517.5,353.2L517,351L517.5,350.2L517.4,346.6L517.9,345.8L518.4,342.1L517.9,339.7L519.2,339.8L519.5,337.5Z" style="fill:rgb(46,51,53);fill-rule:nonzero;"/>
            <path d="M510.5,357C509.9,357.1 509.8,356.8 509.2,356.9L510,354.6L506.3,355.3L505.8,356.1L508.7,357.7C509.3,357.6 509.9,357.1 510.5,357Z" style="fill:rgb(46,51,53);fill-rule:nonzero;"/>
            <path d="M516.5,273.2C516,272.2 515.3,271.1 514.6,269.9L516.2,282C516.3,282.4 517,282.9 517.1,283.3L518,287.8L517.6,289L518.3,292.5L519.1,293.4C518,287.8 521.7,283 516.5,273.2Z" style="fill:rgb(46,51,53);fill-rule:nonzero;"/>
            <path d="M505.4,354L506.4,352.4L507.3,353.6L508.8,351.5L506.9,351.5L506.5,349.5L505.5,351.1L505.6,351.8L504.5,352.4L505.4,354Z" style="fill:rgb(46,51,53);fill-rule:nonzero;"/>
            <path d="M505.6,358.3L507.5,357.9L506.1,357.5L505.5,357.6L505.6,358.3Z" style="fill:rgb(46,51,53);fill-rule:nonzero;"/>
            <path d="M449.8,284.1C449.6,283.7 449.3,283.4 449.1,283C449.5,285 450.1,286.8 450.7,288.5L449.8,284.1Z" style="fill:rgb(46,51,53);fill-rule:nonzero;"/>
            <g transform="matrix(0.9999,-0.0152997,0.0152997,0.9999,-3.7669,5.7319)">
                <rect x="372.1" y="248.7" width="1.3" height="0.7" style="fill:rgb(46,51,53);"/>
            </g>
            <path d="M382.5,247.9L379.9,248L378.6,249.3L380.6,250.6L383.2,248.6L382.5,247.9Z" style="fill:rgb(46,51,53);fill-rule:nonzero;"/>
            <path d="M377,230.4L377,231L377.7,231L377,230.4Z" style="fill:rgb(46,51,53);fill-rule:nonzero;"/>
            <path d="M419.9,251.9L419.9,252.6L421.2,252.6L419.9,251.9Z" style="fill:rgb(46,51,53);fill-rule:nonzero;"/>
            <path d="M398.2,245.7L397.5,245.7L397.5,246.4L398.8,246.4L398.2,245.7Z" style="fill:rgb(46,51,53);fill-rule:nonzero;"/>
            <path d="M330.8,287.9L332.8,286.6L332.8,286L330.2,286.6L330.8,287.9Z" style="fill:rgb(46,51,53);fill-rule:nonzero;"/>
            <path d="M353.2,252.3L353.2,252.9L353.8,252.9L353.2,252.3Z" style="fill:rgb(46,51,53);fill-rule:nonzero;"/>
            <path d="M348.1,259.6L351.9,256.9L348,256.3L348.1,259.6Z" style="fill:rgb(46,51,53);fill-rule:nonzero;"/>
            <path d="M340.3,263.6L342.9,262.3L340.2,262.3L340.3,263.6Z" style="fill:rgb(46,51,53);fill-rule:nonzero;"/>
            <path d="M351.2,251.7L350.6,252.3L351.9,252.3L351.9,251.7L351.2,251.7Z" style="fill:rgb(46,51,53);fill-rule:nonzero;"/>
            <path d="M343.1,274.7L343,272.7L341.1,274.7L343.1,274.7Z" style="fill:rgb(46,51,53);fill-rule:nonzero;"/>
            <path d="M455.3,299.1L456.1,299.7L456.5,297.9C456.5,297.5 456.4,297.1 456.3,296.7L454.9,297L455.3,299.1Z" style="fill:rgb(46,51,53);fill-rule:nonzero;"/>
            <g transform="matrix(0.981,-0.1938,0.1938,0.981,-46.1661,95.1956)">
                <rect x="463.1" y="283.4" width="0.6" height="0.3" style="fill:rgb(46,51,53);"/>
            </g>
            <path d="M472.3,349L473.5,348.7L474,348.3L473.4,348L472.1,348.3L472.3,349Z" style="fill:rgb(46,51,53);fill-rule:nonzero;"/>
            <path d="M472.2,342.4L472.9,342.7L472.7,341.3L472.2,342.4Z" style="fill:rgb(46,51,53);fill-rule:nonzero;"/>
            <path d="M460.8,304.2L462,303.9L463.6,301.8L463.9,303.6L463.4,304L462.3,305.3L464.9,305.5L463.9,300.3L463.4,300.8L461.6,301.5L461.8,302.5L460.7,303.5L460.8,304.2Z" style="fill:rgb(46,51,53);fill-rule:nonzero;"/>
            <path d="M480.7,394.7L480.5,393.3L479.2,393.6L478.9,391.8L477.4,394L478.8,394.8L479.5,395L480.7,394.7Z" style="fill:rgb(46,51,53);fill-rule:nonzero;"/>
            <path d="M455.5,291L454.9,294.1L455.7,294.7L455.6,291.7C455.6,291.4 455.6,291.2 455.5,291Z" style="fill:rgb(46,51,53);fill-rule:nonzero;"/>
            <path d="M452.9,290.2L451.5,289.7L451,289.8C451.3,290.6 451.5,291.4 451.8,292.1C452.2,293.1 452.4,293.9 452.7,294.5L453.1,294.4L452.9,293.4L453.4,292.9L452.9,290.2Z" style="fill:rgb(46,51,53);fill-rule:nonzero;"/>
            <path d="M475.9,396.1L476.5,396.3L476.8,397.3L479.1,396.1L478.8,394.8L476.3,395.2L475.9,396.1Z" style="fill:rgb(46,51,53);fill-rule:nonzero;"/>
            <path d="M459.4,376.5C459.3,376.9 459.1,377.3 459,377.6L459.4,377.9L461.3,377.5C462.9,375.7 463.2,373.9 464,371.9L464.9,373.2L466.6,372.1L466.2,370.4L462.6,371.5L462,372L460.9,376.2L459.4,376.5Z" style="fill:rgb(46,51,53);fill-rule:nonzero;"/>
            <path d="M459.9,374.8L460.1,375.3L462,372L460.8,371.7C460.5,372.7 460.3,373.7 459.9,374.8Z" style="fill:rgb(46,51,53);fill-rule:nonzero;"/>
            <path d="M455.6,323.3L456.9,324.3C457.5,321.2 457.8,318.6 457.9,316L456.1,316.6L455.5,316.7L455.9,315.5L457.9,314.6C457.9,311.8 457.7,308.9 457.3,305.3C456.8,306.7 456,307.8 455.3,309.3L455.3,309.5C454.4,311.5 454.8,313.5 454.6,315.7C455.2,317.9 455.7,320.8 455.6,323.3Z" style="fill:rgb(46,51,53);fill-rule:nonzero;"/>
            <path d="M511.4,306.1L511.6,307.2L512.1,306.3L512,306L511.4,306.1Z" style="fill:rgb(46,51,53);fill-rule:nonzero;"/>
            <path d="M484,388.7L484.6,388.6C484.5,388.2 485.1,387.8 485,387.4L483.8,388L484,388.7Z" style="fill:rgb(46,51,53);fill-rule:nonzero;"/>
            <path d="M484.6,381.7L485.3,382.2L487,381.2L490.1,380.2L489.9,379.2L486,379.2L484.6,381.7Z" style="fill:rgb(46,51,53);fill-rule:nonzero;"/>
            <path d="M482.2,379.6L482.4,380.3L484.8,379.8L484.2,379.6L482.2,379.6Z" style="fill:rgb(46,51,53);fill-rule:nonzero;"/>
            <path d="M514.6,296.4L515.1,295.6L514.2,294.7L514.6,296.4Z" style="fill:rgb(46,51,53);fill-rule:nonzero;"/>
            <path d="M473,374.9L473.9,376.2L475.1,375.9L474.8,374.5L473,374.9Z" style="fill:rgb(46,51,53);fill-rule:nonzero;"/>
            <path d="M489.7,320.2L490.6,321.1L491.2,321L490.4,320.1L489.7,320.2Z" style="fill:rgb(46,51,53);fill-rule:nonzero;"/>
            <path d="M480.4,383.2L480.5,383.6L482.9,382.7L482.7,382L480.9,382.4L480.4,383.2Z" style="fill:rgb(46,51,53);fill-rule:nonzero;"/>
            <path d="M505.2,382.3L505.9,382.2L505.7,381.1L505.2,381.9L505.2,382.3Z" style="fill:rgb(46,51,53);fill-rule:nonzero;"/>
            <path d="M513.5,378.1C513.6,377.7 513.8,377.3 513.9,376.9L512.6,377.2L512.8,378.2L513.5,378.1Z" style="fill:rgb(46,51,53);fill-rule:nonzero;"/>
            <path d="M502.5,378.1L503.6,377.2L502.4,377.4L502.5,378.1Z" style="fill:rgb(46,51,53);fill-rule:nonzero;"/>
            <path d="M493.4,383.9L492.6,383.3L492.9,384.7L493.4,383.9Z" style="fill:rgb(46,51,53);fill-rule:nonzero;"/>
            <path d="M498.7,378.5L498.9,379.5L501.3,378.4L501.1,377.7L498.7,378.5Z" style="fill:rgb(46,51,53);fill-rule:nonzero;"/>
            <path d="M465.4,366.3L466.2,363.6L465.5,363.7L465.1,364.5L465.4,366.3Z" style="fill:rgb(46,51,53);fill-rule:nonzero;"/>
            <path d="M467.9,349.5L467.7,348.4L465.5,350.7L467.5,351L467.9,349.5Z" style="fill:rgb(46,51,53);fill-rule:nonzero;"/>
            <path d="M466.1,353.8L466.8,353.7L466.1,353.4L466.1,353.8Z" style="fill:rgb(46,51,53);fill-rule:nonzero;"/>
            <path d="M464.5,354.8L465.4,353.2L465.8,352L465.2,351.2C464.9,352.6 464.6,353.8 464.5,354.8Z" style="fill:rgb(46,51,53);fill-rule:nonzero;"/>
            <path d="M467.4,330.7L465.5,334.3C466.9,339.2 467.4,340.9 467,343.5L467.7,342.1C466.7,340.5 467,338.6 466.7,336.9C466.3,334.9 467.2,333 467.4,330.7Z" style="fill:rgb(46,51,53);fill-rule:nonzero;"/>
            <path d="M466.7,327.6L467.5,324.9L466.4,325.9L466.7,327.6Z" style="fill:rgb(46,51,53);fill-rule:nonzero;"/>
            <path d="M466.3,432.1L465.3,433.1L466,432.8L466.3,432.1Z" style="fill:rgb(46,51,53);fill-rule:nonzero;"/>
            <g transform="matrix(0.981,-0.1942,0.1942,0.981,-60.1785,97.43)">
                <rect x="466.5" y="355.5" width="0.6" height="0.4" style="fill:rgb(46,51,53);"/>
            </g>
            <path d="M468.6,422.4C469.1,422.8 469.7,423 470.3,423.2L472.1,422.8L468.5,420.6L467.8,420.4L468.8,418.8L468.7,418.1L468.1,418.2L466.7,421L464.2,421.5L463.7,422C464.1,421.9 464.5,421.8 464.9,421.6C465.9,422.1 466.9,422.3 468.1,422.3L468.6,422.4Z" style="fill:rgb(46,51,53);fill-rule:nonzero;"/>
            <path d="M465.7,302.8L465.9,303.9L466.5,303.8L466.2,302.4L465.7,302.8Z" style="fill:rgb(46,51,53);fill-rule:nonzero;"/>
            <path d="M467.5,360.4L467.9,359.2L466.8,357.3L465,360.9L465.3,362.6L466.6,362.4L467.5,360.4Z" style="fill:rgb(46,51,53);fill-rule:nonzero;"/>
            <path d="M511.5,374.9L511.1,376.1L511.3,377.1L512.3,375.8L511.5,374.9Z" style="fill:rgb(46,51,53);fill-rule:nonzero;"/>
            <path d="M474.4,394.9L474.5,395.6L476.3,394.9L476.1,394.2L474.4,394.9Z" style="fill:rgb(46,51,53);fill-rule:nonzero;"/>
            <path d="M507.9,334L507.3,334.4L507.5,335.5L508.2,335.7L507.9,334Z" style="fill:rgb(46,51,53);fill-rule:nonzero;"/>
            <path d="M506.7,340.7L507.8,340.1L507.8,339.8L507.1,339.9L506.7,340.7Z" style="fill:rgb(46,51,53);fill-rule:nonzero;"/>
            <path d="M508.5,337.1L508.4,336.8L507.8,336.9L507.3,337.3L508,337.6L508.5,337.1Z" style="fill:rgb(46,51,53);fill-rule:nonzero;"/>
            <path d="M507.6,277.2L506.5,278.5L508.5,278.5L508.2,277.4L507.6,277.2Z" style="fill:rgb(46,51,53);fill-rule:nonzero;"/>
            <path d="M508.4,320.5L508.4,323.7L509.9,324.9L509,320L508.4,320.5Z" style="fill:rgb(46,51,53);fill-rule:nonzero;"/>
            <path d="M507.9,311.2L507.2,310.9L506.1,311.9L506.8,312.1L507.6,313L508.1,312.6L507.9,311.2Z" style="fill:rgb(46,51,53);fill-rule:nonzero;"/>
            <g transform="matrix(0.9808,-0.1951,0.1951,0.9808,-53.1167,105.007)">
                <rect x="506.2" y="322" width="0.6" height="0.4" style="fill:rgb(46,51,53);"/>
            </g>
            <path d="M511,304L511.2,305.1L511.7,304.6L511.6,303.9L511,304Z" style="fill:rgb(46,51,53);fill-rule:nonzero;"/>
            <path d="M352.6,255.6L353.2,256.9L354.5,254.9L352.6,254.9L352.6,255.6Z" style="fill:rgb(46,51,53);fill-rule:nonzero;"/>
            <path d="M506.5,330.3L506.8,331.7L507.9,330.8C508.1,331.8 508.9,332.8 509.1,333.8L511.5,333L510.3,330L507.8,330.1L506.5,330.3Z" style="fill:rgb(46,51,53);fill-rule:nonzero;"/>
            <path d="M510.5,337.4L511.3,335.1L509.5,335.8C509.6,336.2 509.1,337 509.2,337.3C509.8,337.2 509.9,337.6 510.5,337.4Z" style="fill:rgb(46,51,53);fill-rule:nonzero;"/>
            <path d="M510.2,300.2L511.6,300.7L511.4,299.6L511.8,298.4L511.2,298.6L510.2,300.2Z" style="fill:rgb(46,51,53);fill-rule:nonzero;"/>
            <path d="M503.2,333.1L502.7,333.9L504.2,338L504.8,337.8L505.1,336L503.8,333L503.2,333.1Z" style="fill:rgb(46,51,53);fill-rule:nonzero;"/>
            <path d="M500.8,350.2L502.2,351L503.3,350.1L505.2,349.7L506.2,348.4L506.3,349.1L508.2,348.7L509,349.3L510.2,349.1L510.5,347.6L510.2,346.2L511,343.9L509.7,340.5L508.1,341.9L506.2,342.3L505,342.9L506.4,343.4C505.9,344.2 505.4,345 505.5,345.4L505.2,343.7L504.2,345.3L504.3,345.7L503.8,346.5L501.7,345.8L500.8,350.2Z" style="fill:rgb(46,51,53);fill-rule:nonzero;"/>
            <path d="M503.4,356.9L504,356.5L503.8,355.4L503,354.8L503.4,356.9Z" style="fill:rgb(46,51,53);fill-rule:nonzero;"/>
            <path d="M502.5,326.3L503.2,326.6L503.8,326.1L503.5,324.7L502.2,324.9L502.5,326.3Z" style="fill:rgb(46,51,53);fill-rule:nonzero;"/>
            <path d="M500.3,331.5L500.9,331.4L500.8,330.7C500.9,331 500.3,331.1 500.3,331.5Z" style="fill:rgb(46,51,53);fill-rule:nonzero;"/>
            <path d="M500.6,362.2L503.2,362.1L504.2,360.8L503.6,358L501.7,360.9L499.8,361.3L500.6,362.2Z" style="fill:rgb(46,51,53);fill-rule:nonzero;"/>
            <path d="M504,330.7L504.2,331.8L504.9,331.7L504.7,331L504,330.7Z" style="fill:rgb(46,51,53);fill-rule:nonzero;"/>
            <g transform="matrix(0.981,-0.1941,0.1941,0.981,-46.3198,103.293)">
                <rect x="503.3" y="287" width="1.3" height="2.1" style="fill:rgb(46,51,53);"/>
            </g>
            <path d="M510.3,382L512.6,380.5L511.7,379.2L510.3,381.7L510.3,382Z" style="fill:rgb(46,51,53);fill-rule:nonzero;"/>
            <path d="M505.3,317.8L506.2,318.7L507.4,318.5L506.4,316.5L505.1,316.8L505.3,317.8Z" style="fill:rgb(46,51,53);fill-rule:nonzero;"/>
            <g transform="matrix(0.9809,-0.1945,0.1945,0.9809,-49.6749,104.313)">
                <rect x="506" y="304.9" width="0.6" height="0.4" style="fill:rgb(46,51,53);"/>
            </g>
            <g transform="matrix(0.981,-0.1938,0.1938,0.981,-57.1564,104.034)">
                <rect x="502.8" y="344" width="0.6" height="0.3" style="fill:rgb(46,51,53);"/>
            </g>
            <path d="M463.8,383.6L463.2,384.1L464.5,384.2L463.8,383.6Z" style="fill:rgb(46,51,53);fill-rule:nonzero;"/>
            <path d="M541.2,692.6L543.5,693.8L543.7,692.8L543,691.6L541.2,692.6Z" style="fill:rgb(46,51,53);fill-rule:nonzero;"/>
            <path d="M562.2,720.3L561.6,720.6L561.1,722.5L563.2,723.5C563.4,723.3 563.6,723 563.8,722.8L562.2,720.3Z" style="fill:rgb(46,51,53);fill-rule:nonzero;"/>
            <path d="M543.3,729.7L544.9,729.6L544.1,728.4L543.3,729.7Z" style="fill:rgb(46,51,53);fill-rule:nonzero;"/>
            <path d="M544.4,694L546.7,695.1L545.7,693.3L544.4,694Z" style="fill:rgb(46,51,53);fill-rule:nonzero;"/>
            <path d="M538.8,674.5L541.5,677.8L541.8,676.8L540.7,675L538.8,674.5Z" style="fill:rgb(46,51,53);fill-rule:nonzero;"/>
            <g transform="matrix(0.8637,-0.504,0.504,0.8637,-271.966,365.848)">
                <rect x="539.7" y="685.1" width="1.4" height="1.4" style="fill:rgb(46,51,53);"/>
            </g>
            <path d="M543.6,744.2L543.9,744.9L544.9,745.1L544.2,743.9L543.6,744.2Z" style="fill:rgb(46,51,53);fill-rule:nonzero;"/>
            <path d="M551.6,632.7L550.4,633.4L550.2,635.9L552.7,640.2L553.9,639.5L553.7,636.3L551.6,632.7Z" style="fill:rgb(46,51,53);fill-rule:nonzero;"/>
            <path d="M556,701.2L554.7,696.2L553.5,696.9L556,701.2Z" style="fill:rgb(46,51,53);fill-rule:nonzero;"/>
            <path d="M552.7,713.7L553.3,713.3L552.2,711.5L551.2,711.2L552.7,713.7Z" style="fill:rgb(46,51,53);fill-rule:nonzero;"/>
            <g transform="matrix(0.8638,-0.5039,0.5039,0.8638,-296.523,376.838)">
                <rect x="548.3" y="735.8" width="0.7" height="2.1" style="fill:rgb(46,51,53);"/>
            </g>
            <path d="M551.1,690.1L552,688.8L550.4,688.9L550.2,689.9L551.1,690.1Z" style="fill:rgb(46,51,53);fill-rule:nonzero;"/>
            <path d="M473.7,408.1L473.9,406.9L472.2,406.6L471.2,408.2L468.9,409.7L470.2,409.8L473.2,408.5L474.8,410L475.9,409.1L477.6,408.4L477.5,407.7L473.7,408.1Z" style="fill:rgb(46,51,53);fill-rule:nonzero;"/>
            <path d="M751.5,221.6C741.9,161.9 713.6,113.3 664.5,77.3C628.7,51.2 588.2,35.7 545.5,25.4C492.5,12.6 438.5,8.9 384.1,8.5C335.8,8.8 287.7,11.8 240.2,21.4C201.4,29.3 163.9,41.1 129.3,60.7C86.8,84.6 53.8,117.6 33.8,162.7C22.6,187.8 16.8,214.1 14.3,241.5C12.2,264.5 12.4,287.3 14.8,310.2C20,360 33.6,407.7 51.3,454.3C80.5,531.2 120.1,602.7 167,670C211.2,733.5 259.4,793.6 320.5,842.2C334.1,853 348.3,862.7 364.6,869.1C373.4,872.5 382.3,874.5 391.9,872.5C403.5,870.1 413.9,865.1 423.8,858.9C446.1,845.1 466,828.3 484.7,810.1C499.2,796 513.1,781.3 526.5,766.2C526.5,766.2 531.6,760.9 539.9,751.4L501.2,686.3L497,680.1C496.5,679.7 496.1,679.4 495.6,679L489.1,670.1L486.5,665.6L486.8,664.8L485.4,662.7L484.8,663.9C483.3,661.4 482.3,658.8 481.1,656.3L472.6,643.6L462.4,625L453.9,610.9C453.2,610.3 452.5,609.8 451.9,609.1L446.4,599.6L445.3,598.9L436.4,583.5C434.1,579.5 431.6,576.3 428.8,572.6L418.2,554.2L416,551.5L401.9,527.1L399.6,525.2C399.6,524.6 399.6,524 399.5,523.4L399.5,522.4C398.1,520.5 396.7,518.7 395.2,516.7L384.6,498.3L382.4,495.6L368.3,471.2L366,469.3C366,468.7 366,468.1 365.9,467.5L365.9,465L365.2,463.8L364.8,463.9L362.2,462.8L358.5,464.3L356.1,463.8L361.7,461.6L364.4,461.2L365.1,459.5L359,460.5L357,459.1L355.9,458.1L353.5,457.6L351.7,453.3L350.1,454.7L350.8,449.4L345.9,446.3L344.9,443.8L343.3,445.2L343.2,446.7L341.8,445.1L339.2,444L338.7,442.8L339.4,441.1L342.3,439.2L340.6,438.5L341.6,437.4L342.8,436.9L341.6,433.8L339.1,431.2L341.2,427.5L339.8,425.9L337.9,426.7L337.4,425.5L337.8,421L335.2,419.9L332,415.4L332.2,412.4L331.7,411.2L333.4,409.2L329.9,403.1L330.4,435.1L329,434.3L328.6,434.1L328.3,459.6L330,460.8L327.9,490.6L325.8,472.8L325.2,471.7L325.2,472.8L324.6,476.2L323.6,459.6L324.8,455L325.4,453.3L323.7,449.8L326,448.7L326,444.7L325.4,443.6L323.1,445.3L322.8,422.9L320.5,421.1L319.9,421.7L319.9,424L321.6,424L322,441.2L321.4,445.2L321.3,450.4L320.7,451.5L320.7,456.1L322.4,456.1L322.1,484.8L321.5,485.4L320.9,487.7L319.8,487.7L319.2,490L318.6,490L318.7,483.7L319.8,484.9L320.4,484.9L320.4,482L318.7,481.4L318.1,482L315.8,482L315.8,484.9L318,489.5L316.3,490.6L316.3,494.6L316.9,492.9L316.9,495.8L315.8,496.4L316.9,497.6L316.6,521.1L315.5,521.1L315.6,511.3L315,510.7L313.3,511.8L312.2,508.9L315.7,507.2L315.7,505.5L314,504.3L314.1,493.4L315.3,488.3L314.2,487.1L314.3,477.3L315.5,475L316.1,468.7L317.2,468.7L316,473.3L317.1,476.2L320,475.1L321.2,473.4L321.3,466.5L320.2,463L319.5,471.6L318.9,471.6L317.9,462.4L316.8,461.2L315.7,461.8L315.7,457.2L317.5,454.3L318.6,453.7L318.8,439.4L318.2,438.3L317,441.7L316.4,442.8L314.6,447.9L314.6,451.9L313.5,451.9L312.4,447.3L311.8,448.4L309.5,451.8L309.6,444.9L311.3,444.4L314.2,439.8L314.8,440.9L316,438.6L316,434L315,433L314.9,438.7L313.8,438.7L313.9,430.7L317.3,430.7L317.8,436.4L319,433.5L319.1,421.5L318,421L317.9,428.5L316.2,426.8L313.9,427.9L311.7,424.4L312.9,422.1L312.4,415.8L308.4,413.5L306.7,415.2L306.1,416.9L305.6,412.9L305,411.8L304.9,421.6L306,421L306,423.3L303.7,423.3L302.6,416.4L300.9,417.5L300.9,419.2L300.3,419.2L300.2,431.8L299,432.9L299,435.2L300.1,435.2L300.7,434.1L302.4,434.1L302.2,447.3L299.9,447.3L300,438.1L298.3,436.4L297.7,439.8L296.6,439.8L295.5,440.4L295.5,438.1L294.9,437.5L294.3,439.8L293.7,440.4L293.2,436.4L292.6,436.4L292,441L290.9,438.7L289.1,441.6L289.1,446.2L292.5,449.1L294.8,447.4L295.4,445.1L296,445.1L296,447.4L295.4,448.5L295.4,450.2L297.7,450.2L297.7,453.1L296,452.5L294.3,453L293.1,455.3L292.9,469.1L290.6,471.4L290.6,476L291.2,476L291.8,472.6L292.4,473.2L292.3,481.8L291.7,484.7L292.3,485.8L292.9,485.2L294.7,477.2L295.2,479.5L294.5,487.5L295,492.1L295.6,490.4L295.6,487L297.4,484.7L298.6,481.3L302.7,476.2L302.7,473.9L302.1,473.9L300.4,475L299.8,475L298.1,476.1L297.4,483L296.3,483L296.4,477.8L295.9,476.1L296,470.4L295.4,469.8L294.2,471.5L293.6,471.5L294.8,464.6L295.3,467.5L295.9,466.9L296,461.7L294.3,461.7L294.4,455.4L297.8,455.4L298.9,457.1L300.1,453.7L300.1,450.3L304.1,450.3L304.1,452.6L305.2,453.2L305.1,461.8L303.4,460.1L302.8,461.8L300.5,464.6L300.5,466.3L301.6,468L299.9,469.7L299.9,473.1L300.5,471.4L302.8,470.9L304.6,466.3L305.2,466.3L305.7,471.5L304.5,472.6L304.3,488.1L303.7,490.4L303,499L302.4,499L301.9,495.5L300.2,494.9L297.6,521.8L296.5,521.8L298,491.4L299.7,490.3L299.7,488L298.6,487.4L296.8,491.4L295.5,506.3L294.9,506.9L294.3,505.8L294.4,497.2L292.6,504.1L292.5,512.7L293.6,512.7L294.8,509.3L294.7,515.6L293.6,516.2L293,522.5L292.8,535L291.6,541.3L291,541.9L291,544.2L291.6,544.2L291.5,553.4L290.9,553.4L290.4,547.7L289.8,547.1L289.7,557.4L291.2,557.4L292.2,554.4L292.7,553.5L292.8,546.5L294.6,543.7L295.8,540.3L296.9,543.8L299.8,539.2L299.8,536.2L299.5,538.4L298.9,537.8L298.9,533.8L299.8,533.8L301.6,527.7L301.7,521.4L302.8,521.4L303.3,528.9L306.7,528.9L308.4,533.5L309.6,528.9L310.2,528.9L309.5,538.7L310.6,543.3L306.4,556.5L306.3,562.2L306.8,564.5L309.7,559.9L310.2,559.9C310.3,567.3 310.5,584.4 310.7,593L306.5,595.2L305.1,595.4L304.9,595.5C305.7,588.3 306.8,576.4 305.2,580.4C303.7,584 303.8,591.2 304,596L302,597L294.2,597.7L289.8,597.3L282.7,596L281.2,594.8L279.6,594.5L275.3,591.3L274.5,590.3L272.1,588.1L271.2,588.2C270.8,587.9 270.4,587.6 270,587.4C269.8,582.2 269.1,577.4 269.1,577.4C269.1,577.4 268.8,581.6 268.5,586.3C263.1,582 259.9,576.8 258.5,569.4C258.3,568.2 257.8,567.3 257.2,566.5C257.1,566.3 257,566.2 256.9,566L258.1,556.1L259.9,550.4L260,544.1L258.9,542.9L258.2,550.9L257.1,550.9L258.7,510.2L257.7,497L258.2,455.1L259.4,452.2L256.6,393.6L255.5,387.8L254.2,351.1L253.1,348.8L253.2,337.2C253.5,336.4 253.7,335.4 253.7,334.3C253.6,330.3 253.6,326.3 253.6,322.3C253.8,320.3 253.9,318.4 254,316.4C253.8,315.2 253.7,313.8 253.8,312.3L254.4,308.6C254.1,306.9 254.3,305 254,303.2L253.9,302.5L254.7,303.1L255.3,302.3C255.3,302.1 255.3,301.9 255.4,301.7L255,301.6L255,298.3L255.7,295.3L255.2,292.9L256.1,290.9L255.7,285.9L256.3,285.8L256.4,286.5L257.1,286.7L257.5,285.5L256.6,284.2L256.5,283.8L257,280.1L259.5,276.3L258.1,275.5L260.2,270L260,269L260.4,267.8C262,262.8 264.2,258 267.2,253.4L267.6,252.2L272.9,246.4L272.7,245.3L273.7,244C273.7,244 297.1,207.9 326.7,198.5C348.1,191.7 370.7,182.5 394.6,182.9L396,182.9C400.2,183 404.4,183.5 408.7,184.3C426.1,187.2 456.7,195.7 484.1,221.3C487.9,224.6 491.2,227.9 493.9,231.4C495.5,233.2 497,235 498.6,237L498.9,237.1C498.9,237.1 522.3,265.8 526.3,308.5C526.8,313.7 527,319.1 526.8,324.7C526.1,358.9 514.7,382.4 507.5,394C506.8,395.6 506.2,397 505.7,398.2L505.9,398.2L505.6,398.5C502.8,404.9 502.6,404.2 503.7,400.3L501.6,402.3L501.3,403.8L502.1,404.7L497.8,408.8L497.7,408.4L499.3,406.6L498.6,403.1L497,404.9L496.4,405L496.3,404.3L499.1,401.9L498.8,400.5L499.3,400L501.6,395.6L502.2,398.7L504.2,398.3C504.3,397.9 504.5,397.4 504.6,397L502.5,396.8L505.2,394.1L506.2,389.2L503.8,390L504.2,388.8L504.7,384.7L504,384.5L501.7,388.9L501.4,387.5L500.1,387.4L501,385.4L502,384.1L501.7,382.7L501.2,382.8L502.6,380.4L502.3,379L499.9,379.8L499.1,382.1L497,384.7L497.2,385.7L496.8,386.9L497.5,387.1L499.2,386L500.6,383.6L500.6,383.9L496.4,392L494.7,393.1L493.3,392.3L492.7,392.4L491,393.5L492,391.9L490.1,392.3L490.9,390L489.7,390.2L487.7,389.9L487,391L485.2,391.7L485.4,392.7L483.2,394.6L483.5,396L482.4,396.4L482.2,395.6L481,395.8L481.2,396.8L481.1,396.8C481,397.1 481,397.3 480.9,397.6L480.1,397.8L480.6,398.6C479.7,400.9 478.2,403.1 477.1,405.6L476,406.8L476.1,406.9L477.4,407L479,408.9L480.1,408L480.5,406.8L482.4,406.4C482.6,407.4 483.4,408 483.6,409.1L483,409.2L481.6,408.4L479.8,409.9L478.5,409.7L477.9,409.8L477.6,408.5L476.2,410.9L470.1,412.5L470.9,413.1L473.4,412.6L474.8,413.1L474.4,414.3L473.7,414.1L471.2,414.2L471.3,414.9L473.8,414.8L474,415.8L472.1,416.2L472.3,417.2L473.6,417.3L474.6,416L475.4,416.6L479,415.2L480.5,411.4L482.4,409.8L484.3,409.4L482.6,410.7L482.1,410.9L482.2,410.9L480.4,412.3L480.6,413.3L483.8,413L484.1,414.7L486.3,412.8L487.5,415.5L484.6,417.2L484,417.3L484.3,415.8L480,416.7L477.1,418.4L477,418.6L476.6,418.8L476.7,419.2L476.3,420.1L475.5,419.7L474.7,419.1L472.2,419.6L472.7,422L475.2,421.5L474.2,423.1L473.8,423.2C474,423.2 474.3,423.1 474.5,423C475.8,422.6 477.1,422.1 478.3,421.5C478.5,421.5 478.7,421.4 478.9,421.3L478.1,420.9L481.5,417.6L483.7,419L485.6,418.6C487.1,416.5 488.7,414.7 490.9,412.8L488.9,412.5L488.2,412.3L489.9,411.2L491,410.3L491.4,409.1L491.2,408.1L491.9,408.3L492.7,409.2L495.2,408.7L495.5,410.1L496,409.6L496.3,411L494.3,410.7C494.4,411.1 493.8,411.5 493.8,411.5L488.9,416.1L489,416.8L490.2,416.6L492.4,414.7L493.7,414.8C492.1,416.6 489.2,417.9 487.5,419.3L485.9,420.7L485.6,419.3C485,419.4 483.8,420 482.6,420.3L481.2,419.5L480.7,420.3L481,421.7L478,422.7L478.1,423.4L480,423L480.1,423.4L479.3,424C479.9,423.7 480.5,423.4 481.1,422.9C481.8,422.3 482.5,421.8 483.2,421.4L483.5,421.4L475.2,429.8L466.9,435.4L464.8,436.1L464.3,436.6L454.9,442L452.6,442.9L452.1,442.4L452.6,441.5L451.9,440.8L451,441.7L451.5,443.1L450.6,444L447.8,445.4L445.7,445.6L443.8,446.4C445.1,448.2 447.1,451.5 448.1,454.9C449.5,460.1 471.3,493.6 471.3,493.6C469.8,492.1 465.8,486.8 461.7,481.3C460.8,480.7 459.9,480.3 458.9,480.1C458.5,480 458.1,480 457.7,480L458.5,483.5L460.5,487L462.9,488.9L462.2,490L462,491L462.5,491L462.2,491.6L462.8,492.1L463.2,493.5L463.5,493.3L464.1,494.3L463.4,494.3L464,496.4L464.2,496.3L466.2,497.4L466.6,498.8L468,498L467.2,495.4C466,494 465.2,492.3 464.3,490.6C465.3,491.1 466.4,491.2 467.4,491.2C468.9,493 470.4,494.8 471.9,496.6C471.2,495.3 470.5,494 469.8,492.7C469.7,492.5 469.6,492.3 469.5,492.1C470.6,494 471.8,495.9 472.9,497.8C474.6,499.8 476.2,501.8 477.5,504L477.5,505.3C479.2,507.6 480.6,510.5 482.1,513.1C482.2,513.2 482.2,513.3 482.3,513.4C482.8,514.2 483.3,515 483.8,515.7L483.9,516.1C484.8,517.6 485.6,519 486.5,520.4C486.4,520.3 486.2,520.3 486,520.3C486.7,521.5 487.4,522.7 488.2,523.8L486.6,525.6L487.1,528.4L489.1,530.7L486.9,529.5C487.1,530 487.4,530.5 487.6,531L488.1,530.3L488.7,531.3L490.3,533L490.6,533.5L492,539.2L494.9,540.7L495.4,542.2L497.7,542.7L498.2,541.7L496.4,541.4L494.2,535.7L490.7,531.3L490.5,529.2L488.3,523.5C489.9,526 491.5,528.4 493.4,530.8L493.9,531.4C496.3,535.4 498.6,539.5 500.9,543.6L499.4,542.3L499.4,543.6L500.7,544.9L501.2,544C501.7,544.9 502.2,545.8 502.7,546.7C504.5,550.1 506.4,553.4 508.4,556.6L504.9,554.8L507.8,558L509.2,560.4L510.1,559.5L509.9,559.1C512.8,563.7 515.7,568.3 518.7,572.9C521.8,578.7 525.1,584.8 527.2,591.2L530.7,595.6L532.1,601.5L533.4,602.8C533.6,603.2 533.8,603.6 534,604C534.5,602.9 534.8,601.6 534.8,600.4L560.1,642.3L590.3,688C603.3,669.9 616.8,649.5 629.5,627.5C629.5,627.4 629.6,627.3 629.7,627.2C668.9,565 702.1,499.8 725.8,429.9C733.1,408.4 739.2,386.4 744.4,364.2C755.1,317.4 759.3,269.7 751.5,221.6ZM310.3,442.6L310.3,438L311.4,441.5L310.3,442.6ZM309.9,431.1L310.5,428.2L311,432.8L312.1,433.4L312.1,435.7L309.8,435.7L309.9,431.1ZM297.1,539.4L296.9,537.1L296.9,538.1L295.2,536.9L294,539.2L293.4,542.6L292.3,542.6L292.3,540.3L294.1,534L294.2,528.8L295.3,528.8L295.9,529.4L295.3,530L295.2,536.3L295.8,535.7L296.8,535.7L296.7,534.7L296.7,530.7L298.4,534.2L297.1,539.4ZM324.2,527.1L324.1,534.6L321.9,527.1L323.1,526L324.2,527.1ZM323.2,518.5L323.2,520.8L322,522.5L321.4,525.4L320.8,526.5L321.8,534.5L323.5,536.2L324.5,546.5L325.1,547.1L323.8,556.3L322.7,556.3L322.7,554L322.1,552.8L323.4,537.9L322.3,536.7L321.7,541.9L321.1,543.6L320.4,550.5L319.2,556.2L319.3,546.4L320.6,532.6L319.5,528.6L319.6,518.3L320.7,518.3L321.3,519.5L322.5,518.4L323.2,518.5ZM319.5,492.1L322.9,495L322.7,511.6L322.1,511.6L321.6,505.9L321,505.9L319.8,508.2L319.7,515.7L319.1,516.3L319.5,492.1ZM317.3,532.8L317.9,531.1L317.8,537.4L317.2,538.5L317.3,532.8ZM315.8,559.2L316.9,559.2L317.5,559.8L320.4,559.3L322.7,559.3L325,557L326.2,551.8L325.2,539.7L326.4,537.4L325.4,527.6L325.6,508.1L324.5,505.8L325.1,502.4L325.2,493.8L326.3,495L327.3,503.6L327.9,502.5L328,496.2L329.1,495.6L329.6,497.3L331.3,500.8L330.1,505.4L330,511.1L327.7,513.4L327,527.2L328.8,524.9L327.5,536.4L328.5,546.7L329.7,541.5L329.8,536.3L330.4,535.2L331,531.8L331.6,531.2L331.5,541.5L333.2,544.4L333.1,551.9L333.6,556.5L333,560.5L330.7,562.8L331.2,564.5L331.2,567.9L331,567.3C331,567.5 331,567.7 330.9,567.9L330.9,568.6C330.7,569.1 330.6,569.7 330.4,570.2C329.7,570.4 329,571 328.6,571.9C326.7,576.3 324.4,580.5 322.3,584.7C322.2,584.9 322.1,585.1 322.1,585.3L318.3,588.5L317.5,588.8L314.9,590.5C316.9,584.8 314.8,570.3 314.8,570.3C314.8,570.3 313.5,587.9 314.1,590.9L311.2,592.4C311.2,590.4 311.2,588.6 311.6,586.8C312.2,583.5 311.2,576.6 312,574.6C312.8,572.6 312.8,563.6 312.4,561.4C312.3,560.9 312.3,560 312.3,559.1L313.6,558.6L314.7,560.3L315.8,559.2ZM313.9,529.9L313.9,528.7L315.6,528.7L315.5,535.6L313.8,536.7L311.5,535.5L311.5,531.5L313.9,529.9ZM311.3,500L311.4,492L312,492L311.9,500L311.3,500ZM313.6,458.7L314.7,458.7L314.1,463.3L313.5,462.7L313.6,458.7ZM307.5,432.8L308.1,428.2L308.2,421.3L309.3,421.3L309.2,427.6L307.9,438.5L307.3,439.6L307.5,432.8ZM307.2,465.5L309,459.2L309.1,454L310.2,454L310.8,454.6L310.2,455.2L310.1,461.5L310.7,460.9L311.8,460.9L311.8,463.2L310.1,462L308.9,464.3L308.3,467.7L307.2,467.7L307.2,465.5ZM305.2,439.7L304.1,435.7L305.3,432.8L305.9,432.8L305.8,439.7L305.2,439.7ZM309.8,482.2L309.7,493.1L308.5,494.2L306.2,494.2L308,490.2L308,486.8L307.4,486.8L306.8,490.2L305.6,493.1L305.4,507.4L303,515.4L301.9,512.5L301.9,510.2L303.1,507.3L305.7,484.9L308.1,479.2L309.3,477.5L309.9,475.8L310.5,475.8L311.6,477L313.3,477L313.3,478.1L311,478.1L309.8,482.2ZM490.2,404.1L491,404.7L488,405.7L488.1,406.4L489.4,406.5L486.1,409.3L485.8,410.8L483.5,412L485.3,408L489.1,404.4L487.7,403.9L488.7,402.6L490.3,400.8C490.1,399.8 489.3,399.2 489.1,398.1L491.5,397.3L491.6,397.7L490.4,398.3C490.5,399 491.4,399.9 491.5,400.6L492.7,400.4L493.1,402.5L490.2,404.1ZM494.8,404.2L493.7,405.1L492.2,404L497.4,397.9L498.6,394.4L498.7,394.8L498.3,396L498.1,398.2L494.8,404.2Z" style="fill:rgb(46,51,53);fill-rule:nonzero;"/>
            <path d="M520.9,705.3L522.2,706.2L517.2,697.7L519.2,703.8L520.9,705.3Z" style="fill:rgb(46,51,53);fill-rule:nonzero;"/>
            <path d="M529.3,669.4L529.7,666.1L528.9,666.5L528.9,668.8L529.3,669.4Z" style="fill:rgb(46,51,53);fill-rule:nonzero;"/>
            <path d="M524.2,659.3L523.6,659.6L524.4,661L524.9,660.7C524.7,660.4 524.5,659.9 524.2,659.3Z" style="fill:rgb(46,51,53);fill-rule:nonzero;"/>
            <path d="M523.5,587L522.5,586.5L522,587.5L523.1,590.9L524.7,593.7L524.7,593.4L525,592.9L524,591.1L524.3,590.6L523.5,587Z" style="fill:rgb(46,51,53);fill-rule:nonzero;"/>
            <path d="M477.6,408.4L477.6,408.5L477.7,408.4L477.6,408.4Z" style="fill:rgb(46,51,53);fill-rule:nonzero;"/>
            <path d="M557.7,714L558.2,712.1L556.7,712.2L557.7,714Z" style="fill:rgb(46,51,53);fill-rule:nonzero;"/>
            <path d="M474.8,407L474,406.5L473.9,406.9L474.8,407.1L474.8,407Z" style="fill:rgb(46,51,53);fill-rule:nonzero;"/>
            <path d="M476,406.8L474.6,405.7L474.8,407L475.5,407.3L476,406.8Z" style="fill:rgb(46,51,53);fill-rule:nonzero;"/>
            <path d="M328.5,563.7L328.4,563.4L329,561.7L328.4,561.1L327.2,562.8L326.7,564.1C327.2,563.9 327.7,563.8 328.2,563.5C328.3,563.5 328.4,563.6 328.5,563.7Z" style="fill:rgb(46,51,53);fill-rule:nonzero;"/>
            <path d="M330.8,556.5L330.8,553.6L330.2,552.4L329.1,553.6L327.3,553.6L327.3,557.6L328.4,558.7L330.8,556.5Z" style="fill:rgb(46,51,53);fill-rule:nonzero;"/>
            <path d="M516.6,577.4C516.7,577.6 516.8,577.8 516.9,578L519.6,578.4L517.1,577.1L516.6,577.4Z" style="fill:rgb(46,51,53);fill-rule:nonzero;"/>
            <path d="M548.9,639.2L548.5,642.7L549.7,642L549.2,639.8L548.9,639.2Z" style="fill:rgb(46,51,53);fill-rule:nonzero;"/>
            <path d="M547.2,627.5L547.8,627.6L547.2,626.6L547.2,627.5Z" style="fill:rgb(46,51,53);fill-rule:nonzero;"/>
            <path d="M532.5,723.8L533.8,724.7L540.2,735.6L541.9,737.1L544,740.7L541.7,734L540.3,727.4L538,726.3L539.9,730.9L536.8,727L535.4,724.6L530.2,717L532.5,723.8Z" style="fill:rgb(46,51,53);fill-rule:nonzero;"/>
            <path d="M553.9,713L554.5,712.6L551.5,706.2L553.5,706.7L553.4,705.1L551.2,701.5L551.7,703.6L546.7,699.2L553.9,713Z" style="fill:rgb(46,51,53);fill-rule:nonzero;"/>
            <path d="M567.1,717.5L567.5,718.2C567.6,718 567.8,717.9 567.9,717.7L567.1,717.5Z" style="fill:rgb(46,51,53);fill-rule:nonzero;"/>
            <path d="M557,647.5L558,649.3L560.9,650.1L564.7,655.2L559,643.9L555.7,642.5L555.9,645.7L555.7,646.6L557,647.5Z" style="fill:rgb(46,51,53);fill-rule:nonzero;"/>
            <path d="M535.1,715.8L536,720.1L536.6,719.8L537,716.3L531,705.9L535.1,715.8Z" style="fill:rgb(46,51,53);fill-rule:nonzero;"/>
            <path d="M554,695L557.2,700.4L559.1,701L559.4,700L557.9,697.6L556.6,696.7L553.5,692.8L554,695Z" style="fill:rgb(46,51,53);fill-rule:nonzero;"/>
            <path d="M532.9,667.3L533.5,666.9L532.6,666.7L532.9,667.3Z" style="fill:rgb(46,51,53);fill-rule:nonzero;"/>
            <g transform="matrix(0.8637,-0.5041,0.5041,0.8637,-290.954,369.712)">
                <rect x="537.6" y="722.4" width="0.7" height="0.7" style="fill:rgb(46,51,53);"/>
            </g>
            <path d="M536.3,670.2L537.5,673.6L538.3,672.3L536.9,669.9L536.3,670.2Z" style="fill:rgb(46,51,53);fill-rule:nonzero;"/>
            <path d="M575,667.2L574,666.9L573,670.7L570.8,665.5L570.2,665.9L568.6,666L572.1,672.1L573.7,676.1L578.6,678.9L579,675.4L578.5,673.2L577.2,676.5L575.4,673.4L575.9,671.5L575,667.2Z" style="fill:rgb(46,51,53);fill-rule:nonzero;"/>
            <path d="M531.6,660.7L532.4,661.1L532.3,662L532.6,662.6L533.2,662.2L532.2,660.4L531.6,660.7Z" style="fill:rgb(46,51,53);fill-rule:nonzero;"/>
            <path d="M564,707.9L563.6,707.3L562.7,708.6L564,707.9Z" style="fill:rgb(46,51,53);fill-rule:nonzero;"/>
            <path d="M560.5,653.6L560.8,652.6L560.7,651L559.8,652.4L560.5,653.6Z" style="fill:rgb(46,51,53);fill-rule:nonzero;"/>
            <path d="M588.7,689.3L587.5,690L588.1,691C588.4,690.6 588.7,690.2 589,689.8L588.7,689.3Z" style="fill:rgb(46,51,53);fill-rule:nonzero;"/>
            <path d="M556.4,693.6L557,693.2L555.7,692.3L556.4,693.6Z" style="fill:rgb(46,51,53);fill-rule:nonzero;"/>
            <path d="M559.8,696.5L558.8,696.2L559.1,696.8L559.8,696.5Z" style="fill:rgb(46,51,53);fill-rule:nonzero;"/>
            <g transform="matrix(0.8638,-0.5039,0.5039,0.8638,-255.788,377.228)">
                <rect x="568.7" y="660.6" width="2.1" height="2.1" style="fill:rgb(46,51,53);"/>
            </g>
            <path d="M573.4,686.8L573.8,687.4L574.6,686.1L573.6,684.3L573.4,686.8Z" style="fill:rgb(46,51,53);fill-rule:nonzero;"/>
            <g transform="matrix(0.8637,-0.504,0.504,0.8637,-266.044,380.908)">
                <rect x="570.9" y="680.9" width="0.7" height="2.8" style="fill:rgb(46,51,53);"/>
            </g>
            <path d="M578.4,685.5L579.3,685.8L578.6,684.6L578,684.9L578.4,685.5Z" style="fill:rgb(46,51,53);fill-rule:nonzero;"/>
            <path d="M585.2,688.9L583.8,686.5L582.8,686.2L582.9,687.8L584.4,690.2L585.2,688.9Z" style="fill:rgb(46,51,53);fill-rule:nonzero;"/>
            <g transform="matrix(0.8637,-0.5041,0.5041,0.8637,-262.952,385.14)">
                <rect x="580.1" y="678" width="0.7" height="1.4" style="fill:rgb(46,51,53);"/>
            </g>
            <path d="M504.9,687.7L505.4,685.8L504,683.4L501.6,684.8L504.3,688.1L504.9,687.7Z" style="fill:rgb(46,51,53);fill-rule:nonzero;"/>
            <path d="M423.8,435.2L424,434.4L423.6,434.3L423.1,434.2L423.8,435.2Z" style="fill:rgb(46,51,53);fill-rule:nonzero;"/>
            <path d="M415.4,261.1L414.1,259.8L410.8,257.9L410.8,261.2L412.8,261.2L415.3,263L415.5,263L415.4,261.1Z" style="fill:rgb(46,51,53);fill-rule:nonzero;"/>
            <path d="M388.9,385.5L390.5,384.8L388.6,384.1L388,385.7C388.3,385.6 388.6,385.6 388.9,385.5Z" style="fill:rgb(46,51,53);fill-rule:nonzero;"/>
            <path d="M440.7,359.4C440.7,359.4 448.9,346 452.3,334.7C452.3,334.5 452.4,334.4 452.4,334.2L450.9,335.1C451.8,333.9 452.2,332.6 453,331.1C453.1,330.3 453.2,329.6 453.4,328.9C454.9,315.4 450.9,304.8 450.9,304.8C440.9,272.4 415.3,263 415.3,263C414.1,262.9 412.8,262.9 411.6,262.8L407,259.3L404.4,258.7L402.4,258.7L399.1,256.8L399.1,253.5L401.7,255.4L402.4,256.7L404.4,256.7L404.4,256.1L406.4,256.1L406.4,254.8L397,251L393.8,253.7L392.5,254.4L393.9,257L389.3,258.4L389.3,257.1L391.3,256.4L391.9,253.8L388.6,253.2L387.3,253.9L371,258.1L369.7,256.8L368.4,259.4L365.8,258.1L364.5,261.4L363.2,261.4L361.9,263.4L358,263.5L351.5,266.9L350.8,266.3L348.2,265L349.6,267.6L352.9,268.2L352.3,268.9L350.3,268.9L348.4,270.2L348.4,272.2L351.6,270.2L352.9,270.2L354.8,268.2L355.4,266.9L358,267.5L359.3,266.2L361.9,264.8L363.2,262.8L365.2,264.1L367.2,264.1L367.2,264.7L365.2,265.4L362.6,267.4L356.1,269.5L344.5,277.5L336.8,285.5L332.9,288.2L331.1,297.4L330.5,298.1L330.5,296.1L331.1,293.5L331.1,290.9L329.8,292.2L325.3,298.8L323.4,304.1L323.5,313.2L322.2,314.5L323.5,315.8L322.3,321.7L322.4,330.8L323.1,332.8L323.7,332.1L324.8,317.1L325.4,315.8L325.4,313.8L328.6,310.5L328.7,315.7L326.1,316.4L325.5,318.4L326.9,321L326.3,321.7L325,320.4L326.5,329.5L325.3,338L327.2,347.2C327.1,347.8 327,348.5 327,349.2C327,351.8 327.1,354.3 327.2,356.9L327.2,360.2C327.2,360.8 327.3,361.3 327.4,361.8C327.3,363 327.2,364.3 327.1,365.5C327.1,366.1 327,366.8 327,367.5C327,368.4 327.1,369.3 327.4,370L327.4,370.4C327.4,370.6 327.4,370.9 327.5,371.1L327.5,372.6L327.4,374.8C327.3,375.5 327.3,376.3 327.2,377L327.2,378.8C327.1,379.5 327.2,380.2 327.3,380.9C327.3,381.3 327.2,381.7 327.2,382.1L327.2,383.2L333.9,383.2L333.9,383C334.3,383.1 334.6,383.1 335,383.2L342.2,383.2C342.2,383.2 339,384.7 338.4,385.1C338.2,385.2 337.6,385.6 336.9,386C337,386.1 337.2,386.3 337.3,386.4L337.8,386.4C338.8,386.4 339.5,386.9 339.9,387.5L345.3,388.2C345.4,387.7 345.6,387.2 345.8,387C346.1,386.7 348.2,387 349,387C349.8,387 350.7,387.9 350.8,388.5L350.8,388.7C352,388.4 354.4,387.7 354.8,387.5C355.3,387.1 359.8,387.1 359.8,387.1C364.8,386.7 362.2,388.5 361.6,388.7C361,388.9 359.1,388.6 358.7,388.5C358.4,388.4 356.1,389 354.3,389.4L355.8,389.6L356.6,391.3L358.8,389.3L360.8,391.5L363.3,388.8L364.6,389.3L366.6,387.9L370.4,389.4L377.9,388.7L378.3,389.6L380.3,391.8L380,388.8L377.1,387L378,386.6L379.9,387.3L382.3,386.8L383,384.9L379.1,385.6L377.8,385.1L375.2,386.3L374.1,387.3L371.8,385.7L370.1,386.5L367.1,386.8L365.1,388.2L363.7,386.2L361.8,385.5L362,384.9L364.1,385L367.3,384.1L374.3,384.6L376.3,384.1C378.4,384.2 380.4,384 382.4,383.8C385.8,384.1 389,384 392.4,383.8L391.6,384.8L391.9,384.9C392.2,384.7 392.5,384.5 392.8,384.3C407.9,382.6 427.2,377 440.7,359.4ZM328.5,307.6L328.5,308.2L327.2,306.3L329.1,299.7L330.4,299.7L328.5,307.6ZM351.1,385.9L350.9,386.5L343.9,384L344.3,387L338.8,386.4L339,385.8L340.7,385L342,383.3L351.8,384L352.4,384.2L356,384.1L357.5,383.9L358.3,385.6L351.1,385.9ZM385.9,257L385.3,259L376.2,261.8L375.6,261.8L372.4,263.2L371.1,263.9L369.8,262.6L376.3,259.9L376.3,259.3L383.5,259.2L382.1,256.6L387.3,255.2L387.3,255.8L385.9,257Z" style="fill:rgb(46,51,53);fill-rule:nonzero;"/>
            <path d="M361.6,396.1L363.4,396.8C363.7,396.9 363.9,396.9 364.2,396.9L365.1,394.5L362.1,394.8L361.6,396.1Z" style="fill:rgb(46,51,53);fill-rule:nonzero;"/>
            <path d="M356.6,456.4L357.4,458.3L359.4,459.6L360,459.4L359.5,458.2L358.6,457.8L356.6,456.4Z" style="fill:rgb(46,51,53);fill-rule:nonzero;"/>
            <path d="M455.2,608L455.9,610.3L457.6,613.3L457.9,610.9L455.2,608Z" style="fill:rgb(46,51,53);fill-rule:nonzero;"/>
            <path d="M459,614.5L458.7,614L457.2,613.9C457.5,614.3 457.7,614.7 458,615.1L459,614.5Z" style="fill:rgb(46,51,53);fill-rule:nonzero;"/>
            <path d="M490.6,655.4C490.5,652.8 489,650.3 488.4,648.1L486.4,649.3L490.4,656.3L490.6,655.4Z" style="fill:rgb(46,51,53);fill-rule:nonzero;"/>
            <path d="M485.5,523L484.5,521.2L483.5,520.7L483.8,523C484.1,523.5 484.4,524.1 484.7,524.7L485.5,523Z" style="fill:rgb(46,51,53);fill-rule:nonzero;"/>
            <path d="M449.4,601.4L451.1,604.4L452,603.9C451.6,602.8 451.2,601.7 450.7,600.7L449.4,601.4Z" style="fill:rgb(46,51,53);fill-rule:nonzero;"/>
            <path d="M349.8,396.8C350.2,396.9 350.6,397 351.1,397L349.9,396.5L349.8,396.8Z" style="fill:rgb(46,51,53);fill-rule:nonzero;"/>
            <path d="M452.8,476.7C452.6,476.5 452.4,476.2 452.2,476C452.1,475.9 452,475.8 451.9,475.6L452.7,477L452.8,476.7Z" style="fill:rgb(46,51,53);fill-rule:nonzero;"/>
            <path d="M371.2,236.3L371.8,233L371.2,231.8L369.2,233.1L367.9,233.1L364,235.1L354.9,237.9L345.2,243.9L343.2,244.6L342.6,245.3L342.6,247.2L351.1,243.8L354.9,240.5L360.2,240.4L362.1,238.4L365.4,237.1L367.9,235.1L369.3,236.4L371.2,236.3Z" style="fill:rgb(46,51,53);fill-rule:nonzero;"/>
            <path d="M366.7,239L366.7,240.3L367.4,240.3L368,239.6L367.3,239L366.7,239Z" style="fill:rgb(46,51,53);fill-rule:nonzero;"/>
            <path d="M340.6,394.5C340.6,394.5 340.7,394.5 340.7,394.6L343.1,395.5L344.8,394.7L343.4,392.7L340.2,393.6L340.6,394.5Z" style="fill:rgb(46,51,53);fill-rule:nonzero;"/>
            <path d="M360.4,256.8L363,255.4L363,254.1L360.4,254.1L360.4,256.8Z" style="fill:rgb(46,51,53);fill-rule:nonzero;"/>
            <path d="M338.3,264.9L337,264.3L337,265.6L338.3,265.6L338.3,264.9Z" style="fill:rgb(46,51,53);fill-rule:nonzero;"/>
            <path d="M362.3,249.5L359.7,252.8L364.3,251.5L362.3,249.5Z" style="fill:rgb(46,51,53);fill-rule:nonzero;"/>
            <path d="M331.4,285.3L337.9,278.7L339.8,277.3L340.4,275.4L338.5,275.4L330.1,284L331.4,285.3Z" style="fill:rgb(46,51,53);fill-rule:nonzero;"/>
            <path d="M323.2,260.6L322.6,260.6L322.6,262.6L323.2,261.9L323.2,260.6Z" style="fill:rgb(46,51,53);fill-rule:nonzero;"/>
            <path d="M327.7,256.6L325.8,257.9L325.8,258.6L327.8,258.6L327.7,256.6Z" style="fill:rgb(46,51,53);fill-rule:nonzero;"/>
            <path d="M334.4,267.6L333.1,268.3L333.2,268.9L334.5,268.9L334.4,267.6Z" style="fill:rgb(46,51,53);fill-rule:nonzero;"/>
            <g transform="matrix(0.9999,-0.0152997,0.0152997,0.9999,-4.111,5.1246)">
                <rect x="332.5" y="270.9" width="0.7" height="0.7" style="fill:rgb(46,51,53);"/>
            </g>
            <path d="M488.9,661.7L489.9,661.1L489,659.6C488.5,659.9 488.8,660.4 488.3,660.7L486.9,658.2L487,656.1L484.7,652.1C484.1,651.1 484.1,649.8 483.5,648.8L481.9,651.7C483.3,654.2 485.1,657.2 486,660C486.6,661 487.9,662.2 488.5,663.2L488.9,661.7Z" style="fill:rgb(46,51,53);fill-rule:nonzero;"/>
            <path d="M510,683.9L509.8,684.9L510.5,686.1L512.3,685L510,683.9Z" style="fill:rgb(46,51,53);fill-rule:nonzero;"/>
            <g transform="matrix(0.8637,-0.504,0.504,0.8637,-280.623,351.612)">
                <rect x="509.1" y="693.9" width="1.4" height="1.4" style="fill:rgb(46,51,53);"/>
            </g>
            <path d="M509.3,686.8L507.4,682.2L507.6,681.2L507,681.6L506,679.8L503.4,678.7L507.3,686.3L509.3,686.8Z" style="fill:rgb(46,51,53);fill-rule:nonzero;"/>
            <path d="M511.1,563.6L510.1,562.6L513,567.6L514.1,566.5L511.1,563.6Z" style="fill:rgb(46,51,53);fill-rule:nonzero;"/>
            <path d="M512.8,683.1L513.4,682.8L512,680.3L511,680.1L512.8,683.1Z" style="fill:rgb(46,51,53);fill-rule:nonzero;"/>
            <path d="M358.9,242.4L358.9,244.4L360.2,243.7L360.2,242.4L358.9,242.4Z" style="fill:rgb(46,51,53);fill-rule:nonzero;"/>
            <path d="M513.4,692.5L511.3,688.9L511,689.9L512.5,692.3L513.4,692.5Z" style="fill:rgb(46,51,53);fill-rule:nonzero;"/>
            <path d="M527.3,596.1L526.7,595.8L526.3,596.5L527.2,598.1L527.3,596.1Z" style="fill:rgb(46,51,53);fill-rule:nonzero;"/>
            <path d="M502,681.3L501.8,680.9L501.5,681.1C501.6,681.3 501.6,681.4 501.7,681.5L502,681.3Z" style="fill:rgb(46,51,53);fill-rule:nonzero;"/>
            <path d="M524.7,671.3L526.3,671.2L526.5,670.2L526.2,668.1L524.9,667.4C524.3,666.4 523.2,665.7 522.7,664.7L521.7,664.4L521.5,665.7L525.1,667.7L524.7,671.3Z" style="fill:rgb(46,51,53);fill-rule:nonzero;"/>
            <path d="M504,554.4L503.8,551.4L500.8,545.9L500.3,548.3L501.7,551.6L501.7,551.9L504,554.4Z" style="fill:rgb(46,51,53);fill-rule:nonzero;"/>
            <path d="M526.4,721.7L527.6,721L526.8,718.2L524.7,716.1L523,713.1L523.4,715.2L526.4,721.7Z" style="fill:rgb(46,51,53);fill-rule:nonzero;"/>
            <path d="M472.3,503.3C472.8,502.2 472.8,500.9 473.4,499.9L469.8,500L472.3,503.3Z" style="fill:rgb(46,51,53);fill-rule:nonzero;"/>
            <path d="M473.1,508.6L473.1,509L475.2,512.5L475.4,512.4L474.2,509.4L473.1,508.6Z" style="fill:rgb(46,51,53);fill-rule:nonzero;"/>
            <path d="M473.1,507.2L474.8,507.1L475.3,506.1L475.3,504.8L473.1,505.2L473.1,507.2Z" style="fill:rgb(46,51,53);fill-rule:nonzero;"/>
            <path d="M472.3,630.7L470.5,631.1C469.4,629.1 468.4,626.3 467.3,624.3L464.4,619.4L463.3,618.6L462.6,616.3L461,614.7L460.5,615L465.1,623L468.8,632.8L468.1,632.6C468.4,633.1 468.6,633.6 468.9,634.1L470.9,633L471.8,634.5L471.4,636.1L472.5,638.1L473.5,637.5C473.2,637 473.1,635.7 472.9,635.2L473.8,633.3L472.3,630.7Z" style="fill:rgb(46,51,53);fill-rule:nonzero;"/>
            <path d="M482,519.3C481,517.7 480.1,516.1 479.1,514.5L477.1,513.5L478.2,515.4L479.3,516.1L481.6,519.3L482,519.3Z" style="fill:rgb(46,51,53);fill-rule:nonzero;"/>
            <path d="M486.4,645.9C486.2,645.5 486.1,644.7 485.9,644.1L485,643.1L484.6,642.9L483.1,643.8L486.4,645.9Z" style="fill:rgb(46,51,53);fill-rule:nonzero;"/>
            <path d="M520.6,580.2L519.6,583.2C519.7,583.4 519.7,583.5 519.8,583.7L522,584.9L521.5,580.8L520.6,580.2Z" style="fill:rgb(46,51,53);fill-rule:nonzero;"/>
            <path d="M478.4,650.5L478.9,650.2L478,648.7L477.3,648.7C477.7,649.3 478,649.9 478.4,650.5Z" style="fill:rgb(46,51,53);fill-rule:nonzero;"/>
            <path d="M496.4,545.6L497,544.6L495.7,543.3L495.3,544L496.5,545L496.2,545.5L496.4,545.6Z" style="fill:rgb(46,51,53);fill-rule:nonzero;"/>
            <path d="M514.3,571.1L513.6,570.2L513.6,572.1L513.4,572.6L513.5,572.7L514.3,571.1Z" style="fill:rgb(46,51,53);fill-rule:nonzero;"/>
            <path d="M487.7,663.1L487,662.8C487.2,663 487.4,663.2 487.6,663.4L487.7,663.1Z" style="fill:rgb(46,51,53);fill-rule:nonzero;"/>
            <path d="M480.9,649C480.6,648.5 480.8,647.7 480.5,647.2L480.2,646.7L478.9,642.1L479.8,640.2C478.5,638 477.5,635.9 476.6,633.7L475.2,632.1C476.2,634 477.3,636 477.9,637.9L476.9,638.5L474.6,634.5L473.6,635.1L474.9,639.7L479.2,647.2C479.6,647.8 480.6,648.5 480.9,649Z" style="fill:rgb(46,51,53);fill-rule:nonzero;"/>
            <path d="M471.2,401.7L470.6,401.8L470.9,403.2L471.3,402.4L471.2,401.7Z" style="fill:rgb(46,51,53);fill-rule:nonzero;"/>
            <path d="M273.2,470.9L272.7,470.9L272.5,482.9L273.2,477.7L273.2,470.9Z" style="fill:rgb(46,51,53);fill-rule:nonzero;"/>
            <path d="M266.5,509.2L267,510.4L268.8,506.4L267.1,504.6L266.5,509.2Z" style="fill:rgb(46,51,53);fill-rule:nonzero;"/>
            <path d="M272.4,491.5L273,490.9L273,486.9L272.5,486.9L272.4,491.5Z" style="fill:rgb(46,51,53);fill-rule:nonzero;"/>
            <path d="M269.9,462.2L269.3,460.5L268.1,468.5L269.3,467.4L269.9,462.2Z" style="fill:rgb(46,51,53);fill-rule:nonzero;"/>
            <path d="M279.2,456L277.4,457.1L275.7,454.8L275.2,452.5L274.6,451.9L273.4,458.2L271.1,457.1L271.1,459.4L272.2,460.5L272.2,464L272.7,464L274.5,460.5L275.7,460.6L274.5,462.8L274.4,467.4L275,466.9L275.6,465.1L275.6,467.4L276.7,466.9L277.4,461.2L279.1,460L279.2,456Z" style="fill:rgb(46,51,53);fill-rule:nonzero;"/>
            <path d="M271.8,494.4L272.4,495.5L272.4,493.2L271.8,493.2L271.8,494.4Z" style="fill:rgb(46,51,53);fill-rule:nonzero;"/>
            <path d="M277.1,482.4L277.7,481.2L277.1,480.7L277.1,482.4Z" style="fill:rgb(46,51,53);fill-rule:nonzero;"/>
            <g transform="matrix(0.0118004,-0.9999,0.9999,0.0118004,-189.542,744.981)">
                <rect x="281.9" y="468.1" width="0.6" height="0.6" style="fill:rgb(46,51,53);"/>
            </g>
            <path d="M283.4,482.5L284,481.3L284.1,475L283.5,475.6L283.4,482.5Z" style="fill:rgb(46,51,53);fill-rule:nonzero;"/>
            <path d="M285.4,319.5L285.4,317.8L283.7,318.9L285.4,319.5Z" style="fill:rgb(46,51,53);fill-rule:nonzero;"/>
            <path d="M282.7,541.6L283.3,541L284.5,534.7L282.8,532.9L281.6,538.1L281,538.7L281.6,539.2L282.7,541.6Z" style="fill:rgb(46,51,53);fill-rule:nonzero;"/>
            <path d="M280.9,506L279.7,504.8L279.7,507.7L280.8,507.7L280.2,516.3L280.7,518.6L281.3,518L283.1,511.1L283,516.9L284.2,515.7L284.3,502L283.8,502L283.2,504.8L281.4,504.8L280.9,506Z" style="fill:rgb(46,51,53);fill-rule:nonzero;"/>
            <g transform="matrix(0.0118004,-0.9999,0.9999,0.0118004,-244.654,797.055)">
                <rect x="280.6" y="522" width="0.6" height="0.6" style="fill:rgb(46,51,53);"/>
            </g>
            <path d="M271.9,441.6L273.7,432.4L272.5,432.4L272.6,430.7L273.2,426.7L271.5,425.5L270.9,425.5L270.9,427.2L271.4,428.4L270.8,435.3L269,437.5L269,443.8L269.6,442.7L270.2,439.3L270.7,441.6L271.9,441.6Z" style="fill:rgb(46,51,53);fill-rule:nonzero;"/>
            <path d="M278.8,484.1L278.8,486.4L280,485.3L278.8,484.1Z" style="fill:rgb(46,51,53);fill-rule:nonzero;"/>
            <path d="M269.6,491.5L269.5,493.2L270.7,492.6L269.6,491.5Z" style="fill:rgb(46,51,53);fill-rule:nonzero;"/>
            <path d="M281.1,439.4L280.5,440L280.5,441.7L281,441.7L281.1,439.4Z" style="fill:rgb(46,51,53);fill-rule:nonzero;"/>
            <path d="M269.8,426.1L268.6,426L268,432.3L266.2,435.2L266.2,435.8L266.8,435.8L269.7,432.9L269.8,426.1Z" style="fill:rgb(46,51,53);fill-rule:nonzero;"/>
            <path d="M280.5,491L279.3,489.9L279.3,491.6L279.9,492.2L280.5,491Z" style="fill:rgb(46,51,53);fill-rule:nonzero;"/>
            <g transform="matrix(0.0118004,-0.9999,0.9999,0.0118004,-155.417,686.823)">
                <rect x="268.6" y="421.5" width="2.3" height="1.1" style="fill:rgb(46,51,53);"/>
            </g>
            <path d="M266,453L267.2,450.1L266,449.5L266,453Z" style="fill:rgb(46,51,53);fill-rule:nonzero;"/>
            <path d="M269.6,484.6L270.2,484L269.7,481.1L269.6,484.6Z" style="fill:rgb(46,51,53);fill-rule:nonzero;"/>
            <path d="M268.9,449L268.8,455.3L270,449.6L268.9,449Z" style="fill:rgb(46,51,53);fill-rule:nonzero;"/>
            <path d="M270.6,498.4L270.6,496.7L269.5,495.5L268.9,497.8L269.5,499.5L270.6,498.4Z" style="fill:rgb(46,51,53);fill-rule:nonzero;"/>
            <path d="M270.9,375.6L269.2,376.1L269.2,378.4L270.9,378.4L272.5,386.5L271.3,392.2L271.8,395.1L271.8,399.1L270.6,399.7L270.5,408.9L271.1,408.9L272.9,406.6L272.8,409.5L273.4,411.2L274,406.6L273.6,395.7L272.4,392.8L273.6,391.1L273.7,380.8L272.1,372.1L271,372.1L270.9,375.6Z" style="fill:rgb(46,51,53);fill-rule:nonzero;"/>
            <path d="M272.4,447.3L272.3,450.8L272.9,450.8L274.7,447.9L275.2,447.9L276.9,450.8L278.1,449.7L280.4,444.5L278.2,441.1L278.5,415.8L279.7,412.4L279.7,406.7L280.9,404.4L280.9,403.8L278.6,402.6L277.5,401.5L278.7,397.5L277.1,391.1L276.4,394L277,397.5L276.3,407.2L277.4,409.5L277.2,431.3L275.9,439.3L275.8,446.8L275.2,446.8L275.4,435.9L274.8,435.3L272.4,447.3Z" style="fill:rgb(46,51,53);fill-rule:nonzero;"/>
            <g transform="matrix(0.0112004,-0.9999,0.9999,0.0112004,-142.686,685.599)">
                <rect x="275" y="414.7" width="0.6" height="0.6" style="fill:rgb(46,51,53);"/>
            </g>
            <path d="M280.7,425.6L280.1,425L279.5,425.6L279.5,426.7L280.1,427.3L280.6,426.8L280.7,425.6Z" style="fill:rgb(46,51,53);fill-rule:nonzero;"/>
            <path d="M277.6,389.4L278.2,389.4L277.7,388.9L277.6,389.4Z" style="fill:rgb(46,51,53);fill-rule:nonzero;"/>
            <path d="M276.7,369.3L276.2,368.8L276.2,369.9L276.7,369.9L276.7,369.3Z" style="fill:rgb(46,51,53);fill-rule:nonzero;"/>
            <path d="M272.3,356.7L272.3,354.9L271.7,355.5L272.3,356.7Z" style="fill:rgb(46,51,53);fill-rule:nonzero;"/>
            <path d="M277.7,383.1L277.7,383.7L278.3,383.7L277.7,383.1Z" style="fill:rgb(46,51,53);fill-rule:nonzero;"/>
            <path d="M261.5,277L260.8,277.1L261,278.2L261.6,277.7L261.5,277Z" style="fill:rgb(46,51,53);fill-rule:nonzero;"/>
            <path d="M264.3,403L264.1,416.8L262.9,422L264.7,420.8L264.7,419.1L266.4,418L266.4,416.3L264.7,412.8L267.1,404.8L264.9,403L264.3,403Z" style="fill:rgb(46,51,53);fill-rule:nonzero;"/>
            <path d="M265.1,383L265.7,381.8L265.1,381.2L265.1,383Z" style="fill:rgb(46,51,53);fill-rule:nonzero;"/>
            <g transform="matrix(0.0118004,-0.9999,0.9999,0.0118004,-55.6573,594.472)">
                <rect x="270.9" y="324.5" width="4" height="1.7" style="fill:rgb(46,51,53);"/>
            </g>
            <path d="M273.3,372.2L273.8,372.2L273.9,369.9L273.3,369.3L273.3,372.2Z" style="fill:rgb(46,51,53);fill-rule:nonzero;"/>
            <g transform="matrix(0.0118004,-0.9999,0.9999,0.0118004,-47.3977,611.159)">
                <rect x="285.2" y="329.3" width="0.6" height="0.6" style="fill:rgb(46,51,53);"/>
            </g>
            <path d="M287.1,413.1L286.6,412.5L286.5,414.2L287.1,414.8L287.1,413.1Z" style="fill:rgb(46,51,53);fill-rule:nonzero;"/>
            <path d="M285.2,383.8L285.1,388.4L287.5,385L286.9,383.8L285.2,383.8Z" style="fill:rgb(46,51,53);fill-rule:nonzero;"/>
            <path d="M286.7,403.3L285.5,402.7L285.5,404.4L286.6,406.2L286.7,403.3Z" style="fill:rgb(46,51,53);fill-rule:nonzero;"/>
            <g transform="matrix(0.0118004,-0.9999,0.9999,0.0118004,-51.189,615.947)">
                <rect x="284.9" y="333.6" width="2.3" height="0.6" style="fill:rgb(46,51,53);"/>
            </g>
            <path d="M282.7,445.1L282.7,450.9L283.8,450.9L284.4,448L284.5,438.9L283.9,438.9L282.8,441.1L282.2,442.8L282.7,445.1Z" style="fill:rgb(46,51,53);fill-rule:nonzero;"/>
            <path d="M283.7,315.5L285.4,316.1L285.4,314.9L283.7,314.9L283.7,315.5Z" style="fill:rgb(46,51,53);fill-rule:nonzero;"/>
            <path d="M285.6,395.3L285.6,398.7L288.5,395.9L285.6,395.3Z" style="fill:rgb(46,51,53);fill-rule:nonzero;"/>
            <g transform="matrix(0.0118004,-0.9999,0.9999,0.0118004,-41.4947,599.858)">
                <rect x="282.5" y="320.6" width="0.6" height="0.6" style="fill:rgb(46,51,53);"/>
            </g>
            <path d="M284.2,421.1L287,420.5L287.1,417.1L285.3,419.4L284.8,417.1L284.2,416.5L284.2,421.1Z" style="fill:rgb(46,51,53);fill-rule:nonzero;"/>
            <path d="M288.2,518.1L287.6,517.5L287.5,522.7L288.1,522.1L288.2,518.1Z" style="fill:rgb(46,51,53);fill-rule:nonzero;"/>
            <path d="M284.2,414.2L284.2,415.3L284.8,414.8L284.2,414.2Z" style="fill:rgb(46,51,53);fill-rule:nonzero;"/>
            <path d="M260.4,392.1L262.1,390.4L262.2,389.2L260.4,389.2L260.4,392.1Z" style="fill:rgb(46,51,53);fill-rule:nonzero;"/>
            <g transform="matrix(0.0118004,-0.9999,0.9999,0.0118004,-259.055,836.731)">
                <rect x="292.9" y="549.1" width="1.7" height="0.6" style="fill:rgb(46,51,53);"/>
            </g>
            <path d="M291.2,406.8L291.8,407.4L291.8,404.5L291.2,405.1L291.2,406.8Z" style="fill:rgb(46,51,53);fill-rule:nonzero;"/>
            <path d="M291.3,402.2L291.8,402.2L291.9,401.6L291.3,401.1L291.3,402.2Z" style="fill:rgb(46,51,53);fill-rule:nonzero;"/>
            <path d="M291.1,418.9L292.2,420.6L292.2,416.6L291.7,414.8L291.7,410.8L291.2,410.8L290,413.1L289.4,416L289.4,418.3L290,416L291.1,418.9Z" style="fill:rgb(46,51,53);fill-rule:nonzero;"/>
            <path d="M288.5,487.7L288.5,491.7L289.1,491.1L289.1,487.7L288.5,487.7Z" style="fill:rgb(46,51,53);fill-rule:nonzero;"/>
            <path d="M292,389L289.7,390.1L289.7,391.3L293.1,390.8L292,389Z" style="fill:rgb(46,51,53);fill-rule:nonzero;"/>
            <path d="M292,392.5L291.4,392.5L291.3,399.3L291.9,398.8L292,392.5Z" style="fill:rgb(46,51,53);fill-rule:nonzero;"/>
            <path d="M288,385.5L288,387.3L289.2,386.7L288,385.5Z" style="fill:rgb(46,51,53);fill-rule:nonzero;"/>
            <path d="M288.1,333.3L289.3,328.7L288.1,327.6L288.1,333.3Z" style="fill:rgb(46,51,53);fill-rule:nonzero;"/>
            <path d="M288.6,484.2L289.1,484.2L289.2,480.8L288.6,479.1L288.6,484.2Z" style="fill:rgb(46,51,53);fill-rule:nonzero;"/>
            <path d="M288.2,372.3L288.2,373.5L289.3,372.4L288.2,372.3Z" style="fill:rgb(46,51,53);fill-rule:nonzero;"/>
            <path d="M287.7,360.3L287.1,364.3L287.1,366.6L288.8,366.6L290.6,363.2L287.7,360.3Z" style="fill:rgb(46,51,53);fill-rule:nonzero;"/>
            <path d="M257.6,283.2L258,282.4L257.9,281.7L257.3,282.2L257.6,283.2Z" style="fill:rgb(46,51,53);fill-rule:nonzero;"/>
            <g transform="matrix(0.0118004,-0.9999,0.9999,0.0118004,-201.242,777.573)">
                <rect x="292.2" y="490.3" width="1.1" height="0.6" style="fill:rgb(46,51,53);"/>
            </g>
            <path d="M295.2,553.8L296.3,556.1L296.4,552.7L295.4,552.8L295.2,553.8Z" style="fill:rgb(46,51,53);fill-rule:nonzero;"/>
            <g transform="matrix(0.0118004,-0.9999,0.9999,0.0118004,-184.987,777.578)">
                <rect x="300.6" y="481.5" width="0.6" height="1.7" style="fill:rgb(46,51,53);"/>
            </g>
            <path d="M317.3,479.4L317.3,478.3L316.8,478.3L316.7,480L317.3,479.4Z" style="fill:rgb(46,51,53);fill-rule:nonzero;"/>
            <path d="M321.6,459.4L321.6,461.7L322.1,460L321.6,459.4Z" style="fill:rgb(46,51,53);fill-rule:nonzero;"/>
            <path d="M297.3,472.9L297.9,472.3L298,466.6L297.4,467.7L297.3,472.9Z" style="fill:rgb(46,51,53);fill-rule:nonzero;"/>
            <path d="M299.2,553.2L299.2,559.5L298.6,560.7L298.5,565.3L302,559.6L302.1,551L301,548.1L299.2,553.2Z" style="fill:rgb(46,51,53);fill-rule:nonzero;"/>
            <path d="M296.4,551.5L297,548.6L296.4,547.5L295.6,551.6L296.4,551.5Z" style="fill:rgb(46,51,53);fill-rule:nonzero;"/>
            <path d="M304.7,531.5L303.9,548.1L303.2,553.3L303.1,563L304.9,559.6L305.6,552.7L307.9,547.6L308,539L305.7,536.7L305.8,533.2L304.7,531.5Z" style="fill:rgb(46,51,53);fill-rule:nonzero;"/>
            <path d="M297.6,546.3L298.8,545.2L297.6,544L297.6,546.3Z" style="fill:rgb(46,51,53);fill-rule:nonzero;"/>
            <path d="M302.9,538.3L302.3,536.6L301.7,541.2L301.6,546.4L302.8,546.4L302.9,538.3Z" style="fill:rgb(46,51,53);fill-rule:nonzero;"/>
            <path d="M263.9,437.5L263.9,432.3L263.4,432.3L262.1,438.6L263.9,437.5Z" style="fill:rgb(46,51,53);fill-rule:nonzero;"/>
            <path d="M287.8,553.7L288.5,541.6L287.9,541.6L285.5,553.1L286,554.8L287.8,553.7Z" style="fill:rgb(46,51,53);fill-rule:nonzero;"/>
            <path d="M266.2,383.6L266.2,385.3L266.8,385.3L268,384.1L266.8,383.6L266.2,383.6Z" style="fill:rgb(46,51,53);fill-rule:nonzero;"/>
            <path d="M267,318.1L267,318.7L267.6,318.7L267,318.1Z" style="fill:rgb(46,51,53);fill-rule:nonzero;"/>
            <path d="M268.2,338.2L269.1,338.2L269.1,336.5L268.1,336.5C268.1,337.1 268.1,337.7 268.2,338.2Z" style="fill:rgb(46,51,53);fill-rule:nonzero;"/>
            <g transform="matrix(0.0118004,-0.9999,0.9999,0.0118004,-111.195,637.977)">
                <rect x="266.9" y="375" width="0.6" height="0.6" style="fill:rgb(46,51,53);"/>
            </g>
            <path d="M267.4,381.8L268,381.3L267.4,380.7L267.4,381.8Z" style="fill:rgb(46,51,53);fill-rule:nonzero;"/>
            <g transform="matrix(0.0118004,-0.9999,0.9999,0.0118004,-137.351,665.462)">
                <rect x="267.7" y="401.9" width="0.6" height="0.6" style="fill:rgb(46,51,53);"/>
            </g>
            <path d="M280.7,423.3L281.3,422.8L280.7,421.6L280.7,423.3Z" style="fill:rgb(46,51,53);fill-rule:nonzero;"/>
            <path d="M268.6,329.6L269.2,329.1L269.2,327.9L268.6,327.9L268.6,329.6Z" style="fill:rgb(46,51,53);fill-rule:nonzero;"/>
            <path d="M464.6,320.1L465.8,319.9C465.5,318.2 465.7,316.3 465.4,314.5L464.6,320.1Z" style="fill:rgb(46,51,53);fill-rule:nonzero;"/>
            <path d="M269.3,369.8L269.3,371.5L269.8,371.5L270.4,371L269.8,369.8L269.3,369.8Z" style="fill:rgb(46,51,53);fill-rule:nonzero;"/>
            <path d="M268.4,350.3L268.9,352.6L270.1,352.6L268.9,349.7L268.4,350.3Z" style="fill:rgb(46,51,53);fill-rule:nonzero;"/>
            <path d="M267,321.6L267.6,321.6L267.6,321L267,320.4L267,321.6Z" style="fill:rgb(46,51,53);fill-rule:nonzero;"/>
            <path d="M263.2,496L267.9,485.1L268,477.7L266.9,476.5L266.2,481.1L265.1,481.1L263.9,485.1L262,496.5L260.3,498.2L260.2,508.6L263.1,502.9L263.2,496Z" style="fill:rgb(46,51,53);fill-rule:nonzero;"/>
            <path d="M263.4,528.1L264.5,532.7L266.2,530.5L266.4,517.8L263.5,520.1L263.4,528.1Z" style="fill:rgb(46,51,53);fill-rule:nonzero;"/>
            <path d="M264.7,513.2L264.7,516.7L265.3,515.5L265.3,512.7L264.7,513.2Z" style="fill:rgb(46,51,53);fill-rule:nonzero;"/>
            <path d="M281.3,564.5L280.2,563.9L280.1,570.8L281.2,570.8L281.3,564.5Z" style="fill:rgb(46,51,53);fill-rule:nonzero;"/>
            <g transform="matrix(0.0118004,-0.9999,0.9999,0.0118004,-193.3,716.104)">
                <rect x="264.5" y="455.6" width="2.3" height="0.6" style="fill:rgb(46,51,53);"/>
            </g>
            <path d="M285.3,518.6L283,518.6L282.9,531.2L284,529.5L285.8,526.1L285.3,518.6Z" style="fill:rgb(46,51,53);fill-rule:nonzero;"/>
            <path d="M264.1,466.7L265.3,459.9L263,461L264.1,466.7Z" style="fill:rgb(46,51,53);fill-rule:nonzero;"/>
            <path d="M261.2,466.7L261.8,466.1L261.9,462.7L261.3,462.1L261.2,466.7Z" style="fill:rgb(46,51,53);fill-rule:nonzero;"/>
            <path d="M262.9,373.8L264.1,373.2L264.1,369.2L263,367.4L262.9,373.8Z" style="fill:rgb(46,51,53);fill-rule:nonzero;"/>
            <g transform="matrix(0.0120003,-0.9999,0.9999,0.0120003,-165.3,678.859)">
                <rect x="260.3" y="422.2" width="1.1" height="1.7" style="fill:rgb(46,51,53);"/>
            </g>
            <path d="M280.1,469.8L280.7,468.7L280.8,465.2L280.2,464.1L280.1,469.8Z" style="fill:rgb(46,51,53);fill-rule:nonzero;"/>
            <path d="M271.4,334.3L271.4,333.1L270.3,334.3L271.4,334.3Z" style="fill:rgb(46,51,53);fill-rule:nonzero;"/>
            <path d="M453.7,280.7C453.8,281.7 454,282.6 454.5,283.4C454.4,282.4 454.2,281.3 454.1,280.2L453.7,280.7Z" style="fill:rgb(46,51,53);fill-rule:nonzero;"/>
            <path d="M445.6,441L444.9,441.3L445.1,441.5L445.6,441Z" style="fill:rgb(46,51,53);fill-rule:nonzero;"/>
            <path d="M453.8,333.4L452.9,333.9C452.8,334.2 452.7,334.5 452.6,334.8C453.1,335.4 453.9,337.2 452.9,341.7C453.6,339.1 454.1,336.7 454.7,334.6L454.7,334.4L454.9,334.1C455,333.8 455,333.6 455.1,333.3C454.8,332.4 454.3,331.6 454,330.8C453.9,331.2 453.7,331.7 453.6,332.1L453.8,333.4Z" style="fill:rgb(46,51,53);fill-rule:nonzero;"/>
            <path d="M259.2,446.6L259.2,447.7L259.7,447.2L259.2,446.6Z" style="fill:rgb(46,51,53);fill-rule:nonzero;"/>
            <path d="M450.8,349.2C451.4,347.3 452,345.1 452.6,342.8C451.5,346.7 450.6,346.4 450.8,349.2Z" style="fill:rgb(46,51,53);fill-rule:nonzero;"/>
            <path d="M447.5,424.8L445.4,424.2L442.9,424.7L442.5,425.8L439.6,427.1L440.2,430.3L441.9,429.2L444.8,427.9L444.7,427.2L444,426.6L443.8,425.9L446.4,425.8L447.5,424.8Z" style="fill:rgb(46,51,53);fill-rule:nonzero;"/>
            <path d="M456,439.8L455.7,439.6L454.1,439.9L455.1,440.8L456,439.8Z" style="fill:rgb(46,51,53);fill-rule:nonzero;"/>
            <g transform="matrix(0.9809,-0.1944,0.1944,0.9809,-67.3402,95.8298)">
                <rect x="454.3" y="390.8" width="0.6" height="0.4" style="fill:rgb(46,51,53);"/>
            </g>
            <path d="M459.6,379.3L460.9,379.1L460.7,378.1L458.8,378.4L459.6,379.3Z" style="fill:rgb(46,51,53);fill-rule:nonzero;"/>
            <path d="M457.8,380.7L459.1,379.5L458.9,378.5L458.9,378.2C458.5,379 458.1,379.8 457.8,380.7Z" style="fill:rgb(46,51,53);fill-rule:nonzero;"/>
            <g transform="matrix(0.7034,-0.7107,0.7107,0.7034,-176.167,452.419)">
                <rect x="453.6" y="436.8" width="1" height="1" style="fill:rgb(46,51,53);"/>
            </g>
            <path d="M456.2,384.2L458.5,383.2L456.9,382.9C456.6,383.3 456.4,383.7 456.2,384.2Z" style="fill:rgb(46,51,53);fill-rule:nonzero;"/>
            <path d="M441.3,446.8L441,447.1L442.4,447.1L441.9,446.6L442.8,445.7C442.7,445.2 442.6,445 442.6,445L439.8,445.5L439.3,445.5L437.9,446.9L440.7,446.4L441.3,446.8Z" style="fill:rgb(46,51,53);fill-rule:nonzero;"/>
            <path d="M443.1,446.8L442.4,447.1C442.4,447.1 442.8,447.8 443.6,449.1C443.4,448.2 443.3,447.4 443.1,446.8Z" style="fill:rgb(46,51,53);fill-rule:nonzero;"/>
            <path d="M443.1,445.4L442.6,444.9C442.6,445 442.8,445.2 443.1,445.4Z" style="fill:rgb(46,51,53);fill-rule:nonzero;"/>
            <g transform="matrix(0.7033,-0.7109,0.7109,0.7033,-185.571,442.695)">
                <rect x="435.9" y="443.3" width="3.3" height="0.6" style="fill:rgb(46,51,53);"/>
            </g>
            <path d="M436.6,446.4L435.9,445.7L435.5,445.8L435.5,446.8L436.6,446.4Z" style="fill:rgb(46,51,53);fill-rule:nonzero;"/>
            <path d="M460,297.7L460.7,296.9L460.4,295.2L460,295.4C459.9,296.2 459.9,297 460,297.7Z" style="fill:rgb(46,51,53);fill-rule:nonzero;"/>
            <path d="M442.2,583.7C441.9,583.1 441.5,582.6 441.2,582C440.5,580.8 439.8,579.6 439.1,578.4L438.6,579.2L441.5,584.2L442.2,583.7Z" style="fill:rgb(46,51,53);fill-rule:nonzero;"/>
            <path d="M444.1,364.8C444.7,363.9 445.3,362.8 445.9,361.6C444.6,362.1 444.3,362.4 444.1,364.8Z" style="fill:rgb(46,51,53);fill-rule:nonzero;"/>
            <path d="M439.1,438.3L439.4,438.5L441.2,438.1L440.7,437.6L439.6,437.9L439.1,438.3Z" style="fill:rgb(46,51,53);fill-rule:nonzero;"/>
            <g transform="matrix(0.7033,-0.7109,0.7109,0.7033,-180.721,448.451)">
                <rect x="446.4" y="440.4" width="1" height="0.6" style="fill:rgb(46,51,53);"/>
            </g>
            <path d="M449.3,443.8L450,443.1L449.5,442.6L448.6,443.1L448.4,442.9L447.2,443.6L448.2,443.6L449.3,443.8Z" style="fill:rgb(46,51,53);fill-rule:nonzero;"/>
            <path d="M430.7,434.3L432.7,434.6L435.7,433.6L438.2,433.8C438.3,433.7 438.3,433.5 438.4,433.4L438.6,431.6L439.1,430.8L438.1,429.2L437.4,429L436.2,429.6L435.6,429.7L435.8,430.7L432.5,430.3L429.3,433.5L428.8,434.3L430.2,435.1L430.7,434.3Z" style="fill:rgb(46,51,53);fill-rule:nonzero;"/>
            <path d="M435.7,436.7L432.9,437.9L434.8,437.6L435.7,436.7Z" style="fill:rgb(46,51,53);fill-rule:nonzero;"/>
            <path d="M471.4,373.4L470.4,375.1L472.3,374.7L472,373.3L471.4,373.4Z" style="fill:rgb(46,51,53);fill-rule:nonzero;"/>
            <path d="M466.1,411.4L467.3,411.2L465.9,410.7L466.1,411.4Z" style="fill:rgb(46,51,53);fill-rule:nonzero;"/>
            <path d="M465.2,404L465.3,404.3L466.6,404.4L466.5,403.7L465.2,404Z" style="fill:rgb(46,51,53);fill-rule:nonzero;"/>
            <path d="M467.3,401.7L466.8,402.2L467,403.2L467.6,402.8L467.3,401.7Z" style="fill:rgb(46,51,53);fill-rule:nonzero;"/>
            <g transform="matrix(0.981,-0.1942,0.1942,0.981,-70.8743,98.1042)">
                <rect x="464.6" y="410.2" width="0.6" height="0.7" style="fill:rgb(46,51,53);"/>
            </g>
            <path d="M465.6,357.5L464.2,356.8C464.1,357.8 464,358.6 464,359.3L465.3,359L465.6,357.5Z" style="fill:rgb(46,51,53);fill-rule:nonzero;"/>
            <path d="M468.3,416L468.4,416.7L469.6,416.5L469.6,416.1L468.3,416Z" style="fill:rgb(46,51,53);fill-rule:nonzero;"/>
            <path d="M469.7,342.6L468,343.7L468.1,344L468.7,343.9L470.3,342.5L469.7,342.6Z" style="fill:rgb(46,51,53);fill-rule:nonzero;"/>
            <path d="M464.4,330.1L464.6,330.2L465.8,330L465.7,329.6L464.1,329.3C464.3,329.6 464.4,329.8 464.4,330.1Z" style="fill:rgb(46,51,53);fill-rule:nonzero;"/>
            <path d="M463.9,306.8L464.6,307L464.5,306.3L463.9,306.8Z" style="fill:rgb(46,51,53);fill-rule:nonzero;"/>
            <path d="M463.3,362.3L463.8,361.8L463.7,361.1L463.6,361.1C463.6,361.5 463.5,361.9 463.3,362.3Z" style="fill:rgb(46,51,53);fill-rule:nonzero;"/>
            <path d="M463.6,318.4C463.5,319 463.5,319.6 463.4,320.2L463.9,320.1L463.6,318.4Z" style="fill:rgb(46,51,53);fill-rule:nonzero;"/>
            <path d="M463.2,309.8L464.3,308.6L464,307.5L462.8,307.8L463.2,309.8Z" style="fill:rgb(46,51,53);fill-rule:nonzero;"/>
            <path d="M471.9,405.2L472.8,403.2L471.5,403.4L469.9,404.8L470.7,405.4L471.9,405.2Z" style="fill:rgb(46,51,53);fill-rule:nonzero;"/>
            <path d="M467.2,323.5L469.1,323.5L469.6,322.7L467.1,322.8L467.2,323.5Z" style="fill:rgb(46,51,53);fill-rule:nonzero;"/>
            <path d="M465.3,294.6C465.5,295.6 465.1,296.8 465.3,297.9L467,296.8L466.5,294L465.3,294.6Z" style="fill:rgb(46,51,53);fill-rule:nonzero;"/>
            <path d="M467.2,310.5L468,308.2L466.9,308.8L467.2,310.5Z" style="fill:rgb(46,51,53);fill-rule:nonzero;"/>
            <g transform="matrix(0.9809,-0.1946,0.1946,0.9809,-50.8723,96.7326)">
                <rect x="466.6" y="306.9" width="0.6" height="0.7" style="fill:rgb(46,51,53);"/>
            </g>
            <path d="M461.6,369.9L461.4,369C461.3,369.4 461.2,369.8 461.1,370.3L461.6,369.9Z" style="fill:rgb(46,51,53);fill-rule:nonzero;"/>
            <g transform="matrix(0.981,-0.194,0.194,0.981,-47.8412,95.8599)">
                <rect x="464.9" y="292" width="1.3" height="0.4" style="fill:rgb(46,51,53);"/>
            </g>
            <path d="M470,357L469.5,357.8L470.1,357.7L470,357Z" style="fill:rgb(46,51,53);fill-rule:nonzero;"/>
            <path d="M460,293.5L460.2,294.5L460.8,294.4L460.5,293L460,293.5Z" style="fill:rgb(46,51,53);fill-rule:nonzero;"/>
            <path d="M468.9,328.6L469.4,331.4L470.4,329.8C470.2,328.8 469.4,328.2 469.2,327.1L468.9,328.6Z" style="fill:rgb(46,51,53);fill-rule:nonzero;"/>
            <path d="M469.8,333.5L469.1,333.3L468.4,336L468.8,338.1L470.1,334.9L469.8,333.5Z" style="fill:rgb(46,51,53);fill-rule:nonzero;"/>
            <path d="M469.3,340.5L470.2,341.8L470.8,341.6L469.9,340.4L469.3,340.5Z" style="fill:rgb(46,51,53);fill-rule:nonzero;"/>
            <path d="M444.2,587.2C443.7,586.4 443.2,585.5 442.8,584.7L442.1,585.1L443.5,587.6L444.2,587.2Z" style="fill:rgb(46,51,53);fill-rule:nonzero;"/>
            <path d="M454,330.2L455.5,329.4L455.5,327.1C455.2,327.5 454.8,327.8 454.5,328.3C454.4,328.9 454.2,329.6 454,330.2Z" style="fill:rgb(46,51,53);fill-rule:nonzero;"/>
            <path d="M312.6,390.4L311.5,391L311.5,391.6L312.6,391L312.6,390.4Z" style="fill:rgb(46,51,53);fill-rule:nonzero;"/>
            <path d="M308.2,325.5L308.8,327.3L308.8,324.4L308.2,325.5Z" style="fill:rgb(46,51,53);fill-rule:nonzero;"/>
            <path d="M311.8,280.4L311.7,279.1L311.1,279.1L311.5,280.7L311.8,280.4Z" style="fill:rgb(46,51,53);fill-rule:nonzero;"/>
            <path d="M306.3,389.2L304.1,386.9L303.5,390.9L302.9,392.6L303.4,392.6L306.3,389.2Z" style="fill:rgb(46,51,53);fill-rule:nonzero;"/>
            <path d="M299.2,317.4L299.3,309.9L298,315.6L299.2,317.4Z" style="fill:rgb(46,51,53);fill-rule:nonzero;"/>
            <path d="M314.8,268.6L312.3,271.2L312.3,273.8L313.6,273.8L317.4,267.9L314.8,268.6Z" style="fill:rgb(46,51,53);fill-rule:nonzero;"/>
            <path d="M312.7,387L313.3,387L315,385.3L313.3,384.1L312.7,384.1L312.7,387Z" style="fill:rgb(46,51,53);fill-rule:nonzero;"/>
            <path d="M313.6,275.8L313,277.1L315,275.8L313.6,275.8Z" style="fill:rgb(46,51,53);fill-rule:nonzero;"/>
            <path d="M300.2,330L301.9,330.6L303.6,327.8L304.8,327.2L304.8,325.5L301.9,327.2L301.9,330L300.2,327.1L300.2,330Z" style="fill:rgb(46,51,53);fill-rule:nonzero;"/>
            <path d="M296.6,391.4L296.5,392.5L297.1,392.5L296.6,391.4Z" style="fill:rgb(46,51,53);fill-rule:nonzero;"/>
            <path d="M288.3,504.9L287.7,506.6L287.7,513.5L288.8,515.2L291.1,513L291.2,504.9L290.6,504.3L290.1,504.9L290,511.2L288.3,511.2L288.3,504.9Z" style="fill:rgb(46,51,53);fill-rule:nonzero;"/>
            <path d="M294.8,390.8L294.8,392.5L295.4,391.4L294.8,390.8Z" style="fill:rgb(46,51,53);fill-rule:nonzero;"/>
            <g transform="matrix(0.0118004,-0.9999,0.9999,0.0118004,-18.942,615.089)">
                <rect x="296.3" y="316.8" width="10.9" height="0.6" style="fill:rgb(46,51,53);"/>
            </g>
            <path d="M301.1,396L302.8,395.5L301.1,393.7L301.1,396Z" style="fill:rgb(46,51,53);fill-rule:nonzero;"/>
            <path d="M298.3,389.7L299.5,389.1L301.2,389.1L302.3,388L298.3,387.4L298.3,389.7Z" style="fill:rgb(46,51,53);fill-rule:nonzero;"/>
            <path d="M299.1,320.2L299.7,320.3L299.7,319.7L299.1,318.5L299.1,320.2Z" style="fill:rgb(46,51,53);fill-rule:nonzero;"/>
            <path d="M271.4,574.1L271.5,573L270.9,572.4L270.9,574.1L271.4,574.1Z" style="fill:rgb(46,51,53);fill-rule:nonzero;"/>
            <path d="M276,575.9L276.6,575.9L276.6,574.8L276,574.2L276,575.9Z" style="fill:rgb(46,51,53);fill-rule:nonzero;"/>
            <path d="M294.2,401.1L294.1,402.2L294.7,402.3L295.3,401.7L294.7,401.1L294.2,401.1Z" style="fill:rgb(46,51,53);fill-rule:nonzero;"/>
            <path d="M274.5,561.5L274.6,547.8L274.1,547.2L273.4,550L273.4,553.5L272.3,553.5L271.7,550.6L270.5,553.5L271.6,557.5L269.9,557.5L268.8,554.6L266.4,562L267.5,563.8L270.4,563.2L271.6,559.8L272.2,559.8L272.2,561.5L274.5,561.5Z" style="fill:rgb(46,51,53);fill-rule:nonzero;"/>
            <path d="M272.5,529.4L272.7,508.2L275,506.5L275.7,493.9L275.1,493.3L274.5,499L272.1,504.1L272,511L271.4,516.7L270.2,520.7L269.6,520.1L269.1,512.6L267.8,524.1L266.6,528.1L266.5,533.3L265.9,535.6L265.8,541.3L264.6,547.6L262.6,568.8L263.7,570.5L264.2,571.5L264.3,571.6L265.4,569.4L265.6,554.5L267.5,538.5L268,540.8L268.6,540.2L268.6,535.6L270.9,532.2L270.8,540.8L271.3,548.3L273.1,542L271.4,540.3L273.8,535.2L274.4,529.5L272.5,529.4Z" style="fill:rgb(46,51,53);fill-rule:nonzero;"/>
            <path d="M261.8,567.4L261.8,564.9L260.9,564.4C261.1,565.4 261.4,566.4 261.8,567.4Z" style="fill:rgb(46,51,53);fill-rule:nonzero;"/>
            <path d="M277.2,527.7L278.4,523.1L279.5,522L279.5,520.9L277.3,519.1L277.6,491L277,491L276.9,503L276.2,508.8L274.5,510.5L274.4,519.1L275,515.6L276.2,515.7L276.7,517.4L275,520.2L274.4,520.8L274.3,525.4L274.9,526.5L274.8,529.4L276.6,528.9L277.2,527.7Z" style="fill:rgb(46,51,53);fill-rule:nonzero;"/>
            <path d="M262.9,524.1L261.1,525.2L260.5,529.8L259.4,528.7L258.1,535.5L258.7,537.8L259.8,537.8L261,533.8L262.8,532.1L262.9,524.1Z" style="fill:rgb(46,51,53);fill-rule:nonzero;"/>
            <g transform="matrix(0.0118004,-0.9999,0.9999,0.0118004,-164.565,736.011)">
                <rect x="288.7" y="450.7" width="2.9" height="1.1" style="fill:rgb(46,51,53);"/>
            </g>
            <path d="M289.6,540.5L290.2,541.1L290.8,540.5L290.8,534.8L289.7,533.6L289.6,540.5Z" style="fill:rgb(46,51,53);fill-rule:nonzero;"/>
            <path d="M291,518.1L290.5,517.5L290.4,521L291,520.4L291,518.1Z" style="fill:rgb(46,51,53);fill-rule:nonzero;"/>
            <path d="M290.8,487.1L290.8,488.9L291.4,487.7L290.8,487.1Z" style="fill:rgb(46,51,53);fill-rule:nonzero;"/>
            <path d="M445.5,591.1L444.9,590.1L443.4,591L444.8,593.5L445.5,591.1Z" style="fill:rgb(46,51,53);fill-rule:nonzero;"/>
            <path d="M278.3,573.6L278.6,554.7L279.8,548.4L281.5,545L279.9,541.5L278.7,543.2L277,543.2L277,540.9L278.8,538.1L277.1,531.2L277.1,530L275.2,546.6L276.3,550.1L276.1,566.7L276.6,573.6L278.3,573.6Z" style="fill:rgb(46,51,53);fill-rule:nonzero;"/>
            <path d="M285,543.9L282.7,543.8L282.7,546.7L280.9,546.7L280.9,553L282,553L284.9,548.5L285,543.9Z" style="fill:rgb(46,51,53);fill-rule:nonzero;"/>
            <path d="M283.6,566.8L284.7,565.1L284.8,562.8L283.1,560.5L283,563.9L283.6,566.8Z" style="fill:rgb(46,51,53);fill-rule:nonzero;"/>
            <path d="M281.4,558.8L282.5,558.2L282.6,555.9L281.4,555.9L281.4,558.8Z" style="fill:rgb(46,51,53);fill-rule:nonzero;"/>
            <path d="M521.4,314.6C521.4,315.9 521,317.2 520.8,318.4C521,319.2 521.2,319.9 521.4,320.7C522.1,318.4 521.8,316.6 521.4,314.6Z" style="fill:rgb(46,51,53);fill-rule:nonzero;"/>
            <path d="M320.5,457.1L319.3,455.9L319.3,456.5L319.9,457.6L320.5,457.1Z" style="fill:rgb(46,51,53);fill-rule:nonzero;"/>
            <path d="M520,307.7L520.9,312.2C520.6,310.6 520.4,308.4 520.2,306L520,307.7Z" style="fill:rgb(46,51,53);fill-rule:nonzero;"/>
            <path d="M471.5,410L470.9,410.1L471,410.4L471.7,410.7L471.5,410Z" style="fill:rgb(46,51,53);fill-rule:nonzero;"/>
            <g transform="matrix(0.0118004,-0.9999,0.9999,0.0118004,-107.117,729.909)">
                <rect x="315.2" y="418.6" width="1.1" height="1.1" style="fill:rgb(46,51,53);"/>
            </g>
            <path d="M315.1,423.2L316.3,422L315.1,421.4L315.1,423.2Z" style="fill:rgb(46,51,53);fill-rule:nonzero;"/>
            <path d="M294.9,432.7L296.7,431L295,427.5L294.9,432.7Z" style="fill:rgb(46,51,53);fill-rule:nonzero;"/>
            <path d="M318.3,400.2L318.3,399.7L317.7,399.1L317.7,400.2L318.3,400.2Z" style="fill:rgb(46,51,53);fill-rule:nonzero;"/>
            <path d="M298.1,410.9L299.2,409.8L299.2,408.6L298.1,408.6L298.1,410.9Z" style="fill:rgb(46,51,53);fill-rule:nonzero;"/>
            <path d="M302.6,415L303.2,413.8L300.9,410.9L300.9,414.4L302.6,415Z" style="fill:rgb(46,51,53);fill-rule:nonzero;"/>
            <path d="M296.7,426.4L297.9,425.2L298,415.5L297.4,414.9L296.3,415.5L296.8,417.2L297.9,421.2L296.7,424.1L296.7,426.4Z" style="fill:rgb(46,51,53);fill-rule:nonzero;"/>
            <path d="M314.3,396.2L312.5,400.2L317.2,396.2L314.3,396.2Z" style="fill:rgb(46,51,53);fill-rule:nonzero;"/>
            <path d="M310.2,404.2L311.3,404.2L312.5,403.6L311.4,399L311.4,396.1L310.2,399.6L309.1,399.6L309.2,387.5L310.4,385.2L307.6,382.3L307,381.2L305.3,380L305.3,381.7L303.6,381.7L301.3,382.8L304.6,386.9L306.4,385.8L307.5,385.8L307.5,391.5L306.9,392.6L306.8,396.1L304,397.2L303.4,398.9L302.8,398.9L301.1,397.7L300.5,397.7L300.4,402.9L299.3,402.9L297,400.6L295.8,405.1L293.5,405.1L293.4,415.4L293.9,418.9L294.5,418.3L294.1,408.6L295.8,406.9L297,406.9L298.7,405.7L299.2,406.9L303.3,401.2L304.5,399.5L305.6,404.1L307.3,405.3L306.1,406.4L306.1,409.3L307.3,408.7L307.8,409.9L309.5,409.9L311.3,406.5L309,406.4L309,405.3L310.2,404.2Z" style="fill:rgb(46,51,53);fill-rule:nonzero;"/>
            <g transform="matrix(0.866,-0.5001,0.5001,0.866,-237.505,302.952)">
                <rect x="445.5" y="594" width="1.7" height="1.1" style="fill:rgb(46,51,53);"/>
            </g>
        </g>
        <path d="M582.9,261.7C558.6,173.2 481.6,108.3 390.6,108.3C299.6,108.3 222.6,173.2 198.3,261.8L197.3,261.8C180.4,261.8 166.8,275.4 166.8,292.3L166.8,351.3C166.8,368.1 180.4,381.8 197.3,381.8C214.2,381.8 227.8,368.1 227.8,351.3L227.8,292.3C227.8,281.8 222.5,272.6 214.5,267.1C236.6,185.4 307.2,125.4 390.6,125.4C473.8,125.4 544.2,185 566.5,266.3C557.7,271.7 551.8,281.3 551.8,292.3L551.8,351.3C551.8,368.1 565.5,381.8 582.3,381.8C599.2,381.8 612.8,368.1 612.8,351.3L612.8,292.3C612.8,275.5 599.5,262 582.9,261.7Z" style="fill:rgb(36,193,182);fill-rule:nonzero;"/>
    </g>
</svg>
